<svg xmlns="http://www.w3.org/2000/svg" width="67.43" height="61.39" viewBox="0 0 67.43 61.39">
  <title>Asset 1dropcap</title>
  <g id="Layer_2" data-name="Layer 2">
    <g id="Layer_1-2" data-name="Layer 1">
      <path id="black_marker" data-name="black marker" d="M61.59,17.83c-3.16,0-6.32,0-9.48,0-2.63-.05-5.26-.24-7.89-.33a3,3,0,0,0-1,.35,2.75,2.75,0,0,0,.93.45c5,.31,10,.56,15,.92a36.69,36.69,0,0,1,4.62.83c.22,0,.39.29.59.44a3.19,3.19,0,0,0-.62.19c-.24.14-.45.33-.68.49a6.26,6.26,0,0,0,.45.57c.14.16.33.29.49.44a3.28,3.28,0,0,1-.65.37c-1.22.38-2.44.73-3.66,1.1-.15.05-.26.21-.4.32l.34.28a13.16,13.16,0,0,0,1.23,1c1.49,1,1.4,1.42-.41,1.39-.07,0-.13.07-.19.11a1.4,1.4,0,0,0,.3.15,21.4,21.4,0,0,1,2.58.5c.42.13.73.61,1.08.93-.38.21-.74.45-1.14.64a9.11,9.11,0,0,1-.92.33,9.5,9.5,0,0,0,1,.49c1.3.47,2.62.89,3.92,1.37.17.06.41.41.38.46-.21.3-.45.72-.75.78-1.86.4-1.35,1-.4,2.07a2.56,2.56,0,0,1,.46,2.24c-.27.58-1.27,1-2,1.14a16.44,16.44,0,0,1-2.63,0,1.05,1.05,0,0,0-.81.47c-.08.2.18.61.4.82a9.77,9.77,0,0,0,1.13.77c.45.33.89.68,1.34,1-.72.38-1.43.82-2.19,1.13a4.29,4.29,0,0,1-1.3.12c.39.21.78.44,1.19.63s.65.23,1,.37.52.27.78.41a4.75,4.75,0,0,0-.79.48,3.1,3.1,0,0,0-.75.87c-.3.58-.35,1.39-.79,1.78-.86.77-1.66,1.32,0,2a4.94,4.94,0,0,1-.62,1,3.89,3.89,0,0,1-.94.45,7.64,7.64,0,0,1,.77.61c.31.3.59.63.88.94-.35.24-.72.46-1,.73s-.71.67-1.06,1c.34.26.64.67,1,.75,1.77.36,2.33,1,1.15,2.74-.39.56-.15,1.54-.24,2.32-.16,1.35-.62,2.4-2.31,2.08-3.53-.68-7-1.52-10.6-2-6.06-.79-12.14-1.4-18.23-2-5.55-.54-1.11-1-6.68-1.44-6-.43,17.93-.73,11.9-1.09-5.66-.33-11.3-.83-17-1-8.13-.19,43.73-.19,35.59-.16S37.7,53.8,29.6,54c-8.34.24,13.34.68,5,1-6.52.28-3.05.47-9.56.83-3.13.18-6.23.81-9.35.93-1.19,0-2.9-.37-3.51-1.21a4.14,4.14,0,0,1,0-4.52c.5-.91.22-2.27.27-3.43,0-.85,0-1.72.05-2.57.1-1.38.22-2.76.42-4.13a6.79,6.79,0,0,1,.66-2.38,2,2,0,0,0,.13-2.23c-.29-.54.28-1.58.57-2.36.48-1.31,0-1.93-1.3-1.71-4.15.69-5.31,1.39-9.43,2.26C1.36,35-.08,33.69,0,30.83.05,29.21.35,27.59.51,26c.28-2.78.52-5.57.79-8.36a6.33,6.33,0,0,1,.28-1.44c.61-1.81,1.26-3.6,1.88-5.4a.64.64,0,0,0,0-.51c-1.29-1.75-.62-3.53-.17-5.33a3.73,3.73,0,0,0,.14-1.68c-.29-1.34.43-1.61,1.5-1.68C9.28,1.25,10.65.85,15,.63,20.19.36,25.35.22,30.51.07,33,0,25.4,0,27.85,0a2.07,2.07,0,0,1,.42.08c-.14.08-.27.21-.42.22-4.06.21,1.86.29-2.2.66-5,.45-9.91,1.14-14.86,1.74a2.18,2.18,0,0,0-.65.35,2.85,2.85,0,0,0,.84.17c4-.34,8-.85,12-1,5.41-.23.84-.2,6.26-.27.25,0,.51.23.76.35a2.73,2.73,0,0,1-.75.4c-.78.15-1.58.23-2.36.33a19.09,19.09,0,0,0,2.58.37c5.42.1-9.16.15-3.74.22.42,0,.83.16,1.25.15a5,5,0,0,0,1-.24,7.22,7.22,0,0,1-.6-.5,1.78,1.78,0,0,1-.24-.43,2,2,0,0,1,.61-.23c2.06-.06,4.12-.18,6.18-.13,5.54.12,1.08.32,6.62.49q11,.33,22,.64c2.37.07-55.26.15-52.9.13.93,0,1.87-.45,2.78-.38,2.78.24,5.54.72,8.33.91a5.34,5.34,0,0,0,2.81-.72c1.86-1,1.74-.94,4.34.28.91.43,2.28-.08,3.44-.19,1.43-.14,2.84-.33,4.27-.44.19,0,.41.23.62.36a3.53,3.53,0,0,0-.64.16c-.34.15-.66.33-1,.5a6.11,6.11,0,0,0,1,.36c3.8.46-22.39.06-18.54.87,4.63,1,9.5.83,14.26,1.12,8.6.54,7.19,1,15.78,1.55,1.34.08,2.68.09,4,.19a2.85,2.85,0,0,1,.93.48c-.33.16-.66.45-1,.45-1.72,0-3.44,0-5.16-.06l-.44,0a4.1,4.1,0,0,0,.48.1c3.79.47,7.59.93,11.37,1.42.29,0,.54.32.81.48-.28.15-.56.41-.85.42-1.1,0-2.21-.05-3.32-.06a1.54,1.54,0,0,0-.54.22,2.85,2.85,0,0,0,.5.14c2,.24,4,.47,5.91.73a2.4,2.4,0,0,1,.74.39,3.68,3.68,0,0,1-.7.32,5.7,5.7,0,0,1-1.35.23c-4.26,0-8.52.11-12.77,0-7.13-.23-4.26-.55-11.38-1-6.94-.41,6.13-1-.81-1.48A27.83,27.83,0,0,0,30,11a1.43,1.43,0,0,0-.38.13c.09.08.16.19.25.22a4.45,4.45,0,0,0,1.18.4c2.15.19-15.7.35-13.55.46,3.16.16,6.33.22,9.48.44,1.26.09,2.48.62,3.73.75.75.07,1.56-.43,2.31-.36,3,.26-4.07.68-1.1,1,2,.2,4,.33,5.94.39.9,0,1.83-.35,2.72-.27.73.06,1.4.7,2.12.77,6.54.62,13.09,1.17,19.64,1.77a11.92,11.92,0,0,1,2.12.63l-2.13.41c-.26.05-.53.08-.8.12ZM56.84,4.36c.82.08,1.64.18,2.47.23a2.31,2.31,0,0,0,.7-.2,2,2,0,0,0-.61-.18c-.86,0-1.71.1-2.57.15-2.19-.17-4.39-.36-6.59-.52a1.7,1.7,0,0,0-.57.2,2.16,2.16,0,0,0,.58.22ZM38.38,8.52V8.39a12.48,12.48,0,0,0-1.49-.07,5.8,5.8,0,0,0-1.13.27A4,4,0,0,0,36.89,9c.94,0,1.89-.18,2.82-.08,2,.2,4.1.82,6.12.72,2.19-.1,4.2-.66,6.5.23,1.68.66,3.88-.62,5.78.46.09.05.29-.06.44-.1A8,8,0,0,1,60.3,9.8L7.66,10a6.16,6.16,0,0,0,1.59-.39L7.82,9.1a.86.86,0,0,0-.23,0C3,8.88,55.42,8.7,50.83,8.47,48.67,8.36,46.51,8,44.36,8S40.37,8.33,38.38,8.52ZM27.64,8l-.14-.36c-.56.13,8.89.26,8.34.38.54.1-8.92.27-8.38.28,4.84.1-10.32.15-5.48.27.65,0,1.3.46,1.94.44,1.71-.05,3.41-.28,5.11-.38,1.25-.07,2.51,0,3.76-.05.13,0,.25-.14.38-.22a1,1,0,0,0-.26-.12c-2.64-.35-5.28-.84-7.94-1-1.95-.11-3.93.27-5.9.32-1.73,0,16.54,0,14.81-.11A33.84,33.84,0,0,0,30.16,7,8.76,8.76,0,0,0,27.64,8Zm-8.08,2.49v.16l3.53-.32c.33,0,.66-.09,1-.14a4.83,4.83,0,0,0-1-.27q-5.88-.26-11.77-.47a2.11,2.11,0,0,0-.69.24,2.57,2.57,0,0,0,.72.25C14.1,10.09,16.83,10.26,19.56,10.44Zm16.18-1.8V8.57l8,.47A4,4,0,0,0,44.52,9a1.91,1.91,0,0,0-.65-.27c-4.52-.27-9-.51-13.57-.75a2,2,0,0,0-.51.11,1.93,1.93,0,0,0,.58.28C32.16,8.44,34,8.53,35.74,8.64ZM29,7.21V7.3H26.91l-.33,0a1.14,1.14,0,0,0,.25.06l9.31.45H26.49c-.13,0,9.75,0,9.63,0Zm4.88,3.87c-.36,0-.16,0,0,0s.65-.15,1-.23a6.38,6.38,0,0,0-1-.23l-5.58-.33a2.29,2.29,0,0,0-.6.15,2.17,2.17,0,0,0,.59.26C30,10.82,31.64,10.93,33.86,11.08ZM62.43,4.33v0a3.66,3.66,0,0,0-.57,0,7.62,7.62,0,0,0-.81.14,5,5,0,0,0,.85.2c1.14.1-54.72.18-53.57.23a2.61,2.61,0,0,0,.75-.17,5.12,5.12,0,0,0-.68-.14C7.41,4.49,63.42,4.41,62.43,4.33Zm-35.2-.61h2.51c.15,0,.31,0,.46,0a2.7,2.7,0,0,0-.39-.08c-1.78-.09,6.43-.18,4.65-.25-.15,0-.31.11-.46.17a1.57,1.57,0,0,0,.48.18C35.4,3.73,26.31,3.72,27.23,3.72Zm-.41,4.43c-.49.07,9,.14,8.45.21.39.16-9.2.48-8.82.46a9.35,9.35,0,0,0,1.84-.46ZM17.67,5.33l2.44-.16L18,4.92l-.11,0L16.57,5Zm18-1.66a14.53,14.53,0,0,0,1.48.21,2.25,2.25,0,0,0,.69-.17ZM40.58,4l.82-.08a4.35,4.35,0,0,0-.78-.23,3.25,3.25,0,0,0-.75.08Zm5.11.17L46.14,4a2.12,2.12,0,0,0-.67-.25,9.91,9.91,0,0,0-1.22.15Zm5.84,9a4.37,4.37,0,0,0-.82-.22,3.41,3.41,0,0,0-.53.13,2,2,0,0,0,.52.26A3.13,3.13,0,0,0,51.53,13.21Z"/>
    </g>
  </g>
</svg>
