<svg xmlns="http://www.w3.org/2000/svg" viewBox="0 0 155.8 27.38"><defs><style>.cls-1{fill:#853849;}</style></defs><title>A_Confession_logo</title><g id="Layer_2" data-name="Layer 2"><g id="itv_a_cofession-longform-bg-desktop"><g id="a_confession_TT" data-name="a confession TT"><path class="cls-1" d="M14.72,27.08H10.48l-.73-4.86H4.59l-.73,4.86H0L4.28.31h6.16Zm-9.6-8.49H9.18l-2-13.54Z"/><path class="cls-1" d="M34.8,17.09v3.56c0,4.28-2.14,6.73-6.27,6.73s-6.27-2.45-6.27-6.73V6.73C22.26,2.45,24.4,0,28.53,0S34.8,2.45,34.8,6.73v2.6h-4V6.46c0-1.91-.84-2.64-2.18-2.64s-2.18.73-2.18,2.64V20.92c0,1.91.84,2.6,2.18,2.6s2.18-.69,2.18-2.6V17.09Z"/><path class="cls-1" d="M37,6.73C37,2.45,39.27,0,43.4,0s6.39,2.45,6.39,6.73V20.65c0,4.28-2.26,6.73-6.39,6.73S37,24.93,37,20.65Zm4.2,14.19c0,1.91.85,2.64,2.18,2.64s2.18-.73,2.18-2.64V6.46c0-1.91-.84-2.64-2.18-2.64s-2.18.73-2.18,2.64Z"/><path class="cls-1" d="M55.49,7.69V27.08H51.7V.31H57l4.32,16V.31h3.75V27.08H60.73Z"/><path class="cls-1" d="M71.51,12.2h5.43V16H71.51V27.08h-4.2V.31H78.43V4.13H71.51Z"/><path class="cls-1" d="M84.67,11.59h5.77v3.82H84.67v7.84h7.26v3.83H80.46V.31H91.93V4.13H84.67Z"/><path class="cls-1" d="M99.43,0c4.09,0,6.19,2.45,6.19,6.73v.84h-4V6.46c0-1.91-.77-2.64-2.11-2.64s-2.1.73-2.1,2.64c0,5.51,8.22,6.54,8.22,14.19,0,4.28-2.14,6.73-6.27,6.73s-6.27-2.45-6.27-6.73V19h4v1.91c0,1.91.84,2.6,2.18,2.6s2.18-.69,2.18-2.6c0-5.51-8.23-6.54-8.23-14.19C93.23,2.45,95.34,0,99.43,0Z"/><path class="cls-1" d="M113,0c4.09,0,6.19,2.45,6.19,6.73v.84h-4V6.46c0-1.91-.76-2.64-2.1-2.64s-2.1.73-2.1,2.64C111,12,119.2,13,119.2,20.65c0,4.28-2.14,6.73-6.27,6.73s-6.27-2.45-6.27-6.73V19h4v1.91c0,1.91.84,2.6,2.18,2.6s2.18-.69,2.18-2.6c0-5.51-8.22-6.54-8.22-14.19C106.77,2.45,108.87,0,113,0Z"/><path class="cls-1" d="M120.84.31h4.21V27.08h-4.21Z"/><path class="cls-1" d="M127.76,6.73C127.76,2.45,130,0,134.15,0s6.39,2.45,6.39,6.73V20.65c0,4.28-2.26,6.73-6.39,6.73s-6.39-2.45-6.39-6.73ZM132,20.92c0,1.91.84,2.64,2.18,2.64s2.18-.73,2.18-2.64V6.46c0-1.91-.84-2.64-2.18-2.64S132,4.55,132,6.46Z"/><path class="cls-1" d="M146.24,7.69V27.08h-3.79V.31h5.28l4.32,16V.31h3.75V27.08h-4.32Z"/></g></g></g></svg>