<svg xmlns="http://www.w3.org/2000/svg" viewBox="0 0 1381.31 1038.83"><defs><style>.cls-1{fill:#945160;}</style></defs><title>connect_intro</title><g id="Layer_2" data-name="Layer 2"><g id="itv_a_cofession-longform-bg-desktop"><g id="connect_the_dots" data-name="connect the dots"><path class="cls-1" d="M20.06,1032.35l5.16-1.79Z"/><path class="cls-1" d="M15.39,1033.84,15,1034Z"/><path class="cls-1" d="M1122.85,310.45c.51-1.95.94-3.63,1.18-4.55C1123.29,308.7,1123,310,1122.85,310.45Z"/><path class="cls-1" d="M1042,622.41a.85.85,0,0,0,0-.24C1041.9,622.64,1041.87,622.79,1042,622.41Z"/><path class="cls-1" d="M80.39,1011.39l-2.35.8C77.57,1012.39,79.82,1011.61,80.39,1011.39Z"/><path class="cls-1" d="M1162.58,239.28c.18-.21.34-.4.42-.51Z"/><path class="cls-1" d="M267.11,947.27l2.19-.76Z"/><path class="cls-1" d="M1022.93,684.5c-.28,1.1-.43,1.72-.51,2C1022.75,685.29,1023,684.39,1022.93,684.5Z"/><path class="cls-1" d="M1023,685.57c4.14-15.87-1.09,3.34-.56,1-1.1,4.24-3.52,13.24-2.31,9-1.17,4-2.77,10.07-4.38,16.25-.82,3.09-1.64,6.22-2.4,9.14-.39,1.46-.77,2.87-1.13,4.2-.18.66-.35,1.31-.52,1.93-.06.21,0,.17-.06.19v0l0,0-.05,0,.06.06s.08-.12,0,.11l-.1,0-.09,0-.56-.26c-8.7-4.12-8-3.91-11.55-5.63-2.6-1.18-15.81-7.44-14.52-6.85-5.8-2.71,6.06,3.11-2-.66-5.51-2.48-12.89-6.12-19.34-9.16-7.69-3.77,7.75,3.62,11,5.11l-21.92-10.38c-6.41-3.13,3,1.26,9.4,4.35-8.69-4.23-20-9.53-22.6-10.66l-13.51-6.49c5.16,2.39,4.92,2.07,13,5.87,13.22,6.32-4.86-2.15,6.38,3.24l1,.35c4.8,2.36,8.68,4.12,13.86,6.58,2.88,1.4-.65-.27-2.59-1.17,9.35,4.45,16.76,8,23.88,11.29-12.55-6.1-31.6-15-37-17.76L919.1,683.33s8.66,4.28,1.54,1c-2.85-1.51-10.23-5.09-19.9-9.73,3.51,1.83-15.51-7.25-10.71-4.83,4.54,2.08,6.75,3.27,7.38,3.58-9.35-4.45-1.32-.48-6.47-2.92-17.07-8.18.68.22-16.07-7.83,3.57,1.63,12.66,5.8,22,10.19-.61-.37-9.31-4.43-13.19-6.37,5.47,2.69-3.9-1.7.61.48l-45.84-21.58c2.65,1,27.75,13.05,22.69,10.35-8.06-3.81-8.08-3.7-14.53-6.79-5.42-2.73-19-9.07-30-14.3l4.83,2.37c-4.2-1.94-11.9-5.66-16.75-8l1.28.58-4.8-2.24-.73-.36-.17-.09-28.77-13.67.43.23,1.19.59,4,1.88,9.22,4.37c1.3.65,10.6,5.13,6.06,3L756.93,606.5l4.49,2.18c-4.54-2.08-10.63-5-17.39-8.25-12.23-5.91,9.07,4.16,1.67.57,4.85,2.21,13.2,6.3,14.53,6.79L752.58,604c-6.5-3-13.55-6.51-18.08-8.65l4.83,2.38c-1-.36-5.47-2.58-7.74-3.68l3.19,1.71c7.06,3.39,12,5.57,17.06,8.11-12.57-5.94-9.73-4.44-24.86-11.64-.65-.39,2.93,1.36,4.52,2.07-5.15-2.5-10.64-5-19-9,4.81,2.24,12.59,5.88,6.49,2.87l-4.54-2c-3.86-1.86-2.25-1.15-3.84-1.91-5.48-2.64,1.21.72-7.46-3.45a26.61,26.61,0,0,1-2.87-1.46c-10-4.76-4.82-2.25-14.17-6.65,8.35,4,8.59,4.31-.09.2-12.24-5.86-20.63-9.74-29-13.9l-5.51-2.53c3.57,1.57-7.73-3.73-11.59-5.6-.62-.36,4,1.83,8.73,4.08l6.62,3.13,2.23,1a4.6,4.6,0,0,0,.87.34c-8-3.86-4.5-2.24-1.89-1.06-8.72-4.13-3.29-1.4-7.17-3.16l-.62-.31-1.61-.78-4.53-2.18c-3.06-1.47-5.47-2.64-2.88-1.47-7.4-3.53-8.74-4-14.19-6.65.85.35,1.83.74,1.33.43-.66-.27-7.63-3.65-9-4.3,1.27.63-2.61-1.13,3.84,1.91-1.65-.68-15.15-7.22-14.83-7-.62-.42-13.86-6.63-20.59-9.89.54.56,12.58,5.88,14.75,7.17l-29.37-13.94c-2.6,6-5.19,11.93-7.42,17.06-5.64,12.7-.1,0-1.34,2.52,4.17-9.47,5.92-13.46,8.69-19.76l6.62,3.14L571.58,518l-8,18.13c-2.49,5.73-4.77,11-6.26,14.43-5.32,12.12-6.17,13.34-12.56,28.06.94-1.92.82-1.59,2.87-6.17-1.73,3.92-3.74,8.51-5.6,12.74-1.1,2.63,2.94-6.52.4-.62-1,2.29-3.19,7.18-2.82,6.19l.42-1c-6.09,14.06-4.66,10.06-9.8,22.2.47-1,1.57-3.6,2.89-6.54,1.06-2.25-2.13,5.26-4.56,10.86.38-1-2.16,4.89-3.9,8.79-1.25,2.58,4.28-9.81,5.08-11.79L525,624l1-2.26L521,633.54c3.57-8.19,1.84-3.87.28-.28-3.61,8.15-7.22,16.32-6.89,15.3-.33,1-4.78,11.14-7.92,18.34,3.48-7.83.52-.95-.44,1.34L500.71,680c5.43-12.42-1.24,2.58,0-.37,1.46-3.62,4.83-11.12,7.72-17.66-5.81,12.69-7.8,18-12.78,29.09a5.39,5.39,0,0,1,.42-1.13c.36-.87,1-2.34,2.07-4.78-.89,1.94-4.36,10.16-7.72,17.66.9-2,2.87-6.17-.38,1.34l-4.44,9.77c-5.05,11.43-1.59,4-5.69,13.44l2.8-6.15c-.31,1-5.59,12.73-5.61,13.09,2.58-5.87,3.93-9.19,6.68-15.34,1.13-2.28-3.38,7.85-4.88,11.42-5.66,12.75-4.51,10.12-8.77,19.58-.33.28,6.67-15.77,5.55-13.84-5.42,12.41-13.26,30.4-16.91,38.53-4.83,11.13-4.25,10.19-3.43,8.59-2,4.6-3,6.86-4.33,9.79l2.23-5.23-15.68,36c-3.55,8.14-2,4.91-1.06,3l-3.86,8.83.61-1.34c-.75,2-4.24,9.84-6.82,15.72a2.79,2.79,0,0,1,.21-.56l.5-1.2c.36-.86.71-1.68.62-1.52-2.33,5.19-5.77,13.05-7.58,17.3,0,0,0-.05.05-.17l.19-.49c.18-.44.44-1.09.79-1.93.7-1.68,1.76-4.14,3.14-7.23.3-.65.18-.32.47-1l4.54-10.49c-2.63,6-4.76,10.87-6.24,14.12a49.39,49.39,0,0,1-2.28,4.78c-5.26,12.11,4.44-9.78-1.84,4.62-2.64,5.81-5.15,11.46-7.5,16.8L405,897.71l-8,2.73q-3.82,1.27-7,2.27c-9.06,3.21-19.8,7.06-34,12l-.39.17-1.05.39-3.09,1.09a23,23,0,0,0-3.5,1.31c13.56-4.55,25.2-8.95,36.1-12.52,6-2.14,4-1.51,6.66-2.51,5.36-1.87,10.44-3.61,11.16-3.79-12.45,4.38-3.27,1.4-19.11,6.89,2-.61,14.87-5.09,20.59-7-1.35.51-.45.24,2-.55l.78-1.73c-.19.47-.42,1-.74,1.77l-16,5.75c1.65-.62-1.41.41-.05-.09L373,909.69c-5.09,1.7-6.49,2.1-3.79,1.1l-15.72,5.48-6.33,2.19-1.89.63a5.63,5.63,0,0,1-.71.2c-11.79,4.11,3.77-1.21,4.79-1.52l-1,.36,12.47-4.33c1.44-.31-14.19,4.87-16.12,5.72s-17.6,6-26.33,9.07l10-3.73L319.58,928c5-1.84,4.95-2,12.66-4.75L295.12,936c-3.06,1-4.42,1.36-3.11.82-12.09,4.35-18.92,6.48-29.39,10.1-11.07,3.93,11.18-3.75,3.14-.84-3.38,1.11-9.44,3.26-12.46,4.34,3.35-1.21,15.19-5.23,23.31-8-6.08,2.1-5.37,2-7,2.61l10.15-3.49c-.62.37-12.47,4.33-17.15,6,3-1.16,1.3-.59,4.26-1.75-8.75,3.09-21.9,7.64-29.37,10.14-4.4,1.47,3.68-1.34,6-2.19-2.05.61-8.74,3.08-10.47,3.56,1.32-.54,5.38-1.87,8.42-3l-25.65,8.84.28-.11.77-.28,2.64-.94,6.73-2.33c-7.79,2.64-13.49,4.64-22.52,8-8.79,3-18.92,6.42-16,5.31-4,1.43-1.31.54-1.26.58-11.83,4.07-13.08,4.7-20.15,7.16l5.4-1.77c-11.49,3.87-2.61,1.08-12.75,4.51,1.61-.67.91-.55-.83-.07-1.64.68-8.09,2.82-12.46,4.34,2.75-.85-9.39,3.35-2.27,1-10.11,3.59-14.86,5.09-22.24,7.78,4.72-1.6-8.71,3.13-4.62,1.79-9.8,3.41-16.58,5.63-14,4.6,3.39-1.17,8.82-3,8.42-3L93.18,1006c-4.43,1.48-10.14,3.44-10.89,3.57-5.67,2.11-16.89,5.75-21.21,7.42,6-2.2,10.82-3.71,13.15-4.5l-2.76,1,1.44-.5-7.64,2.87c7.44-2.49,1.27-.59,11.76-4.21,9.15-3-20.47,7.39-11,4.23,7.77-2.63,6.35-2.33,12.72-4.61l-1.67.58,14.46-5.1c.7-.18-3.67,1.39-3.67,1.39l39.19-13.44c-1.38.45-5.15,1.55,3.26-1.4,6-2.14,6.77-2.28,11.81-4-3,1.07-5.67,2.11-9.73,3.44h.38c-14.09,5.06-6.63,2.62-25.82,9.32-.85.4-14.75,5.27-25.21,8.87l5.1-1.67c-10.72,3.89-2.09.57-15.85,5.49-5.8,1.82-16.37,5.25-8.67,2.43-9.81,3.35-13.12,4.6-21.91,7.64-5.45,1.73,2.64-1.08,1.57-.87-6.42,2.24-14.48,5.1-9.69,3.53l-12.2,4.16c-.33.09,4-1.42,5.74-2-4.75,1.61-13.82,4.83-16.48,5.81,1-.35,4-1.44,5.38-1.87-5,1.79-14.11,5-14.76,5.27,7.38-2.63,8.11-2.71,15.83-5.49-.65.27-1.95.81-6,2.2,6.45-2.14,12.84-4.38,15.57-5.21-5.43,1.8-8.86,3.1-10,3.51,4.86-1.65,14.52-5,17.76-6.19.77-.09,18.86-6.57,12.55-4.2,1-.41,8.07-2.86,11.81-4.11-.32.18-9.73,3.49-13.74,5-18.87,6.62.29-.24-4.14,1.24l-14.41,5c1.46-.48-5.73,2.11,3.67-1.16-4.33,1.62-13.4,4.83-20.84,7.33-1.69.63,3.72-1.25,5.4-1.83-1.66.63-10.7,3.95,1.12-.11-3.38,1.16,5.7-2.06-.39,0,4.71-1.66,17.55-6,12.51-4.19l21.21-7.47c1.38-.4-4,1.43-6.39,2.29L58,1019.63l-4.76,1.56c12.15-4.14,19.82-7,29.57-10.46-1.29.59-9.39,3.41-15.76,5.69,6.17-2,4-1.48,14.14-5q2.05-.68,1.08-.27l8-2.91c2.36-.8,1-.31,0,.05,13.78-4.93-.41-.06,18.12-6.55-11.19,3.81-9.45,3.38-18.86,6.62-5.46,1.79,10.7-3.89,13.4-4.88,9.09-3.12,10.2-3.29,21.63-7.36-8.06,2.86-.3.23-11.75,4.21-6.39,2.28,3.4-1.12,4.77-1.51a59.64,59.64,0,0,1,6.36-2.34l-.33.14,13.75-4.92c12.87-4.38,28.93-10.19,37.77-13.09l-2.08.57,25.26-8.8c-1.3.54-6.7,2.42-12.42,4.43,14.53-5,27.29-9.52,37-13l-14.92,5c9.35-3.45,11.2-3.75,23.3-8.05.38,0-3.67,1.4-.59.48L250,952.45c3.09-.93-2.24,1-14.72,5.38-9.49,3.16-19.86,7-27.68,9.56l4.77-1.56L189.1,974l.32-.13-4,1.53,4.37-1.52c-3,1.12-12,4.39-14.74,5.33,13.5-4.7,14.39-5.24,20.75-7.57,12.15-4.2,17-5.62,25-8.53.68-.17,7.48-2.45,2.08-.52-6.7,2.37-11.47,3.93-12.1,4.24,7.09-2.43,4.39-1.5,15.17-5.22,2-.82,10-3.72,17.71-6.49,8.08-2.87,18.55-6.49,25-8.68-8.1,2.82-16.14,5.73-14.07,5.11,4.67-1.76,15.88-5.4,13.43-4.74,9.44-3.26,25.31-8.76,26.39-9-8.93,3.09-17.58,6.08-25.14,8.71,2.08-.72,4.13-1.39,2.92-.94l-11.15,3.85c8.45-2.85,6.8-2.23,17.59-6-.69.22-2.05.67-1,.31l8.78-3h.38c8.06-2.86,23.66-8.08,38.43-13.31l-1.32.49c11.81-4.06,12.71-4.66,25.52-9.14-3.69,1.35-2,.82-1.29.65,6.38-2.28,9.81-3.35,16.24-5.54-7.47,2.5,5-1.88-.44,0-.2,0,3-1.15,7.08-2.58l12.44-4.32c4.09-1.22-20.87,7.34-10.67,4,6.74-2.32,8.4-3,3.65-1.39,8.44-2.9,21.26-7.32,27.39-9.33l2.63-.94L411,888.74c1.17-2.71,2.19-5.1,3.37-8-2.29,5.23-2.31,5.59-5.25,12.12l3-7.24,10.45-23.48-3,6.89.13-.35c-1.1,2.64-5,11.45-4.48,10.5,2.61-6.24,4.88-11.12,8.39-19.31l-.13.33c6.22-14.4,11.11-24.77,14.88-34-1.14,2.61-3.54,7.82-2.86,6.16,1.5-3.27,5.35-12.08,5.28-11.74l-1.27,3,7.05-16a60.76,60.76,0,0,1,2.38-5.92c6.37-14.37-2.38,5.92,2-3.84l5.81-13.43,1.37-2.92c8.82-19.87,15.32-35.33,24.65-56.56.14-.14-1.46,3.63-3.39,8.09s-4.17,9.61-5.31,12.22c3-6.49,7-16,10.94-24.8,3.62-8.18,6.22-14.4,5.58-13.13,4.4-10.13,3.24-7.17,3.83-8.45,1.3-3.34,6.95-16.05,10.5-24.21l.24-.34,5.49-12.76c-1.44,3.26-.22.3-.27.28l1.44-3.25c-5.69,12.35-12.19,28.13-18.05,40.8,1.69-3.93-.65,1.3,1-2.65,1.44-3.25,1.74-3.9,1.92-4.22.8-2,3-7.23,0-.36,0-.2,1.5-3.73,3.53-8.39L507,668.55c3.41-7.48-3.28,7.89-4.92,11.83,1.57-3.6,2.79-6.58,5.13-11.78l-.44,1.34c5.67-13.08,1.46-3.61,2.63-6.61,1.41-3.62,5.17-11.75,6.74-15.34l-1.69,3.92c4.5-10.1,5.37-12.44,9.4-21.56l2-4.24c-5.17,11.42-6,14.1-8.94,20.62,7.45-16.62-1.32,3.69-3.5,8.95,3.14-7.21,6-13.72,7.81-17.61,4.43-10.53,9.69-21.89,13.93-32.06,2.47-5.55-2.05,4.91.53-1,4.75-10.77,9.76-22.22,14.71-33.68,2.6-5.9,2.21-4.87,3-6.49,4.19-9.55,7.52-17.15,10.61-24.21l8.67-20,24,11.41L592,530c6.42,3.08,11.9,5.72,15.13,7.15,8,4.07,27.45,12.93,37.65,18.07,13.53,6.5,14.24,6.62,24.89,11.66,0,0-3.29-1.41,2.2,1.24l104.41,49.63c-.33-.14-2.27-1-3.23-1.49,24.79,11.84,49.35,23.3,69.92,33.19,3.89,1.82,15.49,7.3,12,5.52-4.81-2.3-5.42-2.73-5.07-2.64,18.39,8.66,8.94,4.45,21.21,10.27,1.9,1,0,.11-2.47-1l-3.58-1.66a13.31,13.31,0,0,0-1.79-.75l17.77,8.34c10,4.81,20,9.48,28.65,13.71-3.87-1.87-1.33-.49-7.75-3.63l1.31.6c-14.83-7.09-8.11-3.77-21.34-10l37.73,17.92c-2.22-1.19,8.38,3.94,11.32,5.25l.64.32.28.12.76.34,2.43,1.13,4.94,2.31,2.51,1.37c4.54,2.14-1.25-.68,3.27,1.45,6.42,3,29.34,13.93,30.88,14.84,7.76,3.69,10,4.68,18.06,8.52-.65-.26-2.59-1.17-2.9-1.29l21.24,10.14c3.49-13,7.06-26.28,10.08-37.49,3.72-14.11,6.92-26.19,9.2-35.16-1,3.79-4,14.83-2.22,7.9.95-3.81,2.53-9.66,4.07-15.52-.29,1.39,4-14.82,1-3.09.48-1.46,2.16-7.77,3.73-13.7.79-3,1.56-5.83,2.12-7.94.29-1.05.53-1.92.7-2.51a7,7,0,0,1,.28-.9c.68-2.75,5.16-19.39,6.73-25.64.22-.69-.36,1.56-1,4l-.9,3.41-.29,1.15c-.07.28-.1.44-.1.44l2-7.58h0c3.92-14.5,4.43-17.26,6.7-25.89l-.07.34,1.53-5.86-1.69,6.91c2.41-9.31,3.67-14.14,6.36-24.5l.32-1,1.61-6.24c-.27,1-.35,1.41-.15.73,1.43-5.91,5.07-19.33,6.43-24.86,1.13-4.13,2.22-7.58,3.58-13.11l-.12,1.08c-3.66,13.78-1.48,5.11-5.3,19.62,3.07-10.64,11-40.65,16.38-60.65,4.21-16.21,11.48-42.74,13.07-49.68l-.36,1.74,7.36-27.21c6.12-23.12,12.55-46.89,17.11-64.51l1.37-4.81c1.37-5.45,3.38-13.15,5.6-21.6s4.63-17.53,6.85-25.91l10.74-12c3.15-3.53,5.71-6.43,7.35-8.34,7.23-7.88-2.06,2.46-2.73,3.3,5.3-5.82,14-15.75,19.13-21.21l-.3.36-.79.88-2.17,2.43c-1.43,1.6-2.44,2.73-.75.89,3.9-4.17,5.41-6.14,9.82-10.85-2,2.05,6.78-7.82,13.2-14.95l-1.7,1.86c-1,1,3.81-4.3,6.43-7.22l-.93,1.07c33.15-36.84,71.16-79,106.2-117.54l-6.39,7.17c5-5.59,13.88-15.37,16.75-18.52l-.72.81c9.47-10.22,10.43-11.75,17.75-19.58l-1.41,1.59c11.25-12.45,18.06-19.72,29-31.95,8.69-9.51,7.8-8.4,13.84-15,5-5.56,7.31-8.23,7.56-8.53l-2.42,2.65c-2.7,2.85,5.21-5.87,8.77-9.86-2.74,2.81-1.49,1.09-11.68,12.13-7.38,8.23-7.38,7.8-15.73,17.07-4.63,5.41-12.09,13.15-19.6,21.71,4-4.58-9.16,10-2.59,2.53-3.19,3.38-16.17,18-22.28,24.61,1-1.09.7-.86,2.11-2.45-8.32,9.33-5.82,6.3-12,13.18l.34-.17c-2.36,2.68-3.16,3.41-5.29,5.8,1.71-1.86,5.33-5.76,3.49-3.64l-8.32,9.31a17.83,17.83,0,0,1,1.18-1.4l2.34-2.63s-6.74,7.43-7.26,7.91c2.37-2.69,5.48-6.12,7.54-8.52-8.87,9.75-.74.75-5.13,5.44,1.33-1.22-7.62,8.53-12.36,13.83-.55.5,3.33-3.72,4.48-5.07-9.33,9.9-13.61,15.13-25.38,28.05.22-.28,1.65-1.88,2.37-2.69-5.49,6.14-9.44,10.28-13,14.3-5.3,5.82-1.11.95-9.25,9.95,2.52-2.53-9.6,10.58-9.68,10.93L1219.3,177c-5.45,6.16,1.69-1.42-9.08,10.51-9.86,10.8.71-1.23-5.09,5l-2.33,2.72-4.85,5.26.72-.81-5.14,5.69-2.14,2.33-.65.7-.25.25,4-4.53c-4.7,5.33-19.09,20.74-23.9,26.45-2.86,3.1-8.68,9.53-8,8.65-2.47,2.92-12.77,14.07-16.51,18.32.46-.58-3.19,3.36-6,6.56,3.88-4.22,1.5-1.53-1.06,1.4l-5.54,6.06-2.26,8.35c-.65,2.4-1.18,4.28-1.4,4.94-2,7.61-1.11,4.86-1.46,6.56-1.38,4.84-5.51,20.36-4.93,17.58,1.13-4.16,3.64-13.46,3.07-11.73-2.18,7.91-.88,3.45-2.6,10,.1-.49-1.29,4.42-1,3.15-1,3.86-2.48,9.26-3.95,14.76,2.37-8.58-1.36,5.54.08.39l2.09-8.29c2.67-10,.65-2.08,1.7-5.86-4.66,17.6-3.57,14.17-7.91,30.73-.85,3.1-2.37,8.6-2.84,10.33,1.46-5.52,1-4.49.17-1.37-2.34,9.28-4.49,16.52-6.55,24.1,1.79-6.56,1-3.08.36-.67-4.15,15.87-1.72,6.21-3.63,13.1-6.51,24.45-10.85,39.94-16,59.6L1089,438l.7-3.13c2-7.22-.07,1.42-1.09,5.57-.33,1-3.53,13.12-2.31,8.28l-3.08,11.74c.52-1.73,2.53-9.32,1.12-3.83-1.07,3.84-4.31,15.87-2.36,8.29-1.66,6.19-3.73,14.13-3.29,12.78-2.66,10,.11-1.08,1.25-5.55-2.12,7.91-2,6.86-1.35,4.46l-2.92,11c.57-2.4.58-2.42,1.15-4.82-2,7.23-3.22,12.44-5,18.59l-.64,2.8c-5.4,20-4.84,17.92-9.87,36.54l.91-3.09c-3.63,14.14-2.89,10.3-7.89,29.28-2.81,10.69-4.61,17.61-4.11,16.24-1.61,6.19-2.06,7.58-2.85,10.35-1.21,4.82-3.83,15.18-5.94,22.75,1.35-5.17,2.42-9.31,3.68-14.15-.5,1.37-4.44,16.54-6.62,24.45-1.42,5.54-6,23.51-8.6,33.51,1.31-4.48,1-2.73-1.29,6.26.29-1.39-3.3,12.07-5,18.23.74-3.08-3.87,13.77-.41.69,1-3.79,1.62-5.5,3-10.69-.91,3.09-3.21,11.37-5.59,20,.14-.67,1.29-5.19,2.49-9.66C1022.45,687.32,1022.85,685.91,1023,685.57Z"/><path class="cls-1" d="M80.39,1011.39l1.38-.47-1.7.55C80.64,1011.29,80.64,1011.3,80.39,1011.39Z"/><path class="cls-1" d="M802.13,627.65l-1.14-.53-.49-.21-.21-.09Z"/><path class="cls-1" d="M626.57,544l.28.17C627,544.27,627,544.25,626.57,544Z"/><path class="cls-1" d="M68.2,1014.64l3.27-1.16Z"/><g id="points"><circle cx="1134.94" cy="272.67" r="16"/><circle cx="572.03" cy="519.17" r="16"/><circle cx="1012.94" cy="729.67" r="16"/><circle cx="408.94" cy="894.67" r="16"/></g></g></g></g></svg>