<svg xmlns="http://www.w3.org/2000/svg" viewBox="0 0 218.81 313.34"><defs><style>.cls-1{opacity:0.6;}.cls-2{fill-rule:evenodd;}</style></defs><title>fingerprint_2</title><g id="Layer_2" data-name="Layer 2"><g id="itv_a_cofession-longform-bg-desktop"><g class="cls-1"><path class="cls-2" d="M70.61,79.92c1.66-1.56,3.69-2.66,4.66-5,.45-1.08,2.06-1.71,3.18-2.5a10.07,10.07,0,0,0,2.14-1.9c-1.27.32-2.55.76-3.86,1a4.12,4.12,0,0,0-3.45,2.59c-.58,1.21-2.23,2.5-4,1.07-.63,1.37-1,2.81-1.79,3.81-2.37,2.75-5,5.25-7.42,7.93a37.07,37.07,0,0,0-2.94,3.89c-2.43,3.54-4.89,7.07-7.16,10.71-.44.69-.1,1.86-.15,3.22,1-.78,1.88-1.12,2-1.59a11.74,11.74,0,0,1,3.8-6.36,26.64,26.64,0,0,0,2.23-2.51c1-1.17,2.36-2.26,2.7-3.58.76-3,2.7-4.24,5.38-4.88,1.05,2.88-1.28,5-2.67,6.25-3.3,3.08-4.81,7.08-7.13,10.66-1.3,2-2.24,4.25-3.38,6.37-1.74,3.31-3.52,6.61-5.26,9.91-.65,1.22-.92,2.87-1.89,3.59A3,3,0,0,0,44.12,126,2.9,2.9,0,0,1,44,127.6c-1.1,2.77-2.31,5.49-3.39,8.27-.57,1.47-1,3-1.43,4.53a9.64,9.64,0,0,1-.44,1c-.44,1-1,1.91-1.33,2.9-.52,1.42-.88,2.88-1.38,4.29-.88,2.59-1.78,5.15-.48,8a17.86,17.86,0,0,0,1.37-4.33c.84-3.89,3.66-7,4-11.22.2-2.56.5-5.43,2.35-7.86s3-5.39,4.47-8.13a11.33,11.33,0,0,0,.6-1.63c.52-1.7.88-3.43,1.56-5.07a39.73,39.73,0,0,1,2.82-5.7c1.42-2.33,3.2-4.42,4.6-6.76.88-1.45,1.07-3.3,2-4.73,2.68-4.28,5.54-8.43,8.32-12.64a4,4,0,0,1,5.55-1.55,16.2,16.2,0,0,1,1.66-3,43.72,43.72,0,0,1,3.82-3.76,26,26,0,0,1,2.49-2.07c1.39-1,2.94-1.75,4.26-2.82,2.16-1.79,3.92-4.2,6.33-5.5,3.13-1.7,5-5.71,9.4-5.15a1.38,1.38,0,0,0,.82-.28,21.42,21.42,0,0,1,10.19-3c1.5,0,3-.31,4.51-.39a76.47,76.47,0,0,1,9.67-.36c2.17.14,4.24,1.46,6.41,1.76,1.12.17,1.65.28,2,1.39.48,1.39,1.06,3,3.18,1.8a1.77,1.77,0,0,1,1.63.26c1.43,1.73,3.83,1.68,5.42,3.35s4.17,2.94,6.4,4.24c1.92,1.12,3.1,2.37,1.75,5a21,21,0,0,1-4-1.65c-1.65-1.1-3.05-2.6-4.64-3.81-.74-.55-1.82-.68-2.6-1.23-1.9-1.35-3.73-2.83-5.58-4.28-3.55-2.85-7.88-3.3-12.17-3.61-2-.16-4.08.67-6.1.55a18.81,18.81,0,0,0-10.08,2.42c-.37.2-.81.57-1.16.51-2.76-.52-4.94,1-7,2.29C96.66,71.47,93.87,73.83,91,76c-1.65,1.23-3.3,2.47-4.92,3.76S83,82.3,81.45,83.56c-2.52,2.06-5.37,3.8-6.34,7.26-.21.7-1,1.24-1.44,1.87-.9,1.19-1.89,2.34-2.67,3.62-1.12,1.83-.94,4.24-3,5.74-1.08.78-1.46,2.51-2.16,3.8l.88.58c.41-.52.85-1,1.25-1.54.77-1,1.33-2.73,2.28-3,2.22-.59,1.77-2.25,2.16-3.63a6.57,6.57,0,0,1,.32-1.44,29.12,29.12,0,0,1,10.51-11C84.82,84.8,87,84,87.7,82.6c.92-1.79,2.51-2.3,3.73-3.43,1-1,2.39-1.55,3.34-2.56a21.57,21.57,0,0,1,9-6.24c5.57-1.94,11.37-2.26,16.93-3.83a5.51,5.51,0,0,1,2.12.26c.76.11,1.55.21,2.33.38a44.22,44.22,0,0,1,7.14,1.7,30.78,30.78,0,0,1,5.91,3.61c2.15,1.51,4.18,3.22,6.24,4.83a.51.51,0,0,1,.16.17c1.17,2.54,2.29,5.12,3.49,7.65,1.88,3.91,4,7.71,5.65,11.69a42.3,42.3,0,0,1,2.28,8.41c.54,3,.62,6.07,1,9.1.2,1.39.74,2.72,1,4.09.11.53.16,1.36-.16,1.64-1.74,1.58-1.12,2.9.14,4.05a17.32,17.32,0,0,0-.77,2.91c-.17,2.22-.1,4.46-.32,6.66a34.68,34.68,0,0,1-1,5c-.85,3.28-1.47,6.66-2.83,9.74-.84,1.91-.3,4.58-2.7,5.77-.08,0,0,.41.05.62.34,1.38.71,2.75,1.08,4.24-.35.11-1,.34-1.27.44-.58,1.54-1.05,2.83-1.55,4.11-.87,2.27-1.72,4.54-2.63,6.79a38.09,38.09,0,0,1-2.1,4.8c-1.45,2.55-3.16,5-4.61,7.53s-2.41,5.57-4.21,7.93-2.25,5.7-5.71,6.48c-.22,0-.25.66-.48.93s-.91,1.16-1.2,1.08c-2.25-.51-2.83,1.74-4.3,2.43-.57.28-1,.81-1.6,1-1.93.72-3.89,1.35-5.83,2-3.44,1.18-6.87,2.38-10.33,3.56a5.44,5.44,0,0,1-1.94.31c-3.91-.24-7.8-.55-11.68-.83,0-.09-.06.34.16.56a8.71,8.71,0,0,0,6.42,2.65c3.66.09,7-1.73,10.84-1.58,1.54.09,2.93-2.17,5.3-1.94,1.15.11,2.4-1.65,3.73-2.29a64,64,0,0,1,6.84-2.85c1.26-.43,2,.17,1.45,1.66-.28.8-.5,1.65-.74,2.49.17.07.34.17.51.23,2.3-3.19,4.55-6.41,6.91-9.57,1.85-2.43,3.75-4.84,5.76-7.15,1.69-1.92,1.16-4.77,3.21-6.69.72-.67,1.15-2.5,2-3.75a55.31,55.31,0,0,0,3.26-6.08,50,50,0,0,0,2.67-5.94c1.07-3.17,1.84-6.47,2.9-9.64,1.21-3.66,2.76-7.19,3.83-10.88.94-3.18,1.4-6.49,2.09-9.75.31-1.44,1-2.9.94-4.35-.09-3.39-.6-6.76-.76-10.15-.15-3-.1-6-.09-9,0-5.31-2.12-10.4-1.54-15.77a1.17,1.17,0,0,0-.16-.64c-1.18-2.35-2.39-4.65-3.51-7-.32-.7-.7-1.73-.41-2.25s1.41-.51,1.93-.69c1.82,4.11,3.56,7.83,5.13,11.65.57,1.37.64,2.94,1.08,4.39a15.43,15.43,0,0,1,.39,7.89,8.86,8.86,0,0,0,.22,3.1,29.71,29.71,0,0,1,1.1,4.71c.08,2.09-.89,4.38-.32,6.25.81,2.66.17,4.89-.49,7.26-.15.55,0,1.22-.18,1.71-.76,1.67.64,3.23.25,4.67-.95,3.49-2.41,6.83-3.31,10.29-.69,2.67-2.43,4.91-2.2,8,.16,2.16-1.28,4.49-2.13,6.68-1.68,4.42-3.45,8.81-5.21,13.2-.56,1.39-1.19,2.73-1.87,4.06a73.1,73.1,0,0,1-4.47,8.5c-1.29,1.89-2.94,3.42-2.18,5.48-1.11,1-2.65,1.88-2.62,2.68,0,1.47-.51,1.89-1.63,2.39-.51.23-.81,1-1.21,1.46-1.68,1.92-3.22,4-5.06,5.71-1.64,1.56-4.31,2.36-5.24,4.16-.85,1.63-2.38.91-3.12,2a4.08,4.08,0,0,1-1.85,1.31c-3.21,1.32-6.5,2.47-9.64,3.88s-6.94.58-9.37,3.67c-.29.38-1.63-.06-2.47-.17a14.91,14.91,0,0,1-2.08-.53c.33,1,.36,2.07.76,2.24,1.88.77,3.86,1.31,6.24,2.07-1.08-2-.65-3.74.62-4.07,2-.57,4.13-1,6.17-1.55s4.38-.93,6.15-2.06C120,216.49,124,217,126.3,214c.1-.15.54-.07.81,0,2.14.31,3.1-1.18,4.14-2.63a28.82,28.82,0,0,1,3.34-4.31c1.89-1.74,4-2.94,5.46-5.46s2.39-5.18,4.06-7.55,2-6,4-8.17a16.06,16.06,0,0,0,3.86-6c.77-2.2,2.91-3.91,4-5.29-.23-2-.72-3.41-.44-4.71.37-1.74,1.44-3.31,2-5,1.18-3.57,2.2-7.18,3.35-10.75.35-1.08,1.43-2.11,1.35-3.08-.29-3.09.7-5.71,2.05-8.35.31-.6,0-1.48.07-2.2.13-3.15.25-6.28.46-9.43.17-2.93,1-6,.58-8.8a28.22,28.22,0,0,1,2-14.77c-2.95-2-3.15-5.34-3.53-8.49-.17-1.55,1.05-1.87,2.53-1.74.9,2.41,2.39,4.78,2.52,7.22.11,1.91.27,3.3,2.17,4.52-2.41,1.32-2.84,3.25-2.6,5.58.24,2.52.11,5,.28,7.55,0,.24.94.45,1.66.75,0-1.3.42-2.54,0-3-.92-1-.69-1.79-.16-2.82a5,5,0,0,0,.25-1.89c.1-1.06.15-2.11.23-3.17.78.85,1.6,1.63,2.31,2.54a2.36,2.36,0,0,1,.36,1.27c.25,3.76.48,7.55.66,11.33a44.3,44.3,0,0,1,.07,7c-.51,4-1.3,7.9-2.12,11.82-.45,2.14-.06,4.29-1.44,6.42-1.26,2-1.49,4.58-2.06,7-.2.74.16,1.62-.05,2.32-1.6,5-3.37,10-4.92,15.09-.61,2-.71,4.08-2.58,5.44a1.56,1.56,0,0,0-.27,1.41c1.24,3.53-.68,6.11-2.52,8.75a7.45,7.45,0,0,0-1.65,3.28,10.22,10.22,0,0,1-4.46,7.78,3.57,3.57,0,0,0-1,1.13c-.86,1.71-1.7,3.42-2.46,5.17-.93,2.12-2,4-4.33,5-.56.22-.89,1-1.32,1.52.51.3,1,.64,1.51.91.78.4,1.55.77,2.46,1.2a6.42,6.42,0,0,0,.85-1.26c.34-.92.3-2.07.86-2.8a43.08,43.08,0,0,1,3.59-4c-.47-.54-1.7-1.48-1.55-1.92a18.24,18.24,0,0,1,2.64-4.79c.19-.24,1.73.53,2.74.87a17,17,0,0,1,1.61-3.55c1.44-2.06,2.86-4,3.44-6.57.92-4,2.13-8,3.4-11.88.53-1.62,1.16-3.51,3.08-3.27a9.63,9.63,0,0,1-.44-2.82c.44-3.19,1-6.38,1.65-9.55.38-1.87.53-4.13,1.67-5.46,1.68-2,1.49-4.19,2.09-6.32.68-2.39,1.26-4.81,1.86-7.21.83-3.22,2-6.41,2.39-9.69.35-2.82-.21-5.74-.29-8.62-.06-2.46.18-4.94-.09-7.4-.29-2.66-1.06-5.29-1.53-8-.18-1,.12-2.16-.17-3.13-.85-2.83-2.06-5.56-2.78-8.42-.51-2-1.43-3.93-2-5.9s-2.43-3.76-2.94-6.2c-.32-1.5-1.89-2.78-3-4.08A55.38,55.38,0,0,1,159.47,81c-1.84-2.87-2.44-6.71-6.44-7.78-.17-.06-.24-.38-.39-.53l-8.16-8.36a2.14,2.14,0,0,0-.7-.5c-1.41-.58-1.42-.58-1.39-2,6.28,1,9.84,3.74,9.09,7.05a4.3,4.3,0,0,1,1.7.11c2.24,1.15,4.27,2.54,5.31,5,.25.58.53,1.35,1,1.57,2.59,1.23,3.87,3.51,5.06,5.89a13.8,13.8,0,0,0,2.3,3.89c3.19,3,4.27,6.77,4.7,10.78a4.73,4.73,0,0,1,1.84,2c.45,1.28.11,3.26.92,3.9,2.16,1.74,2.5,3.89,2.76,6.37.3,2.67,1.41,5.33,1.42,8a95.61,95.61,0,0,0,1,14.05,19.68,19.68,0,0,1,.09,4.91c-.35,3.66-1.09,7.31-1.23,11a13.81,13.81,0,0,1-2.39,7.27c-1,1.56-1,3.79-1.22,5.73-.18,1.22.17,2.52-.16,3.66-1.29,4.49-2.8,8.91-4.14,13.38-.87,3-1.53,6-2.34,9-.58,2-1.15,4.09-1.88,6.07-.51,1.38-1.26,2.68-2.14,4.51-.05.16,0,1.17-.4,1.7-1.22,1.47-1.41,3.22-1.9,4.94a9.12,9.12,0,0,1-1.94,3.56,54,54,0,0,0-9.13,13.59c-.87,1.92-1.64,4.17-3.14,5.49-2.32,2.06-5.24,3.45-8.17,5.29a7.78,7.78,0,0,1-1.1,2.23c-.5.63-1.45.86-2.15,1.31s-1,1-1.54,1.08c-1.77.32-2.67,1.31-2.77,3.42-12.72.28-24.92,4.72-37.78,3.46.27.57.83.88.81,1.14-.28,2.79,1,2.14,2.53,1.27.29-.15,1,.34,1.46.53-.19.42-.27,1-.59,1.2a29.22,29.22,0,0,1-3.36,1.29c1.09.39,1.9.73,2.73,1,1.61.47,3.21.88,4.81,1.29.83.21,1.91.75,2.47.44,1.54-.88,2.88-.16,4.3,0a16,16,0,0,1,2.32.23c2.21.6,4.51-1.91,6.66.22.13.13.63-.13,1-.14.59-.05,1.2,0,1.79-.07,1.55-.27,3.09-.57,4.62-.94.53-.14,1.08-.83,1.49-.72,1.79.49,3.16-.43,4.69-1s3.09-1,4.64-1.42c.16,0,.38.17.57.19.79.12,1.75.57,2.37.27,3.08-1.45,6.1-3.09,9.1-4.73.29-.15.15-1,.39-1.34a21.42,21.42,0,0,1,2-2.77c.4-.48,1.1-.67,1.5-1.14.75-.86,1.33-1.84,2-2.73,1.22-1.51,2.48-3,3.75-4.49a6,6,0,0,1,1.2-.9l-.06,0c.35.52.69,1,1.18,1.74-2.89,1.65-3.14,5.69-6.67,6.59-.68,2.43-3.88,3.68-3,6.91.47-.2,1.28-.33,1.31-.59.46-3.14,3.56-4,5.18-6.12,1.77-2.34,3.74-4.55,5.52-6.9,1.21-1.56,2-3.51,3.41-4.9,1.51-1.55,1.83-3.75,3.58-5.24,1.13-.95,1.31-3,2.13-4.45.27-.47,1.27-.51,1.93-.74.16.56.61,1.26.42,1.67-.67,1.59-2.07,3-2.3,4.64-.78,5.22-4.58,7.76-8,10.14a12,12,0,0,1-.85,3.09c-1.28,2.1-3.24,3.93-3.95,6.18a3.18,3.18,0,0,1-2.49,2.52c-2.43.43-4.28,1.74-6.32,2.93-2.34,1.37-5.08,2.09-7.64,3.08a33.4,33.4,0,0,1-3.49,1.29c-3.46,1-6.93,1.82-10.4,2.69-.75.18-1.53.22-2.31.36a26.79,26.79,0,0,1-4.62.86c-.53,0-1.06-1.18-1.62-1.78-.16-.16-.52-.11-1.13-.24.44,1,.74,1.78,1,2.47a15.5,15.5,0,0,0-3.21,1.06,4.32,4.32,0,0,1-4.66.06c-1.21-.6-2.79-1.28-4-1-2,.55-3.63-.1-5.47-.53-2.2-.52-4.56-.32-6.08-2.47-.07-.1-.45.1-.63,0-1.45-.55-2.9-1.16-4.19-1.67.71-1.51,1.21-2.53,1.68-3.53-4.26.62-6.4.79-11.66-3.63a1.78,1.78,0,0,0-1-.46c-2.41,0-4.48-.64-5.66-3-.13-.28-.57-.45-.9-.6-1.89-.94-3.92-1.67-4.36-4.16-.07-.39-.6-1-.79-1-2.47.61-3.44-1.7-4.86-2.75-2.18-1.61-3.83-4-5.63-6a1.8,1.8,0,0,1-.2-1.36c.32-1.58-.4-2.24-1.74-3s-3.58-2.49-3.49-3.63c.12-1.53-.6-2.18-1.1-3.18-1-1.88-1.86-3.77-2.86-5.6-.58-1-1.28-2-1.94-3-.22.11-.43.23-.65.36,1.85,5.06,2.83,10.46,6.17,14.93,1.51,2,2.8,4.32,4.72,5.88,2.19,1.83,4.53,3.24,3.71,6,2.44,1.76,4.56,3.26,6.37,4.56l-1.73,3.29a6,6,0,0,0-1.57-1.29c-3.21-1-4.71-4-6.74-6.12-1.46-1.58-3.82-2.81-3.93-5.47,0-.15-.31-.29-.5-.4-4.2-2.73-5.52-7.26-6.92-11.62a90.9,90.9,0,0,1-2.24-9.76,27.07,27.07,0,0,1-.34-3.56,8.43,8.43,0,0,1-1.39-1.59,12.61,12.61,0,0,1-.66-2.36c-.38-1.37-1.4-2.94-1-4.08.75-2.21-.16-3.74-.94-5.58-.84-2-1.43-4.31.18-6a29.56,29.56,0,0,1-.89-3.54,8.23,8.23,0,0,1,.11-3.17c.79-2.81-1-6.73,3.26-7.91-.64-.7-1.47-1.22-1.64-1.91a9.59,9.59,0,0,1-.29-3.8c.37-2.41,1.07-4.75,1.54-7.13.25-1.23.33-2.47.48-3.69-1.09,1.68-3.32,2.58-2.54,5.26.41,1.45-.41,3.26-.76,4.91a69.93,69.93,0,0,0-1.45,7c-.17,1.72.62,3.54.51,5.25A34.17,34.17,0,0,1,37,179.18c-.36,1.41-.72,2.84-1.16,4.65.15.6.44,1.77.75,2.93.57,2-.4,4.6,2.41,5.7-1.37,2.6,0,4.76.76,7,.41,1.21.18,2-1.21,2.25a4.67,4.67,0,0,1-5.48-4.76c.09-1,.49-1.95.63-2.94a11.38,11.38,0,0,0-.08-1.93l-.41.08c-.46.87-.93,1.77-1.1,2.08l-4.81.38c0,.21,0,.41,0,.63a4.75,4.75,0,0,1,1.22.79c1.13,1.38,2.26,2.75,2.37,4.7a39.28,39.28,0,0,0,.64,5.27c.08.39.94.63,1.52,1-.06-2-.11-3.64-.15-5.41L37,203.06c.69,3.41.43,7.22,3.51,10.12.06-.59.26-1,.14-1.39a48.9,48.9,0,0,0-2.26-6.67c-.6-1.24-.65-2,.68-2.18.58-.08,1.42.62,1.89,1.19,1.52,1.86.93,4.63,2.92,6.51.78.73.28,2.82.36,4.29l-2.7.06c1.36,1.61.35,4.29,3.13,5.2.56.19,1,1,1.34,1.63.83,1.23,1.55,2.54,2.39,3.76a25.79,25.79,0,0,0,2.15,2.89c2.36,2.73,4.78,5.4,7.16,8.09,1,1.16,2.11,2.3,3.09,3.53.11.14-.12.75-.35,1a2.25,2.25,0,0,1-3.21.6c-2.06-1.17-2.61-2.63-1.85-4.44-.86-.35-1.72-.7-2.56-1.07-4.71-2.06-6.93-6.51-9.29-10.5-2-3.4-4.43-6.63-6-10.37-.64-1.59-1.23-2.65-.28-3.88-1.36-1.13-2.61-2.13-4.2-3.46a22.05,22.05,0,0,0,.55,2.82c.31,1,1.08,2,1.1,3,0,2.16,1.27,3.66,2.31,5.37,1.64,2.62,3,5.43,4.48,8.15,1.22,2.21,3.08,4.31.47,7,3-.47,4-.12,5.92,1.87s3.58,4.18,5.75,5.77c1.44,1.09,3,1.95,4,3.45.44.65,1.14,1.74.89,2.12-.72,1.11-1,2.82-2.8,2.89a1.34,1.34,0,0,1-.94-.26c-.89-.93-1.77-1.92-2.6-2.92-1-1.25-2-2.56-3-3.84-.18.15-.35.28-.54.41-.25-1.61-.5-3.23-.67-4.24-1.29-.35-2.49-.29-3-.87a65.15,65.15,0,0,1-4.29-5.59c-1.43-1.89-2.84-3.8-1.5-6.38.18-.33-.07-.86-.12-1.3-.15,0-.29,0-.44,0l-1.22,2.67c-.37-1.39-.58-2.2-.79-3-.26,0-.53,0-.8,0a10.71,10.71,0,0,0,0,2c.06.41.66.79.64,1.18-.14,2.87.43,5.37,2.61,7.49,1.73,1.66,3,3.78,4.68,5.49,2.11,2.12,4.52,3.94,6.6,6.08.79.82,2.31,2.11,1,3.21-.67.54-2.41-.23-3.67-.42-.11,0-.19-.23-.29-.33-1.87-1.7-3.76-3.38-5.66-5.09.16-.85.35-1.88.49-2.56a16.58,16.58,0,0,1-3.67-.45,3.35,3.35,0,0,1-1.66-1.6c-1.22-2.51-4-4.43-3.18-7.76.19-.86.48-1.69.58-2-1-.88-2.52-1.57-2.49-2.21,0-2.29-1.43-3.67-2.41-5.39a5.73,5.73,0,0,1-.7-2.58c0-1.67-1.6-2-2.32-3a11.65,11.65,0,0,1-1.79-4.51,20.52,20.52,0,0,1,.05-4.49,4.05,4.05,0,0,1,3.72,3.54A4.56,4.56,0,0,0,29,214a14.32,14.32,0,0,1,3.11,6.67c.36,1.6,1.17,3.55,3.48,3.65-.48-1.24-.95-2.52-1.42-3.77l2.09-.8c-3.44-.55-4.12-2.84-5.25-5.09-.8-1.61-.52-3.21-1-4.59A15.13,15.13,0,0,0,26,204.26c-1.67-1.53-1.77-3-1.6-5a50.29,50.29,0,0,0-.14-5.45c.1-.57.23-1.28.44-2.52l-3.11,1.51c-1.08-2.61-1.15-5.91-4.9-6.46a11.1,11.1,0,0,1,2.32-.27c.57-.05,1.54-.18,1.63-.5.6-1.93,1-3.92,1.42-5.89-3.07.75-1.52,3.61-3.27,5-1.69.37-3.49.91-3.85-2.13-.27-2.16,1.77-1.37,2.37-2.36-2.39-2.91-.06-6-.37-9.07a25.55,25.55,0,0,1,.06-3.61c-1.68.42-2.84.74-3.42.87.38,1.47,1.44,3.26.94,4-2,3-1.65,6.17-1.39,9.43.09,1.2,0,2.47-1.74,2.46a16,16,0,0,1-2.05-.3c.14-.69.33-1.58.52-2.48L12.23,179c-.68-.09-1.38-.18-2.48-.35,0-1.38-.44-3.18.19-4.43,1-1.92.84-3.92,1.35-5.81.89-3.36,1.69-4.68,5.08-5,.1,1.11.18,2.24.27,3.37l.78.17c-.12-2.87,1.88-4.59,3-6.76s1.36-4.44,2.14-6.64c.44-1.2,1.33-2.27,1.69-3.5a22.84,22.84,0,0,0,.6-4.3c.29-3.11.59-3.44,3.18-3.76,0-1.47.06-2.89.09-4.7l2.23,1.59c-.23-1.22-.38-1.9-.5-2.6a6,6,0,0,1-.29-2.09,70.29,70.29,0,0,1,2.31-8.66,89.91,89.91,0,0,1,4.08-8.67c.52-1,1.36-1.88,2-2.86a9.35,9.35,0,0,0,.49-1.6,21.66,21.66,0,0,1,1.32-3.32c.45-.79,1.33-1.32,1.79-2.11,1.67-2.9,3.22-5.87,4.85-8.78.47-.85.8-2.08,1.51-2.41,2.29-1.06,3.32-3,4.13-5.16a6.79,6.79,0,0,1,2.8-3.23c.93-.65,1.4-1.94,2.22-2.78,3-3.05,6-6,9-9,2.7.27,3.41-2.17,4.9-3.57.57-.54,1.25-1,1.85-1.5,1.1-.94,2.11-2,3.31-2.87a29.8,29.8,0,0,1,5.33-3.25c.7-.3,1.9.54,3,.88.23-.6.38-1.65.72-1.72,2-.42,3.42-3.37,6-1.62.31.19,1,0,1.46-.25,2.5-1.32,5.4-1.44,7.83-3.17,1.72-1.25,4.12-1.49,6.21-2.22.67-.23,1.29-.86,2-.91,4.9-.26,9.47-2.59,14.65-1.66,4.58.83,9.27,1,13.57,3,.9.41,1.67,1.28,2.6,1.47,1.72.37,1.76,1.41,1.58,2.94-1.54-.22-3-.41-4.38-.63-1-.13-2.13,0-2.85-.5-3.41-2.46-7.39-2.13-11.17-2.48-2.53-.22-5.12.29-7.68.28-2.13,0-4,.89-5.94,1.37-2.23.51-4.51.09-6.63,1.79-1.64,1.33-4.08,1.64-6,2.69-2.22,1.19-5,2.22-6.26,4.16-2.1,3.27-5,5.22-8,7.34a25.44,25.44,0,0,0-3.88,3.75c-1.38,1.58-2.92,2.78-4.55,2.78a36.66,36.66,0,0,1-2.85,3,6.14,6.14,0,0,1-5,1.19C65.51,82.35,68.74,81.68,70.61,79.92Zm59.88,59.8c-1.41,2.1-2.6,4.35-4,6.46a59.93,59.93,0,0,1-3.53,4.91c-1.38,1.73-2.9,3.35-4.31,5-.67.83-1.24,1.74-2.13,3,2.07,0,2.87-.54,3.62-1.89.9-1.64,2.41-2.94,3.59-4.45,2.08-2.67,4.1-5.38,6.12-8.1q2.33-3.09,4.57-6.27a8.12,8.12,0,0,0,1.07-2,35.06,35.06,0,0,0,1.26-3.88,4,4,0,0,0-.19-1.5,4.88,4.88,0,0,0,1-3.49c-.09-1.67,1.13-3.37,1.47-5.12a51.51,51.51,0,0,0,.5-5.79c-2.3,1.36-2.74,2.75-2.43,4.75a8.43,8.43,0,0,1-.5,3.92,7.4,7.4,0,0,0,0,5.75C134.59,133.91,132.48,136.77,130.49,139.72ZM88.78,92.3c2.76-5.15,7-8.73,11.43-12.39a26.75,26.75,0,0,1,12.6-5.74c2.9-.5,5.93-1.15,9.1-.25,2.26.65,4.82.35,7.24.48.36,0,.91-.09,1,.09,1.79,2.64,5.15,3,7.24,5.16a6.88,6.88,0,0,1,1.8,2.34c1.07,3.37,3.83,5.68,5.36,8.69,1.41,2.79,3.58,5.45,2.48,9.16-.27.89,1.12,2.21,1.5,3.41a28.6,28.6,0,0,1,1.4,5.42c.43,3.44.74,6.92.87,10.39s0,7.08,0,10.61a2.6,2.6,0,0,1-.24,1.48c-2.71,3.22-3.35,7.2-4.3,11.06.19.08.41.14.61.22.18-.65.31-1.32.52-1.94a11,11,0,0,1,1-2.63,9.25,9.25,0,0,1,2-1.73c1.17,2.37,1.42,4.09-.42,6-1,1-1.24,2.71-1.76,4.11-1.24,3.31-2.47,6.64-3.62,10-.62,1.81-.93,3.72-1.59,5.52-.26.74-1,1.29-1.82,2.2.77,2.15.05,3.1-3.24,3.37.47-1.33.07-2.85,1.56-4,.76-.61.39-2.56.75-3.85.46-1.66,1.17-3.23,1.73-4.86,1.32-3.86,2.63-7.7,3.86-11.35l-2.63-1.13c-1,2.51-2,5-3.1,7.51a1.81,1.81,0,0,1-1.34,1c-.44-.06-.85-.73-1.22-1.18-1.9-2.33.84-4,1-6.07.14-1.89,1.31-3.67,1.9-5.55.69-2.22,1.64-2.59,4-.94.23-2.78.41-5.31.69-7.84.23-2.29.64-4.57.87-6.87a63,63,0,0,0,.6-7.87,57.27,57.27,0,0,0-1.12-6.94c-.38-2.44-.61-4.91-1.08-7.34a9.88,9.88,0,0,0-1.25-3.25c-2.89-4.89-5.72-9.83-8.91-14.52-1.18-1.73-2.75-3.41-5.58-3.26-2.43.13-4.94-.66-7.39-1.21-4.34-1-8.19.55-12.19,1.86C104.82,81,102,84.05,99,87.15c-1.93,2-4.48,3.51-6.29,5.66-1.66,1.94-2.63,4.46-4,6.67-.88,1.43-1.92,2.78-2.85,4.16a13.18,13.18,0,0,0-.65,1.44c2-1.2,3.41-1.58,4.31-4,1.24-3.27,4.2-5.95,6.59-8.71A49.24,49.24,0,0,1,101,87.9a31.93,31.93,0,0,1,4.21-3.52c1-.64,2.65-.37,3.61-1,4.53-3.28,9.55-3.52,14.6-2.19,3.11.84,6.5,1.4,8.88,4,1.16,1.25,3.23,2.18,1.42,4.4-.11.16.14.64.29,1.19l1.42-1.42c4.35,4.42,5.81,10.06,7.18,15.71a74.71,74.71,0,0,1,1.67,8.86c.11,1-.76,2.17-1.22,3.37l1.2,1c-1.66,2.77-1.66,5.42,0,7.73-4,8.18-7.86,16.14-12,24.65.9-.32,1.18-.39,1.43-.51s.51-.28.9-.49c.29.43.73.8.8,1.21s0,1.53-.25,1.65c-1.67.79-1.32,2.39-1.8,3.7a39.38,39.38,0,0,1-2.36,4.55c-.64,1.22-1.25,2.47-1.92,3.66a7.78,7.78,0,0,1-1.63,2.51,5.53,5.53,0,0,0-2.22,4.24c-1.56.2-2.73.31-3.29,2.35-.45,1.63-2.17,3-3.58,4.22a53.76,53.76,0,0,1-6,4.45,42.36,42.36,0,0,1-5.15,2.65c-3.89,1.88-8,1.76-12.17,1.42a13,13,0,0,0-2.32.26c2.57,1.25,4.6,2.26,6.69,3.26,2-1.45,4.14-3,7.07-1.93s4.53-1.3,6.46-2.52c2.52-1.58,5.16-3.19,6.43-6.26.41-1,2-1.43,2.69-2.36,2.66-3.29,5.35-6.59,7.77-10.08,2-3,3.77-6.17,5.51-9.33.7-1.31.85-2.92,1.54-4.22.38-.71,1.4-1,2.12-1.57.2.86.75,1.81.52,2.51-1.09,3.35-2.35,6.66-3.6,10-.93,2.41-1.84,4.84-3,7.16-.48.95-1.69,1.48-2.32,2.41-1.9,2.84-3,6.28-6,8.26-4,2.53-7.1,6.15-11.55,8.23-1.83.86-3.22,2-5.34,1.47-.24-.08-.59.19-.88.36l-5.65,3.19c-1-1.37-1.65-2.78-3.27-1.4a1,1,0,0,1-1-.21c-1.11-2.11-3.15-1.43-4.74-1.41a3.75,3.75,0,0,1-3.91-2.82c-.74-2-1.4-4-3.8-4.42.46-2.8-.15-5.07-2-6.49-.08-1.29-.06-2.29-.22-3.24-.77-4.42-1.57-8.85-2.39-13.26a16.85,16.85,0,0,1-.54-1.8,24.13,24.13,0,0,1,.16-2.9c-1.58-.83-1.47-2.73-1.28-4.75.08-.77-.54-1.61-.46-2.39.21-2.3.6-4.6.9-6.91.07-.35.21-.75.08-1-2.57-4.64-1.4-9.1.59-13.55a3.49,3.49,0,0,0,.43-2.07c-1-3.33,1.39-5.38,2.72-7.83a9.63,9.63,0,0,0,.75-2c.33-1.15.64-2.29.88-3.44a13.25,13.25,0,0,1,.41-2.43,35.11,35.11,0,0,1,2.2-3.4c-.79-1-1.57-1.88-2.42.29-1,2.45-2.1,4.84-3.14,7.27-.53,1.24-1,2.47-1.57,3.73-.18.42-.55.86-.52,1.27.24,2.56-1,4.31-2.82,5.91a2,2,0,0,0-.6,1.72,5.69,5.69,0,0,1-1.07,6.51c-.64.73-.8,1.88-1.37,3.26,2.47-.73,3,.14,3.69,1.81s-.62,2.82-.51,4.3c.19,2.86.29,5.76.41,8.65.13,3.08.2,6.16.41,9.24a23.91,23.91,0,0,0,.72,3c.78,3.83,1.59,7.64,2.22,11.5.16,1-.37,2-.45,3,0,.75-.21,1.85.18,2.23,2.81,2.56,4.14,5.91,5.48,9.3a2.13,2.13,0,0,0,.79.87c1.82,1.25,3.79,2.31,5.46,3.72.65.53.65,1.83,1.05,3.15,1.13-2.74,3-2.36,5.19-2a17.15,17.15,0,0,0,5.2-.12c3-.38,6-.86,8.91-1.51.7-.16,1.16-1.53,1.83-1.62,3.91-.49,5.39-4.43,8.54-5.89,2.47-1.13,3.9-3.23,5.29-5.35,2.58-4,4.94-8.11,7.57-12.06.64-1,1.94-1.57,2.92-2.35,3,3.72.14,6.38-1.6,9.3-1.48,2.52-2.83,5.11-4.13,7.75-.16.27.38.87.71,1.5,2-3.09,3.76-5.79,5.51-8.51a1.29,1.29,0,0,0,.23-.38c.78-3.69,3.34-6.42,5.16-9.56.27-.48.55-1.31.32-1.67-1-1.62.53-2.4,1-3.52,1.32-3,2.87-5.85,3.9-8.92s1.13-6.78,2.51-9.8c2.27-5,1.17-10,.78-15a36.71,36.71,0,0,1,.31-4.29c.1-2.58.17-5.18.2-7.77,0-2.8.14-5.6,0-8.39-.09-1.53-.21-3.5-1.14-4.45-1.88-1.87-.94-4-1.29-5.93a5.06,5.06,0,0,0-.34-1.6c-2.38-4.34-4.82-8.64-7.21-13a27.18,27.18,0,0,0-9.23-10c-3.35-2.12-7.52-1.83-11.35-2.35-2.26-.31-4.62.1-6.9-.15-1.33-.15-2.21.52-3.31.79-3.89,1-6.84,3.71-10.47,5.12C99,77.52,97.26,79.85,95,81.31s-3.65,3.57-5.43,5.38c-.42.44-1.17.55-1.22,1-.91,2.15-1.83,4.32-2.7,6.48-.07.16.08.41.12.62-1.38,1-3.59,1.19-3.27,3.67-2.93,2.27-2.87,6-4.39,8.93s-3.32,5.93-4.84,9c-.73,1.44-1,3.12-1.72,4.62-.91,2-2,3.82-3,5.71-.25.49-.82,1.18-.66,1.48,1,2-.24,3.5-.94,5.14-1,2.43-2,4.89-2.93,7.23.47.68.81,1.19,1,1.51l2.73-5.64.83.08a5.86,5.86,0,0,1,.46,1.9c-.27,2.63-.69,5.26-1,7.9-.14,1-.24,2.11-.3,3.17-.19,4-.47,8-.45,12.05a29,29,0,0,0,1,4.93,9.9,9.9,0,0,1,.44,3.37c-.55,3.75,1.36,6.52,3.23,9.41,1.13,1.78,2.89,3.61,1.72,5.54A16.67,16.67,0,0,1,76.23,187a32.31,32.31,0,0,1,2.52,4c1.13,1.93,2.19,3.87,3.32,5.88a25.75,25.75,0,0,0,2.14-2c.14-.14-.2-.8-.43-1.14s-1-.79-1.06-1.18c-.14-2.88-2.31-4.14-4.13-5.75-.35-.3-.39-.93-.65-1.35-.69-1.06-1.38-2.14-2.15-3.15-1.78-2.29-3.41-4.66-3.89-7.63a11.79,11.79,0,0,0-.68-2.56c-.12-.3-.69-.42-1.55-.87.36-.93.85-2.16,1.33-3.39.32-.05.64-.11,1-.15l3.9,6.12.73-.33a19.08,19.08,0,0,1-.65-2.07c-.4-2.1-.77-4.19-1.06-6.31-.33-2.32-.23-4.71-.89-6.91a15.84,15.84,0,0,1,.41-10.27c.29-.83.43-1.72.74-3-1.74.68-2.6,1.24-2.41,3a4.26,4.26,0,0,1-1.18,2.49c-.15.16-1.56-.2-1.64-.52a6.69,6.69,0,0,1,0-2.6c.07-.46.63-1,.53-1.32-1.27-4,.51-8.13-.67-12.11a2.72,2.72,0,0,1,.45-2.1c2.44-3.37,2.15-7.49,3.25-11.21.49-1.71,2.05-3.13,2.53-4.83s2.48-2.8,2.23-5.37c-.21-1.88,1.91-4,3.08-6,1.77-3,4.13-5.75,4.41-9.47C86.76,94,88.22,93.37,88.78,92.3Zm.31,39.27c2.26,1.12,2.68,3.1,2.86,4.77a19.6,19.6,0,0,0,2,7c.65,1.32.43,3,.66,4.59.33,2.09.61,4.2,1.1,6.26a40.62,40.62,0,0,0,1.58,4.39c.05-.06.37-.37.68-.66,2.07,2.61,3.45,2.57,5.71-.08a1.92,1.92,0,0,1,1.4-.67c3.74.75,6-1.38,8.11-3.9.25-.3.09-.92.1-1.41,2.89.7,4.22-1.59,5.9-3.15a25.89,25.89,0,0,0,2.56-3,27.82,27.82,0,0,0,1.79-2.6c.86-1.33,1.6-2.75,2.56-4,2.73-3.55,3.7-7.84,5.38-11.86s.25-8.58,1.91-12.62c.17-.41-.12-1-.19-1.56a89.08,89.08,0,0,0-1.6-9.56A46.65,46.65,0,0,0,128.18,96c-.12-.27-.77-.27-1.16-.4-1.08-.41-2.14-.84-3.23-1.22-1.24-.43-2.48-.81-3.72-1.19a11.23,11.23,0,0,0-3.39-.81,14.89,14.89,0,0,0-9.28,4.37c-.24.23-.49.6-.77.63-3,.29-3.93,2.44-4.48,4.85,4.36-2.22,8.7-4.43,12.5-6.38a52.72,52.72,0,0,1,5.4.69,11.85,11.85,0,0,1,3.32,1.57c2.42,1.56,3.16,4.33,4.7,6.52a11.37,11.37,0,0,1,1.93,7.77c-.12,2.49.11,5-.09,7.53a46,46,0,0,1-1.25,6.44,45.6,45.6,0,0,1-1.68,5.86,39.27,39.27,0,0,1-9.51,14.58,57,57,0,0,0-4.14,5.09c-1.65.57-3.29,1.11-4.91,1.7-.32.1-.72.29-.81.56-.74,2-2.3,2.22-4.21,2.32-2.7.13-4.25-1-4.42-3.73,0-.65-.17-1.62-.6-1.87-2.07-1.22-1.59-3.3-2-5.11-.49-2.37-1-4.76-1.62-7.08a23.59,23.59,0,0,1-.18-11.05c.61-3.2,2.45-5.72,3.85-8.53,1.36-2.66,3.34-4.69,5-7a23,23,0,0,1,2.93-3.31,12.47,12.47,0,0,1,3.45-2.88,15.56,15.56,0,0,1,5.34-1.1c3.6-.23,3.84,0,6.42,4.43-.38,0-.88-.11-1,0-1.4,2.35-3.08,1.06-4.86.55-4.39-1.29-5.67-.92-8.42,3.15a116.21,116.21,0,0,0-6.44,11.08c-.71,1.41-.68,3.19-1.06,4.78S99,132,98.48,133.89c.31.06,1,.42,1.47.2a1.91,1.91,0,0,0,.9-1.56c-.79-3.82,2-6.52,3-9.77a34.17,34.17,0,0,1,2.8-6.06,12,12,0,0,1,1.88-2,13.55,13.55,0,0,1,1.34-1.48c.67-.57,1.42-1,2.14-1.57a9.71,9.71,0,0,1,1.1,2.18c.13.74.07,2-.37,2.27-2.28,1.47-2.52,4.26-4.14,6.13a14.51,14.51,0,0,0-1.59,3.34c-.45,1-1,1.86-1.36,2.86a7.16,7.16,0,0,0,0,2c2-2.46,3.73-4.24,5.07-6.26a52.8,52.8,0,0,0,3.4-6.39c.9-1.86,1.72-3.74,1.15-6.24.57.37,1.43.64,1.63,1.17s0,1.54,0,2.82c.69.79,1.43,1.88.1,3.78s-1.78,4.16-2.63,6.3c-1.43,3.49-3.27,6.69-6.44,9a16.85,16.85,0,0,0-1.45,1.57,5.48,5.48,0,0,1-1.36,1c-.73.33-2.17.53-2.17.85a8.3,8.3,0,0,0,.91,4c-.27-2.7,2-3.59,3.41-3.83,2.47-.45,3.67-2.22,4.84-3.74a19.18,19.18,0,0,0,4-8.25c.2-1,1.26-1.83,1.89-2.77.33-.53.83-1.12.8-1.65-.1-2.23,1.06-4.35,0-6.76-.77-1.67,1.23-3.76,3.49-4.24,1.11,2.85,2.64,5.49,1.36,8.9-1,2.84-1,6.16-2.31,8.81-.92,1.84-1.7,4-3.49,5.56-1.46,1.28-2,3.59-3,5.41-1.65,3-3.9,5.24-7.55,5.42a7.48,7.48,0,0,1-1.85-.36c-.51.53-1,1.06-1.68,1.79-1.48-2.29-2.88-4.5-4.34-6.78l-2,1.78c2.56,1.29,2.79,3,.66,7.66l2.16-1.71c.8.31,1.7.59,2.55,1s1.51.76,2.37,1.22c.13-2.61,2.56-2.45,4.13-3a16.56,16.56,0,0,0,9.4-8.63c1.66-3.31,4-6.32,5.22-9.77,2-5.79,4.11-11.73.77-17.92-.93-1.72-1.08-3.86-1.63-5.79a2.22,2.22,0,0,0-.63-1.1,10,10,0,0,0-12.18.45c-.31.25-.87.17-1.29.27a6.1,6.1,0,0,0-2.17.79,19.51,19.51,0,0,0-3,3.19,10,10,0,0,0-.9,2.21,4.45,4.45,0,0,1-.7,1c-2.05,2.6-4,5.33-6.21,7.77-2.52,2.76-3.08,6.23-4,9.57-.29,1-.8,1.72-2.12,1.27a9.44,9.44,0,0,0-2.62.06,31.43,31.43,0,0,1,.21-4,77.42,77.42,0,0,1,1.83-9.24A77.22,77.22,0,0,1,93,107.14,29.51,29.51,0,0,1,100,97c.9-.83,1.88-1.54,2.68-2.43a8.86,8.86,0,0,0,1-2l-.85-.6c-1.62,1.76-3.24,3.51-4.85,5.29a52.33,52.33,0,0,0-4.86,5.48A32,32,0,0,0,89,110.42c-1.63,4.91-2.7,10-4.14,15-.37,1.29-1.45,2.36-1.89,3.63a7.11,7.11,0,0,0,.23,2.59c-.71,1.64-1.44,3.32-2.19,5-.08.2-.32.5-.25.59,1.62,2.26-.29,4.7.33,7a20.3,20.3,0,0,1,.18,2.09c.18,1.18.59,2.32.69,3.5.14,1.74.08,3.48.06,5.23,0,.31-.25.88-.14.93,1.74,1,1.08,2.69.83,3.85-.74,3.49,1,6.4,1.63,9.55.53,2.52.92,5.06,1.56,7.55.72,2.88,4.92,4.76,7.66,3.74.7-.27,2.12-.22,2.37.2,1.44,2.3,3.07.93,4.66.48,2-.54,4-1.24,6.07-1.68.54-.12,1.23.56,1.4.64,3.12-2.68,6.32-5.1,9.1-7.92,2.21-2.24,3.9-5,5.9-7.44.89-1.11,2.08-2,2.94-3.11a27.15,27.15,0,0,0,2.42-4.09,40.92,40.92,0,0,0,1.61-4.15,5.48,5.48,0,0,0-.6-.38c-1,1.28-2,2.58-3.1,3.85s-2.32,2.58-3.33,4-1.91,3.27-3,4.8a20.82,20.82,0,0,1-2.48,2.39c-2.36,2.36-4.7,4.74-7.07,7.09a3.53,3.53,0,0,1-1.09.66,66.13,66.13,0,0,1-8.94,3.53c-1.56.38-3.48-.5-5.21-.92-.81-.19-1.58-.9-2.33-.86-3,.19-4.91-1-5.49-4-.48-2.42-.85-4.86-1.31-7.29a2.39,2.39,0,0,0-.51-.88c-.18-.21-.54-.37-.58-.6-.24-1.2-.38-2.4-.58-3.61.85.59,2,1,2.49,1.81,1.46,2.49,2.6,5.17,3.94,7.74,2.67,5.1,9.39,6.56,13.71,1.75l-2.09-1c-1.45.74-2.84,2-3.76,1.76a24.69,24.69,0,0,1-5.85-3.13c-.35-.19-.52-1.35-.43-1.41.89-.42,2-1.19,2.77-1,3.12.79,5.79-.36,8.76-.94,3.77-.74,6.6-3.09,10.18-3.95,1.05-.25,1.78-1.91,3.06-3.37-2.23.81-4.07,1.15-5.51,2.08a21.57,21.57,0,0,1-11.54,3.35,65.27,65.27,0,0,0-6.47.89c-.59.06-1.48.07-1.76-.25-2.47-3-5.29-5.92-7-9.33-1.16-2.22-2.69-5.46.59-7.83a1.92,1.92,0,0,0-.49-1.11c-.33-.25-1.19-.17-1.23-.36A52.19,52.19,0,0,1,82.62,141a25.39,25.39,0,0,1,.06-4.93c.1-1,.58-2,.77-3a4.31,4.31,0,0,0-.27-1.46C85.11,131.8,86.86,130.44,89.09,131.57ZM55.56,142.12c.38-3-.73-6,1.14-8.63a9.5,9.5,0,0,0,1.16-2.58c.46-1.49,1.14-3,2.89-2.32s.76,2.43.49,3.51c-.67,2.67-1.92,5.21-2.59,7.9A105,105,0,0,0,56,153.11c-.2,1.64.08,3.27-.91,4.79-.21.33,0,1,.1,1.47.65,3,1.54,5.85.71,9-.25,1,.49,2.32.61,3.5s0,2.48.07,3.7c.19,2.67.36,5.35.69,8a18,18,0,0,0,1.22,4.54c.81,1.89.05,4,1.4,5.88a22.16,22.16,0,0,1,2.75,5.48,12.57,12.57,0,0,1,.23,3.52c1.82-.41,2.58.8,3.29,2.35,1.49,3.22,3.1,6.38,4.76,9.51A11.67,11.67,0,0,0,73,217.31c2,2.07,4.06,4.1,6.11,6.13.26.26.58.67.88.63,2.79-.08,3.81,3,6.21,3.57.25.07.29.93.45,1.58,2.15-1,4-.4,6,.47a53,53,0,0,0,5.8,1.69c.48.12,1.14.16,1.42.49,1.56,2,3.24,1.63,5.16.55a9.71,9.71,0,0,1,2.53-.49c.87-.21,1.72-.55,2.58-.8.59-.18,1.18-.32,1.78-.46,0-.2,0-.39,0-.57a39.49,39.49,0,0,0-4.06-.36c-2.45.07-4.92.52-7.35.35-1.08-.05-2-1.41-3.15-1.73-3.11-.89-6.27-1.52-9.4-2.26-.08,0-.2,0-.22,0-1.22-2.14-3.76-2.24-5.47-3.57A55.32,55.32,0,0,1,77,217.92c-2-2-5-4-5.44-6.36-.52-2.95-3.38-4-3.66-6.36-.34-2.88-3.34-4-3.61-6.7s-3.52-4.31-2.38-7.44c.09-.26-.64-.84-1-1.26a4.68,4.68,0,0,1-.77-5.35,2.68,2.68,0,0,0-.35-1.86c-1.8-3.44-.72-7-.63-10.41,4.77.09,3.23,3.62,3.49,5.87.21,1.73,0,3.33.85,5.12,1,2.21,1,4.88,1.72,7.28a27.26,27.26,0,0,0,2.06,4.25c1.62,3.07,3.84,6,4.73,9.22.93,3.42,3.2,5.82,4.82,8.67.17.28.57.42,1,.69,1.35-1.75,1.42-3.2-.08-4.85a40.77,40.77,0,0,1-3.78-5c-1.65-2.53-4.06-5-4.49-7.79-.55-3.71-3.07-6.09-4.32-9.24a7.37,7.37,0,0,1-.32-2.53c0-3.66.05-7.3,0-10.95,0-1.23-.2-2.47-.19-3.69a20.47,20.47,0,0,1,.3-2.6c-.14-2-.23-3.54-.36-5.07-.06-.79-.17-1.58-.25-2.35-.19-1.86-.69-3.85,2.07-4.79-.61-.22-1.23-.42-1.63-.56.25-3.47.51-7,.77-10.55-.24-.09-.47-.21-.72-.28a14.37,14.37,0,0,0-1.59,2.23c-1.25,2.77-1,5.76-1.22,8.7-.24,3.39.66,7-1.1,10.22-.16.27.26.85.42,1.28a22.9,22.9,0,0,1,1.33,3.43c.25,1.2-.45,1.79-1.76,1.81-1,0-1.83.49-1.91-1.35s-1-3.78-1.56-5.7a2,2,0,0,1,0-1c.66-3.19,1.48-6.36,2-9.57.24-1.56-.18-3.21-.07-4.81a15.22,15.22,0,0,1,.94-3.18c0-.14.26-.24.26-.34-.35-3.77,1.18-7.08,2.3-10.52a14.83,14.83,0,0,0,.29-2.95c0-.19.11-.52.26-.58,4.32-1.88,1.93-6,3.23-8.92a7.48,7.48,0,0,0-.66-.43,25.72,25.72,0,0,0-2.13,3.09c-1.24,2.38-2.71,2.85-5.07,1.3.36-1,.74-2.08,1.11-3.15-2,1.12-2.25,4.26-5.52,3.94,2.4,4.34.76,8.63-1,12.09C52,141,52.82,143.74,51,145.86c-.65.77-.53,2.63-.09,3.72.9,2.2-1.46,3.24-1.12,5a13,13,0,0,1-2.2-1.21c-.28-.21-.29-.81-.31-1.26a8.18,8.18,0,0,0-.51-3.3c-.5.71-1,1.43-1.53,2.14l.4.09c-.1.94-.21,1.9-.32,2.84-.1.65-.51,1.59-.24,1.87,1.12,1.17.09,2.06-.08,3.09-.22,1.35-.33,2.73-.5,4.1-.21,1.75-.59,3.5-.66,5.28-.09,2.83.16,5.7-.06,8.51-.11,1.28-1,2.49-1.6,3.79,1.44.83,2.23,3.37,2.11,5.58a48.24,48.24,0,0,0,.57,6.62c.13,1.67.13,3.37.32,5,.08.69.39,1.78.81,1.9,3.2.87,4.61,3.61,6.29,6,2.11,3,3.86,6.2,5.7,9.36.76,1.27,1,3,2,4,2.51,2.59,4.07,5.77,6.06,8.68.39.59.23,1.54.37,2.68,3.51,1.17,8.57,1.23,8.42,7.48l4.52-1.86c.11-.3.22-.62.32-.92a23.08,23.08,0,0,1-3.87-1.78,5.4,5.4,0,0,1-2.16-2.71,2.28,2.28,0,0,0-2-2c-.64-.13-1.45-.19-1.82-.61-.9-1-2-2.13-2.16-3.32-.07-.63,1.74-1.46,2.79-2.27,1.36,1.83,4.14,2.34,3.48,5.36,1.19,1.12,5.17-.29,3.46,4.11l2.73-.72c1.67,1.13,3.3,2.39,5.09,3.38,1,.53,2.61.3,3.31,1,1.91,1.95,4.29.5,6.32,1.25a43,43,0,0,0,4.34,1.23,5.32,5.32,0,0,0,1.27.13c3,.07,6.11.2,9.17.13a11.69,11.69,0,0,0,3.49-.69c3.08-1,6.37-1.12,9.38-2.67,1.71-.88,4.07-.47,6.14-.76a6.25,6.25,0,0,0,2.56-.8A131.18,131.18,0,0,0,142,225.63c2-1.63,4-3.59,4.4-6.85-.6.32-1.17.44-1.38.76-2.47,4-6.14,6.71-10,9.15a23.81,23.81,0,0,1-3,2.07c-1.5.62-3.2.73-4.73,1.28-2.56.93-5.44.09-7.9,1.71a6.35,6.35,0,0,1-3.31.58c-3.22,0-6.37-.05-9.35,1.56a5.24,5.24,0,0,1-3,0c-2.57-.44-5.15-1-7.71-1.5-.26-.64-.58-1.49-.9-2.33-.19-.08-.38-.15-.57-.25-.1,2.88-1,3.32-2.83,1.49-.22-.21-.85,0-1.27-.07a33.05,33.05,0,0,1-4-1.28c-1.38-.56-2.65-1.42-4-1.92-3.23-1.14-3.25-1.08-3.31-3.43-.93-.55-1.52-.88-2.1-1.24a14,14,0,0,1-2.49-1.62,60.55,60.55,0,0,1-4.52-4.95c-.74-.89-2.73-.6-2.32-2.56a11.34,11.34,0,0,0,0-2.38,7.88,7.88,0,0,1-3.92-4.34c-.84-2.33-2.74-4.3-4.06-6.48-1.58-2.58-3.15-5.18-4.5-7.87-1-2,.67-3.14,2.53-4.26-1.28-.52-2.11-.9-3-1.21-1.54-.55-2.2-1.34-1.49-3.1.27-.66-.39-1.67-.48-2.52-.26-2.53-.49-5.05-.65-7.57s-.16-4.77-.3-7.15c-.07-1-.35-2-.46-3,0-.58-.19-1.44.12-1.69,1.62-1.33.67-2.85.65-4.42,0-2.49.66-5,.69-7.44a21.3,21.3,0,0,1,1.47-8.24c.22-.51,0-1.21-.09-2Zm62.61,81.44c.28,0,.51-.32.78-.38,1.3-.28,2.84-1.27,3.76.45s-1.08,1.92-1.77,2.76a10.72,10.72,0,0,1-1.59,1.32l.24.51a14.51,14.51,0,0,0,3.25-1.46c3.47-2.8,6.78-5.77,10.22-8.62,2.46-2,5.14-3.81,7.47-6,1.25-1.16,1.94-2.9,2.93-4.35.73-1,1.56-2,2.32-3.06s1.67-2.27,2.46-3.43c.95-1.42,1.62-3.11,2.85-4.2a4.11,4.11,0,0,0,1.65-3.35,4.62,4.62,0,0,1,.51-1.84c1.26-2.86,3.67-5.14,4.27-8.36,2.64-.61,1.91-3.19,2.09-4.66.47-4.11,2.44-7.62,3.58-11.45a13.69,13.69,0,0,0,.13-3.4c0-.25-.23-.56-.15-.72,2.13-3.89,2.88-8.23,4.31-12.33,1.54-4.4,2.24-9,3.49-13.41a2.62,2.62,0,0,0,.12-.62c-.23-3.33-.5-6.64-.7-10a34.55,34.55,0,0,1,.21-3.56c-2.29,1.76-2.35,1.76-2.27,6.26,0,2.38.31,4.76.44,7.15a2.45,2.45,0,0,1-.19,1.48c-1.83,2.41-1.67,5.25-2,8a6.89,6.89,0,0,1-.93,3.07,15.2,15.2,0,0,0-2.34,7.58c-.14,2-1.1,3.83-1.65,5.76-.34,1.19-.6,2.41-.86,3.63a25.41,25.41,0,0,1-4.1,8.84c-.26.35-.7.8-.62,1.08,1.06,3.34-1.09,6.05-2.08,8.83-1.13,3.14-3.47,5.83-5.17,8.8-1.07,1.88-1.94,3.84-2.85,5.8s-1.68,3.86-2.62,5.77c-.22.46-.81.75-1.26,1.08s-.82.2-1,.45a19.63,19.63,0,0,1-7.16,6.56c-1.56.92-2.62,2.73-4.17,3.72-2.4,1.55-5.06,2.73-7.61,4.07a.76.76,0,0,1-.44.09c-3.75-1.41-6.26,2.26-9.76,1.93.06.34.11.67.16,1C114.17,224.14,116.17,223.87,118.17,223.56Zm2-134.83c3.8.63,7.08,1.72,10.09,4.92,4.11,4.37,4.75,9.69,6.33,14.81a36.38,36.38,0,0,1,1.15,4.57,14.86,14.86,0,0,1-.11,3.08,2,2,0,0,0,2-2.44c-.11-1.81-.42-3.62-.58-5.44,0-.2.44-.62.41-.64-2.17-1.89-.38-4.8-1.93-7.06-1.34-1.92-1.09-5.21-2.66-6.64-2.23-2-3.08-5.46-6.51-6.34a4.43,4.43,0,0,1-3.34-4.49,4.66,4.66,0,0,1-5.52,1.67c-2-.63-3.61.54-5.41.83-3.52.55-6.08,2.67-8.71,4.76a9.2,9.2,0,0,0-1.2,1.39c3.62-.93,7.15-1.92,10.7-2.7.7-.14,1.6.58,2,.76C118.16,89.37,119.27,88.57,120.19,88.73ZM29.93,155.94c.41-1.56.79-3,1.17-4.39.73-2.79,1.48-5.57,2.18-8.36a9,9,0,0,0,.34-2.36c-.07-2,.79-2.57,2.69-1.88-.76-2.69-1.26-4.83.9-7.39,1.72-2.06,1.9-5.43,2.9-8.69.26-.42.85-1.4,1.51-2.33,1.33-2,2.72-3.88,4.1-5.81.22-.3.74-.59.7-.79-.53-2.38.86-4.2,1.78-6.14l1.23-2.47c-.55-.82-1.92-.42-2.77,1-.52.84-1.22,1.53-2.12,2.68.8,2.41-1.69,4.34-2.58,6.79-.41,1.15-1.81,1.72-1.12,3.59.29.86-1.56,2.48-2.45,3.78s-2.11,2.54-1.74,4.4c.05.27,0,.73-.19.81-2.46,1.25-1.44,3.82-2.27,5.68-1,2.34-2.64,4.44-3.62,6.81-.74,1.81-.8,3.89-1.22,5.84-.53,2.44-1,4.9-1.72,7.31-.18.61-1.08.95-1.51,1.54a7.48,7.48,0,0,0-.69,1.64C26.88,156.26,27.31,153.75,29.93,155.94Zm79.78,46.34a9.61,9.61,0,0,1,3.17-1.42c3.66-1.28,7.39-2.36,11-3.87,1.13-.48,1.71-2.14,2.71-3.08,1.26-1.18,2.67-2.18,4-3.26.35-.27.94-.41,1.05-.73a30.77,30.77,0,0,0,.77-3.15c-.9.2-2.31.13-2.61.67-1.25,2.22-4.47,2.4-5.12,5.16-.09.34-.61.63-1,.82-2.43,1.12-4.87,2.19-7.28,3.32a3.71,3.71,0,0,0-1.18.89c-.65.73-1.22,1.38-2.24.47a1.39,1.39,0,0,0-1-.16c-1.31,2.71-4.76,1.7-6.44,3.72a6.27,6.27,0,0,1-.67.62C106.61,203.14,108.05,203.75,109.71,202.28Zm-.88,9.73c-3.21,2.93-6.93,3-10.87,2-1.27-.3-2.6-.24-3.88-.48s-2.35-.73-3.53-1.07a11.4,11.4,0,0,0-3.14-.51,7.68,7.68,0,0,0,6.51,4.22,83.14,83.14,0,0,0,9,.48,22.15,22.15,0,0,0,5.6-.56,10.81,10.81,0,0,0,1.85-1c.57-.27,1.18-.47,1.75-.73a6.11,6.11,0,0,0,1.68-.88c.16-.15,0-1.06-.15-1.12a5,5,0,0,0-2.25-.45c-.5,0-.9.66-1.41,1.08ZM32.75,187.22c-.46-2.17,1.44-3.74.6-6.39-.77-2.3.18-5.22.52-7.83.51-3.63,1.16-7.24,1.77-10.86a15.6,15.6,0,0,0,.63-2.6,6.2,6.2,0,0,0-.74-2.08c-.29,0-.56,0-.83,0a17,17,0,0,0-1,3.1c-.17,2-.14,4-.19,6,0,.22.18.51.11.63-2.26,3.19-1.31,7.13-2.61,10.6-1.09,2.9-1.14,6.2-1.66,9.42Zm51.87,21.05c-.38-.7-.67-1.48-1.07-2.16s-.88-1.19-1.28-1.83c-1-1.54-2-3.12-2.94-4.65s-2.12-3.06-3.07-4.66c-.38-.63-.32-1.5-.65-2.17-.55-1.07-1.28-2.05-1.87-3.08a20.88,20.88,0,0,0-.93-1.9c-1-1.32-2.1-2.49-1.9-4.37,0-.27-1.18-.67-1.82-1a5.88,5.88,0,0,0-.51.36c1.06,2.1,2.13,4.2,3,6a63.78,63.78,0,0,0,2.44,6.64c1.67,3.42,3.82,6.58,5.37,10,1.28,2.82,3.9,3.57,6,5.11.15-.13.3-.23.45-.35C85.47,209.56,85,208.93,84.62,208.27ZM53.73,125.48c.16-3.6,2.06-6.21,3.51-9.12.87-1.8,2.1-3.42,2.82-5.24,1.87-4.88,3.74-9.72,7-13.93.29-.38.73-.67,1.06-1a1.8,1.8,0,0,0,.45-1.5c-.44.26-1.05.43-1.31.82-1.72,2.55-3.35,5.15-5.05,7.72-1.5,2.26-3.08,4.46-4.53,6.74A11.5,11.5,0,0,0,56.27,113c-.53,1.94-.64,4-1.39,5.86-.64,1.61-1.92,3-2.87,4.45a12.61,12.61,0,0,0-1.79,3.15,21.07,21.07,0,0,0-.44,4.08l.61.13C51.57,129,53.67,127.27,53.73,125.48Zm37.21,24c-2.34-1.6-.24-4.82-2.36-6.54a1.19,1.19,0,0,1-.24-1.05c.85-2.16,0-4.13-.73-6.19a4.94,4.94,0,0,0-1.25,4.39c.31,2.37-.07,4.84.14,7.24.07.91,1,1.73,1.39,2.65a71.84,71.84,0,0,0,2.94,6.78c1,1.74.64,4.43,3.18,5.14a15.69,15.69,0,0,0,2.85.22C94.19,157.73,91,154.33,90.94,149.47ZM50,132.34l-.45-.24c-.36.39-1,.72-1,1.15-.78,3.83-1.92,7.47-4.94,10.23a1.64,1.64,0,0,0-.48,1c-.33,1.85-.6,3.71-.91,5.7,2-.28,1.74-4.81,5.12-1.9C48.21,142.65,49.07,137.5,50,132.34Zm86.58,89a1.55,1.55,0,0,0-.08-.23l-4.8,3.22c-1.29.85-2.6,1.69-3.86,2.58a7.76,7.76,0,0,0-1.89,1.82c5.12-.74,8.88-3.79,12.84-6.52a6.93,6.93,0,0,0,3.44-5.49C140,218.46,138.28,219.89,136.53,221.31ZM72.42,105.88c-.91,1.76-1.93,3.43-2.88,5.15a2.4,2.4,0,0,0-.44,1c-.18,2.37-1.07,4.28-3.48,5.24.25.71.42,1.31.66,1.86s.61,1.09.91,1.64c.45-.54,1.25-1,1.32-1.56.42-3.76,2.48-6.88,3.7-10.31.79-2.12,1.92-4.11,2.84-6.18a3.25,3.25,0,0,0,0-1.21l-.59-.19C73.79,102.84,73.16,104.4,72.42,105.88Zm26.09,97.83a32.06,32.06,0,0,1,4.88-.68c-1.09-.93-1.82-1.57-2.67-2.28-.76.53-1.58,1.07-2.41,1.65-1.38-2.69-1.36-2.64-4.3-1.34a10.56,10.56,0,0,1-2.7.47A6.35,6.35,0,0,0,98.51,203.71Zm-16,35.34a5,5,0,0,1,.7.34c1.39,1.06,2.43,2.52,4.74,2.09,1.52-.29,3.25.67,5,.59-2.77-1.3-5.54-2.58-8.28-3.9-1.46-.72-2.54-2.58-5.35-.85C80.62,238.05,81.54,238.57,82.49,239.05ZM76.85,100.7a40.89,40.89,0,0,0,5.7-11.16c-4.32,2.5-5.28,7-7.34,11.29C76,100.77,76.69,100.94,76.85,100.7Zm-11.74,7.42c-2,4.54-3.84,8.77-5.67,13,.25.11.52.24.77.38C62.18,120.61,66,110.8,65.11,108.12ZM21.35,170.78a23.4,23.4,0,0,0-1.58,5.2c-.08.7,1.09,1.56,1.94,2.65.28-1.8.76-2.89.54-3.84-.51-2.07.69-2.12,2.31-2-.57-1.39-1.06-2.55-1.73-4.17A12.93,12.93,0,0,0,21.35,170.78Zm66.05,27.1c-1.31.67-2.34,1.2-3.35,1.76-.25.13-.61.42-.56.55.08.38.31,1,.55,1,1.42.21,2.86.33,4.31.43.8.05,1.6,0,2.71,0Zm1.81,21.17c.44,3.62,2.32,4.22,6.91,2.49C94.28,219.11,91.44,220.29,89.21,219.05ZM84.46,68.48a44.87,44.87,0,0,0,4.11-2,1.29,1.29,0,0,0,.35-1.22c-.15-.35-1-.82-1.11-.73-1.83,1.59-5,1.44-6,4.91C82.91,69,83.71,68.82,84.46,68.48ZM26.14,185.08c.23-3.3.43-6.3.63-9.29l-.71-.15C24.27,178.53,24.09,183.48,26.14,185.08ZM87,220.16c1.47-2.2-1.79-5-5.82-5.52l-.46.66C82.81,216.93,84.91,218.54,87,220.16ZM23.2,161.92a10.92,10.92,0,0,0,.77,3.37,4.53,4.53,0,0,1,.64,0c.27-1.9.56-3.8.85-5.73-.28-.12-.56-.26-.83-.4C24.12,160.07,23.27,161,23.2,161.92Zm68,46c.13-.26.25-.49.38-.7l-4.85-2.63c-.14.28-.28.51-.4.77C87.1,207.87,89.47,207.27,91.22,207.87ZM72.83,88.67c-.31-.15-.6-.32-.91-.47-.27.63-.51,1.3-.82,1.92-.41.82-.94,1.6-1.34,2.43a11.54,11.54,0,0,0-.5,1.54l.87.1C71,92.35,71.93,90.51,72.83,88.67ZM101.23,103c-1.22,1.19-2.44,2.41-3.77,3.73C99.54,107,101,105.78,101.23,103Zm15.5,109.17c1.49-.84,3-1.69,4.49-2.52C118.45,208.68,116.44,209.71,116.73,212.12Zm-89.8-41.43c2.83-3.77,3-4.64,1.41-5.52Zm41.37,5.9c-1.28,1.21-.84,4.16.74,4.88C68.79,179.81,68.56,178.26,68.3,176.59Zm42.35,47.69a6.49,6.49,0,0,0-1-.49c-.55.86-1,1.74-1.54,2.63l.9.5Z"/><path class="cls-2" d="M60.63,260.28c-.66.76-1.3,1.56-1.94,2.32.16.43-.17.6-.24.52-1.47-1.58-2.9-3.19-4.37-4.77a2.78,2.78,0,0,0-1.3-.87c-1.88-.41-3.83-.52-5.66-1.06-3-.87-6.1-1.67-7.73-4.88-.3-.57-1.42-.76-2.16-1.11a9.14,9.14,0,0,1-2.47-1.12c-1.08-1-1.77-2.43-2.91-3.34-1.8-1.46-3.84-2.62-5.77-3.95-.31-.24-.74-.62-.77-1-.2-1.58-1.29-2.18-2.57-2.63-.33-.12-.84-.25-.93-.49-1.47-4.18-6.25-6.16-7.09-10.75-.08-.42-.63-.73-.9-1.05a7.25,7.25,0,0,0-2,1,4,4,0,0,0-1.27,2.21c0,.52.79,1.17,1.34,1.67,1.29,1.19,3.09,2.07,3.88,3.53a9.11,9.11,0,0,0,2.86,3.35c2.29,1.63,2.6,4.81,5.12,6.24a41.31,41.31,0,0,1,4,2.85c-.31.6-.62,1.25-.94,1.86-.18.33-.41.64-.59,1a4.39,4.39,0,0,0,1.31.25c1.14-.17,2.26-.44,2.81-.57.71,1.26,1.31,2.85,1.63,2.8,2.9-.49,4.4,1.94,6.52,3,3,1.45,3.31,2.79,1.58,6-1.56-1.17-3-2.41-4.63-3.41a33.13,33.13,0,0,0-3.25-1.25c-1.52-.73-3-1.59-4.42-2.44-.28-.15-.42-.51-.65-.75-1.7-1.66-3.13-4-5.17-4.84-4.19-1.85-6.24-5.73-9.39-8.53-1.95-1.72-1.74-4.87-4.23-6.27-.3-.15-.35-1.47,0-1.8,1.07-1.08.39-1.46-.43-2.18-.49-.45-.93-1.8-.67-2.11a15.37,15.37,0,0,1,3.67-3.22c.42-.26,1.48.51,2.4.86a4.66,4.66,0,0,0-.34-1.2c-.85-1.31-2.23-2.49-2.53-3.91-.55-2.47-.65-5-2-7.27a2,2,0,0,1-.27-1.08c0-1.78.15-3.57.1-5.34-.12-3.28.05-6.5-.7-9.81-.63-2.7-.14-5.71.06-8.57,0-.49,1-1.19,1.59-1.32,2.69-.57,4.56,1.78,4.2,4.74a40.28,40.28,0,0,0,.24,5.24c0,1,.13,2.25-.39,2.86-1.62,1.87-1.2,3.52-.08,5.35.3.49.29,1.16.57,1.69a24,24,0,0,0,1.29,2,9.46,9.46,0,0,0,1.67-2.42c.26-.85-.19-1.89,0-2.79.59-3.26,1-6.47-.75-9.56a4.29,4.29,0,0,1-.17-2.13c.08-1.49.79-1.55,2.1-1.05,2.9,1.14,3.52,3.92,4.21,6.29.65,2.2.29,4.72.33,7.1,0,1.77-.36,3.64,0,5.31A85.71,85.71,0,0,0,25,217.7c.22.62.36,1.66.75,1.77,1.43.39,1.11,1.28.94,2.22s-.29,1.69-.39,2.36c4.1,1.93,4.23,4.93,3.09,8.59.51-.37,1-.75,1.95-1.38.19,1.43.37,2.61.51,3.79-3.21-1.33-6.46-2.16-6.13-6.2,0-.27-.34-.61-.56-.9-2-2.5-2-2.5,0-4.43a16.69,16.69,0,0,1-3.63-1.08c-.72-.39-2.29-.89-1-2.4.6-.73.76-1.4-.51-1.76-.42-.11-.78-.8-1-1.31-.6-1.49-1.56-1.73-3.15-1,1.38,2.48,2.21,4.86-1.67,6.68,7.38-.45,4,3.88,3.74,7l4.32-1.73c.17,1.8.23,3.3.48,4.8.07.43.87,1.14.88,1.13,1.49-1.06,1.67.61,2.35,1.11a41.58,41.58,0,0,1,4,3.22c2.43,2.38,6.68,3,7.13,7.34,0,.12.2.22.32.3,1.84,1.2,3,3.51,5.65,3.44.3,0,.81.14.87.32A3.34,3.34,0,0,0,48,252.2c.38-.06.78.37,1.19.53a15.11,15.11,0,0,0,2.9,1.08c1.45.28,3.16,0,3.27,2.24a1,1,0,0,0,.75.72c2.44.05,3,2.37,4.44,3.58Zm-44.7-50.42-1.06.42c.57,1.48,1.14,3,1.72,4.49.39-.19.77-.35,1.17-.55C17.14,212.78,16.53,211.32,15.93,209.86Z"/><path class="cls-2" d="M16,159.7c-1.18.73-2.1,1.34-3.12,2,1.47,1,4.82-.36,5.27-2.14C19,156.09,20.85,153,21,149.24c.15-2.92,2.09-5.75,3.17-8.64.82-2.24,1.5-4.55,2.36-6.77,1.16-3,1.33-6.52,4.46-8.48a1.52,1.52,0,0,0,.59-.92c.56-2.8,1.24-5.59,1.58-8.43a5.59,5.59,0,0,1,1.55-3.29c1.34-1.57,3.35-2.62,3.7-5.17.22-1.7,1.41-3.38,2.41-4.9C43.2,99,45.64,95.47,48.19,92c1.48-2.06,3.3-3.88,4.81-5.93.35-.48,0-1.52,0-2l5.79-4A3.07,3.07,0,0,1,60.83,77c2.34-1.15,4.09-3.45,6.19-5.14a32,32,0,0,1,5.23-3.77c1.54-.79,3.14-1.11,4-3,.38-.86,2-1.13,3-1.76,2.81-1.77,5.95-2.44,9.13-3.26,3.46-.89,6.72-2.49,10.07-3.78,4-1.52,7.79-3.46,12.3-3.32,2,0,4-.87,6-1.3a22.88,22.88,0,0,1,4.41-.85c1.7,0,3.39.48,5.1.56.64,0,1.31-.55,1.52-.64,1.44.55,2.63,1,3.83,1.46,3.63,1.22,7.29,2.34,10.86,3.7.82.33,1.19,1.63,2,2.15,2.11,1.4,4.35,2.63,6.52,4,1.31.79,2.56,1.62,4,2.52.81-3.37-1.81-3.78-3.16-5.11-.65-.66-1.67-1-2.19-1.78a15.78,15.78,0,0,0-7.21-5.73c-2.91-1.22-6.17-1.63-9.3-2.37-2.49-.6-5-1.34-7.48-1.74a33.47,33.47,0,0,0-6-.18,40.9,40.9,0,0,0-7.36.5c-3,.62-5.92,1.81-8.89,2.65-2.59.76-5.23,1.37-7.85,2-.33.08-.81,0-1,.18C93,54.56,90.73,54.87,89,56c-4,2.54-8.71,3.25-12.77,5.52-1.41.79-2.7,1.8-4,2.72-3.29,2.3-6.51,4.68-9.85,6.88C58.05,73.91,55,77.85,52,81.93c-1.42,1.92-3.44,3.36-5.15,5a12.17,12.17,0,0,0-1.51,1.86c-2.43,3.46-3.68,7.64-7,10.51-1.17,1-1.57,3.21-2.77,3.68-2.08.82-2.81,2.38-3.48,4.06-.55,1.35-.66,2.84-1.15,4.21-.21.54-.87,1-1.36,1.38-.2.19-.51.24-.71.41-1.81,1.46-3.58,2.29-5.43,0-.14-.18-.68,0-.68,0-.23,2.61-.12,5.14-.71,7.52-.5,2-1.8,3.73-2.76,5.59-.18.36-.61.76-.55,1.07.62,2.94-1.84,4.39-2.92,6.54a16,16,0,0,0-2.07,7,19.52,19.52,0,0,1-2.17,8.15c-.43.92.19,2.32.35,3.5.25.07.5.13.77.18.83-1.72,1.73-3.42,2.45-5.19.56-1.33.83-2.78,1.37-4.14.87-2.16.86-4.8,3.24-6.24a2,2,0,0,0,.59-1.8,5.33,5.33,0,0,1,1.09-4.84c1-1.45,1-3.6,1.58-5.4a20,20,0,0,1,1.47-2.87c2.15,1.33,2.19,2.85,1.39,4.56,0,.13-.28.2-.29.31-.44,3.74-3.13,6.42-4.48,9.73a9.16,9.16,0,0,0-.78,3.94c.08,1.4-.64,2.86-1.06,4.52-.78.2-1.77.44-2.7.69-.06.28-.14.45-.1.55.84,1.52,1.51,2.87.34,4.75a13.23,13.23,0,0,0-1.68,5.33C15,157.57,15.74,158.79,16,159.7Z"/><path class="cls-2" d="M185.18,144c-.14,1-.26,2.11-.41,3.15s-.38,2.11-.48,3.19c-.18,1.9-.31,3.81-.42,5.71,0,.7.36,1.52.12,2.11a64.79,64.79,0,0,1-3.05,6.2,32.52,32.52,0,0,0-4.21,12.12c-.34,2.46-.23,5.07-1,7.33a29.57,29.57,0,0,0-2,7.76c-.33,3.29-1.71,6.48-2.67,9.69-.07.22-.55.27-.78.46s-.84.59-.95,1c-1.15,4.08-1.2,8.55-4.53,11.78-.09.1-.08.29-.16.41-1.12,2.27-2.41,4.48-3.37,6.83-1.34,3.24-4.92,5.07-5.47,8.8,0,.2-.49.32-.71.5a31,31,0,0,0-4,3.22c-1.63,1.77-3,3.79-4.46,5.69a1.79,1.79,0,0,1-.65.55,50.26,50.26,0,0,1-5,2.06c-2.08.65-4.58.21-6,2.49,0,.07-.39-.12-.61-.09-1,.07-2,.2-3,.29-1.7.14-3.4.23-5.1.46-1,.14-2.34.21-2.77.84-1,1.53-2.42,1.36-3.71,1.15-2.51-.41-5,.62-7.52-.23a2.1,2.1,0,0,0-1.69,0c-3.28,2-6.54,1.2-9.66.21-.19-1.14-.35-2.12-.53-3.15,2.11-.55,4.12-1.08,5.38-1.38L112,244.3c.06.6.11,1.36.14,1.81,1.65-.62,3.22-1.18,4.71-1.8,1-.43,2-1.26,3-1.4,2.28-.32,4.58-.31,6.88-.44.17,0,.43-.06.51-.18,1.44-2.2,3.79-1.95,6-2.14-.51-.33-1-.66-1.53-1,.91-.56,2.12-.92,2.66-1.73,1.39-2.1,3.87-2.24,5.66-3.58,1.61-1.2,3.68-1.94,5-3.36a67.63,67.63,0,0,0,6.29-8.21c2.6-3.86,4.89-8,7.51-11.79a63.32,63.32,0,0,1,5-5.7c.75,3.62-.87,6-2.59,8.36,1.86.85,2.74.34,3.06-1.25.3-1.4.63-2.81.89-4.22.41-2.08-1.1-4.6,1.5-6.14.13-.09.14-.4.2-.62.56-2.1,1.14-4.2,1.69-6.3.73-2.68,1.44-5.35,2.14-8,.37-1.45.6-2.95,1.07-4.36a55.6,55.6,0,0,0,2-5.44c.74-3.46,1.07-7,1.75-10.46.36-1.7.35-3.71,2.57-4.57a2.6,2.6,0,0,0,1.06-2.15A26.11,26.11,0,0,1,181.51,147a2.75,2.75,0,0,0,.08-1.25,31.26,31.26,0,0,1-.15-4.09c.34-2.94,1.42-5.79.56-8.81a3.65,3.65,0,0,1,.08-1.08c0-2,0-4-.12-6.06-.26-3.1-.74-6.22-1-9.34-.15-1.61-.07-3.23-.23-4.84-.12-1.25-.48-2.47-.66-3.71s-.26-2.3-.41-3.45c-.13-.9-.35-1.78-.56-2.91l-1.37-.48a5.58,5.58,0,0,0-.16-1.88c-1.28-2.67-2.59-5.33-4-7.91-1-1.73-2.15-3.34-3.18-5s-2.06-3.47-3.07-5.21c-.47-.83-.9-1.68-1.35-2.52.2-.27.44-.52.65-.78a8.27,8.27,0,0,1,2.34,1.3,51.55,51.55,0,0,1,7.91,11.84c.69,1.38.76,3.09,2.18,4.1.09.08.11.29.13.43.12,2.1,1.08,3.9,1.84,5.81a61.65,61.65,0,0,1,2.45,9.69,9.9,9.9,0,0,1-.24,2.84c-.17.31.44.68.44,1,0,3.52,2,6.78,1.4,10.4-.09.49.27,1,.42,1.56a4.53,4.53,0,0,1,.38,1.3c-.26,4.59-.58,9.17-.83,13.75a8.77,8.77,0,0,0,.42,2.23Zm-44.8,96.33c.37-2.55,3.37-3.06,5.58-4.46a11.65,11.65,0,0,0,1.95-2.17c.65-.69,1.35-1.36,2-2s1.39-1.27,2-2c1.1-1.26,2.14-2.58,3.4-4.1-.79-1.74,0-3.05,2.14-3.73a1.92,1.92,0,0,0,.9-.88c.95-1.54,1.89-3.1,2.73-4.72.2-.34,0-.93-.11-1.4-.38.2-.92.29-1.13.61-1.14,1.69-2,3.42-4.17,4.38-1.21.54-1.62,2.77-2.53,4.18-1.41,2.21-2.6,4.75-4.51,6.47-3.06,2.76-6.63,4.93-10,7.39-1.36,1-2.68,2-4.31,3.28Z"/><path class="cls-2" d="M93.28,38.94l4.49,1c.07.25.13.54.18.8-1,.31-1.91.62-2.85,1-1.82.67-3.65,1.35-5.43,2.14-.91.4-1.47,1-2.8.92-1.75-.15-3.63.83-5.37,1.55-1.92.81-3.77,1.84-5.62,2.82a6.78,6.78,0,0,0-1.16,1.12c.48.39.89,1,1.42,1.13,1.81.46,3.6,1,5.06-1,.56-.79,1.9-1,2.81-1.53,1.35-.82,3.41-.65,3.87-2.77.05-.26.89-.61,1.21-.5,3,1,5.67.18,8.42-1,2.24-1,4.65-1.58,7-2.37,2.91-1,5.79-2.13,8.75-2.9,1.25-.33,2.72.22,4.09.24a51.65,51.65,0,0,0,6.47-.13c.79-.08,1.49-.95,2.4-1.58.78,2.39,3.33,1.21,5.13,2a43.76,43.76,0,0,0,5.43,1.55c.14,0,.28.18.38.17,4.92-.69,8.64,2.38,12.81,4a10,10,0,0,0,3.32.53c.35,0,.83-.66,1-1.09.08-.19-.38-.63-.62-1-1.13-1.48-2.46-2.45-4.5-2-.22,0-.66-1-1.16-1.77-1.06,0-2.48,0-3.87,0-.15,0-.37,0-.42-.12-1.66-3-5.22-1.64-7.52-3.25a1.55,1.55,0,0,0-1.41-.09c-1.57,1.39-3,.06-4.47,0-5.32-.42-10.65-3.07-16-.05-.82.46-2,.26-3,.45-2.7.56-5.4,1.18-8.09,1.78-.85.19-1.7.43-2.53.65-.11-.17-.24-.34-.34-.52.72-.45,1.43-.92,2.16-1.35.25-.16.58-.15.82-.31,3.46-2.29,7.28-2.87,11.37-2.89a95.57,95.57,0,0,0,10.54-.86c2.09-.22,4.32,1.07,6.33-.51.13-.11.76.34,1.13.58,1.38.95,2.6,1.21,3.81-.38a2.09,2.09,0,0,1,1.94-.16c2.7,1.43,5.24,3.29,8.08,4.39,1.12.46,2.86-.62,4.95-1.15-1.09-1-1.61-1.9-2.3-2.06-3.11-.75-6.27-1.32-9.39-1.91-.39-.07-1,.14-1.14,0-2-3-5.41-1.26-8-2.38-1-.46-2.29-.44-3.36-.87-2.23-.91-4,.58-6,.94a24.73,24.73,0,0,1-3.54.29c-2.72.12-5.45.38-8.16.24-2.44-.12-4.87-1.16-7.25-.93-2.84.25-5.6,1.4-8.4,2.12-3.56.92-6.91,2.58-10.71,2.73-1.59.08-3.16,1.57-4.67,1.47-3.69-.22-5.37,2.72-7.93,4.28-.25.16-.14.9-.28,2.08,3.37-1.2,6.19-2.26,9.07-3.13.52-.16,1.3.41,1.83.61l4.63-2.62c.13-.08.28-.29.32-.26,2.85,1.63,5-1.77,7.93-1,1.12.28,2.61-1,4-1.46s2.73-.89,4.08-1.32c.13.28.24.56.35.83L93.08,38C93.15,38.31,93.22,38.62,93.28,38.94Z"/><path class="cls-2" d="M199.51,105.4a5.55,5.55,0,0,0-.48-4.77c-1-2-.92-4.46-1.91-6.41s.57-4.75-1.89-6.31c-.29-.18-.33-1-.27-1.46a11.69,11.69,0,0,0-3-9.51,80.27,80.27,0,0,1-8.62-12.34,21,21,0,0,0-5.67-6.79A70.5,70.5,0,0,1,170.81,51c-1.46-1.5-3.16-1.8-4.41-.73,1.69,4.74,6.06,6.53,9.82,9,.45.29,1.13,1,1,1.2-.94,1.72.35,2.54,1.32,3.47a50.21,50.21,0,0,1,4.24,4,27.88,27.88,0,0,1,4,5.78,37.66,37.66,0,0,1,2.3,6.89,11.17,11.17,0,0,0,2.61,5.16c.85.87.7,2.67,1.16,4,1,3,2.21,6,3.2,9,.29.88.12,1.9.34,2.81.37,1.44,1.08,2.83,1.31,4.31.39,2.45.51,5,.81,7.45.12,1,.75,1.89.66,2.79-.25,2.08,2.5,3.48,1,6-.45.75,1.23,2.82,2.06,4.54-1.17.69-1.82,1.9,0,3.65a2.19,2.19,0,0,1,.14,2.93c-.61,1,.65,3.1,1.16,5.13-2.5,1.93-1.93,5.06-1.51,8.21a12.21,12.21,0,0,1-.25,2.87c0,.19-.21.45-.14.59,1.84,3.37-.62,6.38-.83,9.56a14.86,14.86,0,0,0,.22,3.2,7.7,7.7,0,0,1-.08,2.6c-.52,1.3-1.19,2.45-.37,3.84a1.14,1.14,0,0,1,.11.85c-1.92,3.88,1,8-.41,11.85-.13.35.51,1,1.09,2,.52-1.57.93-2.66,1.23-3.78.5-2.07,1.05-4.13,1.35-6.22a10.37,10.37,0,0,0-.1-4.12c-.38-1.43.44-2,1.13-2.92a5.29,5.29,0,0,0,1.12-2.7,33.72,33.72,0,0,0-.28-4.58c0-.36,0-.91-.24-1.06-2.34-1.51-.69-3.37-.5-5.13.1-1.28,0-2.58.07-3.86l.12-5.66a21.15,21.15,0,0,0,.13-3.72c-.43-2.8-1.12-5.54-1.54-8.32-.1-.73.7-1.57.64-2.32a37.89,37.89,0,0,0-1.2-8c-.87-2.78,0-5.5-.47-8.2-.42-2.29-.84-4.57-1.44-6.83C201.28,106.09,200.38,105.89,199.51,105.4Z"/><path class="cls-2" d="M185.64,106.34c.94,2.3.71,4.86,2.44,6.73-1.3,1.88-1.29,4.08-.7,6.37a8,8,0,0,1,.2,1.09c.21,1.14.13,2.45.69,3.36.85,1.42.7,2.65.55,4.21a62.13,62.13,0,0,0,.24,8.89,34.1,34.1,0,0,0-1.1,4.64,63.93,63.93,0,0,0-.35,8.07c.11,5-1.4,9.86-1.39,14.84,0,3.37.44,6.77,0,10.07-.36,2.72-.64,5.24.77,7.67a5,5,0,0,0-2.77,5.49,5.09,5.09,0,0,1-.46,2.11c-.1.33-.41.62-.48,1-.58,2.9-1.12,5.82-1.65,8.73a2.8,2.8,0,0,0,0,1.08c.34,1.49,1.3,3.11-.86,4.1-.14.07-.17.39-.22.6-1.13,4.31-2.24,8.62-3.4,12.92a18.22,18.22,0,0,1-.76,1.92c-.93,2.28-1.95,4.55.09,7a9.74,9.74,0,0,0,4.15-7.79c.09-1.68.92-3.31,1.36-5,.56-2.06,1.16-4.12,1.57-6.22.84-4.24,1.58-8.5,2.35-12.74a7.52,7.52,0,0,0,.17-.85,88.32,88.32,0,0,0,1.55-10.39,13.48,13.48,0,0,1,1.49-6.14,8.06,8.06,0,0,0,.76-3.78c0-1.57-.65-3.13-.63-4.71a55.71,55.71,0,0,1,.56-6.69c.27-2.26.64-4.5.94-6.76.27-1.85.55-3.68.69-5.54.12-1.37,0-2.76,0-4.13s0-2.46,0-3.68-.1-2.58-.07-3.88c0-2.63.21-5.28.18-7.91,0-2-.39-4.05-.57-6.07a3.45,3.45,0,0,1,0-1.7c.94-1.69.23-3.12-.28-4.71-.61-1.91-.28-4.26-1.27-5.86-1.15-1.84-.05-3.79-1.18-5.54C187.52,105.89,187,105.68,185.64,106.34Z"/><path class="cls-2" d="M196.55,162.15c.6-3.75,1.21-7.29,1.67-10.85.29-2.05.34-4.13.43-6.2,0-.5-.48-1-.42-1.52.13-1.3-.37-2.51.24-4s.11-3.39,0-5.12c-.05-.72-.69-1.62-.43-2.13.82-1.65.17-3.13-.06-4.73a48.24,48.24,0,0,1-.42-5.78c-.06-2.52.33-5.06-1.77-7.13-.47-.45-.23-1.62-.28-2.47,0-.49.19-1.06,0-1.47a7.2,7.2,0,0,0-1.49-2.52,2.18,2.18,0,0,0-1.93.59,6.31,6.31,0,0,0-.16,3.28c.4,1.64,1.41,3.13,1.72,4.78a50,50,0,0,1,1.06,7.18c.17,4-.3,8-.39,12a1.17,1.17,0,0,0,.21.84c1.9,1.88.68,3.88.41,5.92a21.74,21.74,0,0,0,0,6.24c.3,1.83.84,3.43-1.36,4.49,1.42,1.63,1.23,2.88-.39,4.14a2.45,2.45,0,0,0-.47,2.32,6.92,6.92,0,0,1,.07,6.34,4.24,4.24,0,0,0,.22,2.32c.94,4.21-.24,8.24-.79,12.36s-.92,8.16-2.71,12c-.55,1.18-.11,2.84-.08,4.26.06,2-1,3.62-1.72,5.4-.69,1.58-.45,3.74-.07,5.54.23,1.21,1.4.64,1.66-.25.73-2.51,3-4.58,1.93-7.67-.25-.72.75-1.82.89-2.77a19.63,19.63,0,0,1,3.06-8.23c.21-.31.12-.82.17-1.24.41-4.18.94-8.35,1.25-12.53.2-2.85.05-5.73.17-8.59a10.86,10.86,0,0,1,.65-2.73C197.87,163,197.51,162.24,196.55,162.15Z"/><path class="cls-2" d="M140.75,46c-1.06-.28-2.11-.6-3.16-.86-.27-.06-.79,0-.83-.06-.63-2-2.83-1.41-3.84-2.37-1.29-1.22-2.47-1-3.84-.89-2.9.19-5.8.29-8.72.44-.23,0-.5.13-.64,0-2.46-1.72-3.94-.67-5,1.7-.09.2-.51.26-.69-.25-1.25-.33-2.78-1.29-3.7-.89-2.68,1.22-6,.6-8.28,3.07-.47.52-1.82.2-2.72.41-2.46.57-4.9,1.39-7.38,1.83-3.81.68-7.12,2.66-10.43,4.35-1.73.89-4.42.69-5.36,3.31-.22.61-2,.8-3.08.91-3.07.36-4.88,2.63-7.09,4.37-1.78,1.4-3.7,2.65-5.51,4.08-.76.59-2.2.84-1.58,2.44.45,1.15.9,1.54,2.1.78,2.82-1.78,5.56-3.86,8.63-5.08,4.19-1.68,7.48-4.75,11.43-6.72,2.49-1.24,5.2-2,7.82-3S94.3,51.42,97,50.44c4.64-1.67,9.22-3.63,14.25-3.89.21,0,.51.18.63.1,3-2.19,6.68-.61,9.93-1.84,1.45-.54,3.44.24,5.18.48,2.52.32,5.08,1.12,7.56.92,2.63-.23,4.5,1.14,6.72,1.86.88.28,1.81.47,2.72.7.06-.73.48-1.72.15-2.13a2,2,0,0,0-3.16-.23c-.11.08-.28.06-.41.11C140.66,46.33,140.69,46.16,140.75,46Z"/><path class="cls-2" d="M97.26,17.6c.28.3.59.65.91,1l-.43.51c-.49-.41-1-.79-1.77-1.42a22.76,22.76,0,0,0-4.88,1c-1.34.6-2.37,1.92-4,3.3,1.31.15,2.4.63,3.14.28,2.62-1.16,5.31-1.12,8-1.13.87,0,1.72-1,2.46-1.45,2-.11,4.15-.1,6.22-.36,1.68-.24,3.22-.62,4.88.35a3.26,3.26,0,0,0,2.9-.16c2.91-2,5.75-1.41,8.69-.25a2.21,2.21,0,0,0,1,.2c2.39-.27,4.77-.58,7.06-.87,2.47,2.81,3.63,3,5.37.79.47.69.89,1.32,1.3,1.95a4.91,4.91,0,0,0,.15-.51c1.3.4,2.6.8,3.9,1.15.86.21,1.71.37,2.56.5,1.25.18,2.67-.62,3.6,1.11.26.49,1.86.31,2.83.35,1.81.07,3.61,0,5.41.22.49.07.84,1.09,1.52,2.07,1.31.3,3.16.9,5.07,1.18,1.68.25,3.53,1.77,5.51-.74-1.55-1-3-1.93-4.45-2.77-.88-.51-2.07-.62-2.75-1.28-1.42-1.4-2.79,0-4.15-.24-.24,0-.61.28-.73.19A12,12,0,0,0,151,20.44c-4.23-.77-8.33-2.15-12.73-2.35-1.92-.11-3.76-1.3-5.7-1.71-3-.66-6.06-1.19-9.11-1.59a3.27,3.27,0,0,0-2.13.93c-1.05.87-2.17,1.37-3.06.13-1.18-1.62-2.57-1.57-4.38-1.54a48,48,0,0,0-10.88,1.77Z"/><path class="cls-2" d="M108.25,24.89c-1.55-.56-2.55-1.21-3.56-1.21-1.47,0-3-1.07-4.51.26-.17.14-.77-.3-1.19-.34a4.81,4.81,0,0,0-2.09-.08c-1.53.56-3.09,2-4.48,1.86-2.78-.34-4.17,2.31-6.6,2.36-.93,0-1.88.24-2.82.35-.21.05-.48,0-.63.08C80,29.7,77.6,31.25,75.07,32.9c1.84,1.36,3.48,1.4,4.9.09,2.19-2.05,4.88-1.62,7.5-2,1.88-.26,3.69-1.34,5.51-2.1.56-.23,1.21-1,1.54-.9,3.08,1.33,5.58-1.22,8.47-1.11a30.4,30.4,0,0,0,5.07-.69c.91.5,2.39,1.27,3.84,2.05,0-.24,0-.48,0-.71l5-.71a15.06,15.06,0,0,1,2.81-.38c2.59.12,5.28-1.73,7.78.39a.77.77,0,0,0,.39.2c2.55.22,5.11.59,7.67.63,3,.06,5.92.2,8.72,1.75,1.47.84,3.47.76,5,1.06,1.4-3.14-.72-3.57-2.27-4.33-3.43-1.71-7.31-1.31-10.92-2.14a58.75,58.75,0,0,0-6.91-.86c-.36,0-.74.45-1.11.44a14.93,14.93,0,0,1-2.3-.3c-1.32-.23-2.63-.55-4-.76-1.48-.21-3-.35-4.51-.54-2.45-.33-4.92-.39-7.13.84A8.38,8.38,0,0,0,108.25,24.89Z"/><path class="cls-2" d="M125.49,271.47c.15.59.13,1.89.78,2.49s1.84.19,2.88.26c1.25.92,2.62,2,4.15,3.12.67-1.36,1.33-2.68,2-4l-.56-.75c2.26-.32,4.52-.7,6.79-1,.35-.05.74.43,1.13.47,1.39.17,2.79.3,4.19.37.3,0,.69-.44.92-.34,3.75,1.45,7.13-1.8,10.84-.84a5.84,5.84,0,0,0,5.95-1.41c-1.41-2.6-4.3-3.9-6.65-3-.46.18-1.15.47-1.23.82-.46,2-2,2.32-3.76,2.66-.33-1.56-1.21-2.13-2.86-1.51a3.63,3.63,0,0,1-2.32-.13c-3-1.26-5.91-.31-8.85.4-2.73.63-5.58,1.52-8.32,1.37-2.47-.1-4.87-1.45-7.3-2.26-.21-.06-.37-.28-.58-.31-2.41-.39-4.86-.64-7.26-1.11a51.46,51.46,0,0,1-7.57-1.91,7.57,7.57,0,0,0-5.74-.1,7.14,7.14,0,0,0-1.65,1.34c.76.86,1.47,2.34,2.35,2.46,2.73.36,5.54.15,8.32.28a4,4,0,0,1,2.52.73c1.61,1.79,3.58,1.76,5.7,1.7S123.55,271.41,125.49,271.47Z"/><path class="cls-2" d="M198.06,85c.75,2.2,1.48,4.22,2.11,6.25,1,3.12,1.66,6.31,3.57,9.09a2.28,2.28,0,0,1-.18,3.16c-.47.4-.51,1.29-.73,2l2.76,1.23a6.71,6.71,0,0,0,.61,5.35c.94,1.53.8,3.74,1.2,5.93.4.14,1.15.37,1.39.45-.11,1.68-.22,3.26-.33,4.85a2.71,2.71,0,0,1-.15,1,6.74,6.74,0,0,0,.12,5.77,7.48,7.48,0,0,1,.09,5.31,3.58,3.58,0,0,0,.07,2.34c1.09,2,.58,4,.65,6.07,0,2.43.43,4.66-1.19,7-.67,1,.74,3.36,1.14,5.12a33,33,0,0,1,.46,3.38,24.92,24.92,0,0,0,.33,4.85c.38,1.33,1,2.23-.71,3.1-.66.31-.86,1.55-1.26,2.38l.29.63c.64-.24,1.55-.3,1.84-.75,1.53-2.37,2.71-4.68,2.23-7.92a12.39,12.39,0,0,0-1.63-5.38A13,13,0,0,0,212,153c.26-3.05,0-6.21.51-9.2.32-1.83-.56-2.64-1.62-3.81,2.6-2,1.16-4.76,1.41-7.24,0-.2,0-.57-.17-.63-3.93-1.45.33-4.9-1.67-6.81,1-4.47-.26-8.82-.76-13.21a12.06,12.06,0,0,0-.73-2.57c-1.21-3.21-2.49-6.39-3.65-9.6-.3-.82-.08-1.79-.36-2.62-1.11-3.36-2.25-6.75-3.55-10C200.91,86.1,200.34,84.58,198.06,85Z"/><path class="cls-2" d="M0,241.23c.45,2.15.81,3.89,1.16,5.62.21-.21.42-.4.64-.59,1.05.51,2.12,1,3.14,1.54.77.42,1.49.94,1.79,1.12A33.18,33.18,0,0,1,9.19,252c.79,1.33,1.61,1.52,3,.8.45-.22,1.49.37,2.08.82,2.29,1.79,5,3.35,6.67,5.61,2.09,2.82,4.13,5.13,7.66,6,.89.25,1.35,1.92,2.14,2.85,1.43,1.71,3.22,1.77,5.35.69a8.15,8.15,0,0,0-4.14-5c-2-1-4.32-1.4-5.27-3.82-.09-.21-.66-.21-1.19-.36,1.09-1.58.72-2.15-.87-3.44-2.13-1.69-3.88-3.94-6.27-5.49-.59-.38-.62-1.61-1-2.63-.67.29-1.22.56-1.74.78-1.29-1.59-2.55-3.19-3.85-4.76-.22-.26-.66-.71-.79-.63-2.32,1.08-3.83-1-5.72-1.44C3.72,241.66,2.11,241.55,0,241.23Z"/><path class="cls-2" d="M166.56,243.18c-.38-.61-.44-.72-.52-.86-1.6-3.24-3.12-1-4.6.11-1.28,1-2.47,2.13-4,3.48-1.72-.32-3.3,1.08-5,2.51-1,.83-2.52,1-3.8,1.54-3.42,1.34-6.76,2.93-10.26,3.95a34.82,34.82,0,0,1-9,1.44c-2.76.07-3.83.39-4.86,3.12-.47,1.28-3.8,1.75-5.23.72a10.89,10.89,0,0,1-1.11-1.2c-.88,1.19-1.65,2.23-2.38,3.29a1.42,1.42,0,0,0,1.07,2.28,47.42,47.42,0,0,0,7.25.25,2,2,0,0,0,1.18-1.42c-.33-2.82,1.53-3.32,3.55-3.58.13-.93.25-1.71.42-2.88.69.67,1,1,1.36,1.37.56.56-1,1.81.51,1.89a18.8,18.8,0,0,0,3.75-.52c.55-.1,1.12-.12,1.68-.23.4-.08,1.09-.17,1.14-.37.54-2.12,2.1-1.76,3.72-2,1.95-.28,3.81-1.28,5.7-2a3.28,3.28,0,0,1,1.48-.44c1.68.32,2.72-.55,3.73-1.68a2.1,2.1,0,0,1,1.45-.63c3.67.18,5.65-2.38,7.85-4.65a13.89,13.89,0,0,1,2.16-1.6C164.63,244.5,165.55,243.88,166.56,243.18Z"/><path class="cls-2" d="M215.84,94.43c1.12-1,.88-4.42-.09-5.8a8.67,8.67,0,0,1-1.94-5.54c0-1.76-1.37-3.7-2.44-5.36-.85-1.29-2.26-2.22-3.22-3.44a21.06,21.06,0,0,1-2.31-3.87c-.93-2-1.36-4.22-4-5-.82-.23-1.36-1.33-2-2.06-.3-.3-.65-.92-.81-.88-2.86.83-2.4-2-3.37-3.09-2.12-2.48-4-5.14-6.11-7.66a26.69,26.69,0,0,0-3.35-3.61c-1.1-1-2.42-1.37-3.29.38,1.59,2.35,3.14,4.65,4.73,6.92a12.07,12.07,0,0,0,1.29,1.39c3.34,3.39,6.94,6.58,9.92,10.28,2.53,3.14,4.18,7,6.51,10.25,1.72,2.49,3.91,4.66,5.85,7a5.38,5.38,0,0,1,1,1.91A13.7,13.7,0,0,0,215,92.12C215.54,92.65,215.57,93.64,215.84,94.43Z"/><path class="cls-2" d="M157,50.2c.47,1.32.86,2.48,1.3,3.62.1.24.33.57.56.6,3.52.75,5.2,4,7.93,5.8.44.29.91.73,1.36.71,2.61-.07,3.43,2,4.34,3.69.8,1.49,1.27,3,3.32,3.24.68.09,1.4,1.24,1.73,2.06.57,1.43.75,3,1.31,4.49.26.73,1,1.26,1.48,1.93.76,1.18,1.46,2.39,2.19,3.59.3.52.62,1,.9,1.56a32.41,32.41,0,0,1,2.08,4.06c.86,2.4,1,5.21,2.38,7.21s.61,4.14,1.71,6a15.14,15.14,0,0,1,1.07,2.62c.58,1.48,1.16,3,1.75,4.46a1.76,1.76,0,0,0,1.11.91,10.3,10.3,0,0,0-.13-2.36c-1.3-4.62-2.68-9.23-4-13.85-.56-2-.61-4.24-1.67-5.84-1.32-2-.89-4.62-3.16-6.26-1.18-.84-1.36-3-2-4.6-.15-.35-.37-.89-.64-1-1.93-.48-2-2.13-2.73-3.59a49.66,49.66,0,0,0-3.66-5.55c-.38-.59-.66-1.24-1-1.87-.07-.11-.13-.37-.19-.36-2.41.24-2.1-2.95-4.15-3.31-.6-.11-1-1.11-1.6-1.63s-1.36-1.42-1.89-1.31c-2.36.48-3.49-1.4-3.94-2.71-.75-2.2-2.12-2.31-3.85-2.3Z"/><path class="cls-2" d="M169,44.28c1.54,1.67,3.11,3.33,4.66,5,0,.06.12.07.18.11l7.6,8.31c.15.17.32.4.49.43,2.17.18,2.62,1.94,3.53,3.48,1.1,1.84,2.92,3.25,4.23,5a29,29,0,0,1,2.37,4c.91,1.64,1.83,3.28,2.59,5,1.13,2.58,3.16,4.09,5.52,5.49A7.1,7.1,0,0,1,203,84.8c.83,2.69,1.89,1.52,3.07.65-1-4.71-3.74-8.28-7.1-11.44a3,3,0,0,1-.73-1c-.79-1.9-2.09-3-3.58-2.72-2.08-3.49-3.9-6.79-6-9.91-.78-1.16-2.6-1.75-3.15-2.94-1-2.28-2.78-3.44-4.68-4.73-1.38-.92-2.32-2.49-3.55-3.67-1.86-1.81-3.75-3.61-5.77-5.25-.45-.4-1.46-.12-2.22-.15C169.18,43.84,169.09,44.06,169,44.28Z"/><path class="cls-2" d="M28.85,105.21c2.81.2,3.3-.14,4-2.82.11-.35.1-.92.32-1,2.81-1.22,2.71-4,3.52-6.28.19-.54.81-1,1.28-1.33,1.64-1.37,3.29-2.71,4.9-4.07A3.77,3.77,0,0,0,44,88.38c.46-1.13.62-2.42,1.19-3.5,1.23-2.3,2.13-5.4,4.14-6.55,2.87-1.65,3.56-5.25,6.83-6.33,1.15-.39,2.26-1.66.5-2.91a1.74,1.74,0,0,0-1.47-.3,14,14,0,0,0-3.74,2.49c-2.35,2.5-4.46,5.22-6.68,7.84-.14.17-.45.26-.49.41-1,4.3-4.93,6.52-7,10.16-1.55,2.82-4.19,5-6.48,7.39C29.19,98.73,28,102.85,28.85,105.21Z"/><path class="cls-2" d="M86.65,253.22c1.81,1.28,3.73,2,4.57,3.37,1.53,2.48,4.13,2.37,6.27,3.32a26.52,26.52,0,0,0,6.41,1.88c1.11.17,2.77.2,3.15-1.67,0-.24.53-.36,1.08-.74-.11,2.47,1.36,3.73,3.21,3.53,2.16-.25.63-2.75,1.76-3.85-.15-.22-.31-.41-.46-.6l-2.24,1.44c-1.31-1.89-5-3-7.64-2.77-1.64.15-3.37-.63-5-1.07-3.5-1-3.5-1-5.76-.41a5.7,5.7,0,0,0,.32-1.91c-.19-1.12.14-2.68-1.9-2.55-1.35.09-2.7.19-3.77-1.15a20.32,20.32,0,0,0-3.39-2.84c-3.58,1.63-5-3.08-8.38-3.52a5.81,5.81,0,0,1,.16,1.37c-.5,3,1.31,4,3.84,4.62.88.22,1.54,1.27,2.43,1.65C83.13,252.15,84.75,254,86.65,253.22Z"/><path class="cls-2" d="M172,209.75c-1.17,1.38-3.88,1.48-3.06,4.8.69-.43,1.54-.68,2-1.25.89-1.24,1.47-2.76,3.51-1.81.25.13,1.26-.57,1.3-1,.25-2.53,1.83-4.73,1.55-7.43a5.65,5.65,0,0,1,1-2.79c.58-1.15,1.45-1.84.79-3.61-.57-1.55.6-3.73,1-5.64.15-.74.26-1.51.39-2.28.42-2.22.84-4.45,1.24-6.69s.75-4.61,1.18-6.89c.3-1.57.74-3.11,1.08-4.67.39-1.73-.54-2.47-2.7-2.81a55.41,55.41,0,0,1-.66,6c-.9,4-2,8.08-3,12.1a8.58,8.58,0,0,0-.06,1.61c0,.39.13,1-.08,1.15-1.41,1.24-1.25,2.95-.91,4.37.47,1.88-.25,3.3-.84,4.9a40.67,40.67,0,0,0-1.14,4.16c-.35,1.31,0,2.73-1.5,3.85C172.22,206.45,172.33,208.39,172,209.75Z"/><path class="cls-2" d="M156.46,254.22c-1.81.34-3.14.51-4.43.87-2.21.63-4.38,1.41-6.57,2.14-.21,0-.59.07-.61.19-.59,2.39-2.53,1.4-4.14,1.48,1.36,1.32,2.48,1.78,4.31.83a13.63,13.63,0,0,1,5.33-1,16.13,16.13,0,0,0,9.73-3.78c1.68-1.41,3.87-2.22,5.55-3.64a27.47,27.47,0,0,0,3.46-4.34s.4.43.88.92c.63-.48,1.48-.84,1.88-1.5,1.08-1.77,2-3.66,3-5.49.54-1,1.2-1.95,1.69-3a3.5,3.5,0,0,0,.41-1.8c0-.19-1-.59-1.3-.41a3.71,3.71,0,0,0-1.13,1.3,16.6,16.6,0,0,1-1.63,2.48c-1.41,1.41-3,2.67-4.49,4-.11.08-.29.24-.25.3.8,2.65-1.59,3-2.9,4.1-.67.56-1,1.58-1.69,2.08a7.89,7.89,0,0,1-3.51,1.74C157.83,251.89,156.6,252.66,156.46,254.22Z"/><path class="cls-2" d="M62.25,241.08c-1.14,4.4-.14,5.87,4.13,6-.12,2.95,2.1,4.34,4.19,5.81,1.33.95,2.72,1.82,4.47.73.16-.09,1.12.51,1.17.88.32,1.79,3.27,3.32,4.92,2.39,1-.56,1.5-.94,1.43.73,0,1.16,4,5,5,4.74s1.81-1.27,2.71-2c-.48-.46-1-.92-1.48-1.35a4.71,4.71,0,0,0-.68-.45c-1.69-1-3.38-2.06-5.09-3.08-1.36-.82-2.67-2-4.14-2.35a6.28,6.28,0,0,1-3.39-2,22.7,22.7,0,0,0-2-1.24c-.67-.52-1.23-1.18-1.87-1.76C70.45,247,69.38,245.33,68,245a7,7,0,0,1-4.35-2.91C63.35,241.65,62.76,241.43,62.25,241.08Z"/><path class="cls-2" d="M83.89,267.13a13.71,13.71,0,0,0,1.1-2.85,2.1,2.1,0,0,0-1.2-1.63c-1.74-.34-3.57-.23-5.3-.61-.82-.17-2.08-1-2.1-1.62-.09-2.62-2.85-2.44-3.73-4.63-.46,1-.69,1.48-.86,1.84A59.09,59.09,0,0,0,67,253.12,23.83,23.83,0,0,0,62,250.35a2.84,2.84,0,0,0-2.06.38c-.07,1.25-.23,2.71.34,3.7,1.35,2.3,4,2.61,6.29,3.49,1.22.46,2.5.83,3.66,1.4.41.24.56,1,.84,1.5s.42,1,.77,1.16c1.54.61,3.18,1,4.69,1.63C78.79,264.56,81,265.7,83.89,267.13Z"/><path class="cls-2" d="M186.1,39.07,184,42.13c3.21,2.17,6.26,4.26,9.29,6.3-.19.24-.78.79-.7.9.85,1.34.65,3.11,2.32,4.22s2.64,3,4,4.52c1.9,2,3.82,4,5.83,6a21.88,21.88,0,0,0,2.64,2c1.25-1.13,1.22-2.15,0-3.52-2.49-2.64-5.75-4.72-6.47-8.67-2.94-1.22-3.05-5.05-6.32-6.35-2-.79-3.16-3.56-4.82-5.32C188.67,41,187.35,40.13,186.1,39.07Z"/><path class="cls-2" d="M144.74,16.49l.68-1c1.46.33,2.68.56,3.85.88s2.18.86,3.32,1.18,2.16.5,3.26.71,2.23.36,3.34.57c.21,0,.42.21.61.19,2.4-.22,4.68-.54,6.7,1.55,1.46,1.5,2.59,0,3.54-1.26-.95-2.85-3.82-3.2-6-3.89-3-1-6.33-1-9.52-1.37a17.05,17.05,0,0,0-2.14.06,63,63,0,0,1-7.65,0c-1.39-.13-2.64-1.25-4-1.59a7.48,7.48,0,0,0-3.36,0c-.44.1-1.15,1.12-1,1.4.36.75,1,1.8,1.71,1.92A64.55,64.55,0,0,0,144.74,16.49Z"/><path class="cls-2" d="M127.71,283.82c.31,1.6,1.17,2.47,2.63,1.63a13.28,13.28,0,0,0,3-2.61,3.63,3.63,0,0,0-1.46-1.88c-3-1-6-1.71-9-2.71-2.08-.71-4-1.8-6.07-2.65a3.89,3.89,0,0,0-1.8-.16c-.92.08-1.8.35-2.72.44-1.28.16-2.26.81-2,2.07.14.66,1.28,1.11,2,1.58a11.56,11.56,0,0,0,1.64.74c1.8.67,3.59,1.44,5.45,1.94.5.12,1.27-.51,1.84-.9a6.43,6.43,0,0,0,1.08-1.07c.37.4.92.8,1,1.28C124,283.88,125.19,284.84,127.71,283.82Z"/><path class="cls-2" d="M206.63,94c3.23,5.94,6.22,12,6,19.05,3.58.77,2.14,4.42,4.31,6.78.15-1.34.33-2.26.34-3.18,0-1.15-.07-2.3-.14-3.46-.06-.56,0-1.48-.29-1.65-2.25-1.3-1.39-3.52-1.79-5.36-.09-.35-.07-.88-.33-1-2.77-2-1.62-4.93-2-7.5a4.37,4.37,0,0,0-.59-1.58c-1.22-2-2.87-3.73-2.75-6.34,0-1.29-.64-2.32-2.2-1.91s-1.58,1.49-1.22,2.8C206.25,91.67,206.41,92.83,206.63,94Z"/><path class="cls-2" d="M46.65,274.09c.53,1.22,1.37,2.87,3.88,2,.2-.08.85.45.95.79.78,3,1.49,3.33,4.2,1.8a3.75,3.75,0,0,1,.87-.16c-.59,2.77,2.2,2.74,3.35,4.1.2.24,1.55-.5,2.37-.79-.29-.63-.41-1.55-.91-1.89-1-.68-2.24-1-3.32-1.62a3.05,3.05,0,0,1-1.41-1.48c-.7-2.89-3.66-3-5.44-4.59-.61-.52-1.76-.35-2.66-.56-4-1-7.75-2.66-12.35-1.83l3.06,2.79.34-.54a15.81,15.81,0,0,0,2.8,1.38A35.76,35.76,0,0,0,46.65,274.09Z"/><path class="cls-2" d="M147.87,291.69c-1.23-1.2-2.54-2.32-3.68-3.61-.37-.39-.32-1.18-.45-1.78a10.67,10.67,0,0,1,1.6.39c.86.4,1.56,1.25,2.68.27.51-.42,1.53-.27,2.44-.39-.65-1.26.76-3.37-1.61-3.93-1.72-.39-3.29-.25-4.39,1.56-.29.48-1.3.67-2,.75a9.79,9.79,0,0,1-2.34-.17,4.1,4.1,0,0,1-1.44-.24c-.83-.51-1.47-2.05-2.57-.92a14.57,14.57,0,0,0-2.07,3.57,2.38,2.38,0,0,0-.17.7c3.47,1.58,6.87,3.2,10.38,4.63,1,.4,2.21.09,3.33.12C147.68,292.33,147.77,292,147.87,291.69Z"/><path class="cls-2" d="M47.62,263.74c.89,1.42,1.42,3.17,2.62,3.93s2.84.26,4.22.32c.13.81.25,1.49.37,2.2.17-.18.31-.36.46-.53a42.56,42.56,0,0,0,4.36,3.1c1.82,1,3.82,1.7,6.33,2.78.6,1.24-.06,4.68,3.88,3.86,1.39-2.77.75-3.33-1.65-5.44s-5.46-3-7.92-4.86a5.66,5.66,0,0,1-1.48-1.57c-1.14-2.12-2.42-2.44-4.58-1.15-1.44.85-2-.41-2.34-1.35C51,262,49.9,261.69,47.62,263.74Z"/><path class="cls-2" d="M173.93,254.35l-2.22-1c0-.22,0-.45,0-.66a16.27,16.27,0,0,0,2.42-.65c1.18-.51,2-1.25,1.43-2.8-.08-.23.72-1.17.94-1.11,1.42.32,1.89-.33,2.24-1.55a13.51,13.51,0,0,1,1.29-2.75c1.32-2.42,2.83-4.72,4-7.2s.67-3-1.74-4c-1.91,4.15-3.73,8.33-5.73,12.41a7.49,7.49,0,0,1-2.69,3.22c-1.69.92-2.06,2.06-1.68,3.33-3,1.62-6.65,1.66-8.51,4.93.1.21.18.42.26.64,1.07-.39,2.15-.75,3.56-1.27.25.34.74,1,1.26,1.71Z"/><path class="cls-2" d="M148.76,10.82c2.46,2.84,5.21.91,8,1.57-.67-3-3.15-2.41-4.74-3s-3.38-.58-5.05-1c-4.41-1.11-8.78-2.09-13.3-.48-.52.17-1.25-.28-1.87-.36A6.78,6.78,0,0,0,129,7.41c-.82.28-1.46,1.15-2.17,1.76a9.16,9.16,0,0,0,2.36,1.68c.8.22,1.8-.32,2.7-.3.74,0,1.47.52,2.2.47a59.86,59.86,0,0,0,6.26-.67c1.79-.33,3.38-.8,5,.89C145.85,11.77,147.79,13.52,148.76,10.82Z"/><path class="cls-2" d="M19.35,277.17c1.24,3.81,1.26,3.63,5.24,4.09,1.27.16,3.23.31,3.51,2.54.19,1.46,3.81,4.11,5.3,4.07.36,0,.73-.45.74-.46-.78-1.53-1.41-2.76-2-4-1.28-2.64-1.28-2.66-3.44-1.58-1.16-1-2.61-1.63-3.19-2.77-1.12-2.22-3.11-2.31-5-2.91-.42-.12-.4-1.28-.81-1.7-2.06-2-4.17-4-6.3-5.92-1.78-1.61-2-1.52-2.5.91a7.06,7.06,0,0,1-.57,1.28,27.36,27.36,0,0,1,4.05,1.47c.47.25,2,.31,1,1.92C14.58,275.27,17.38,277.42,19.35,277.17Z"/><path class="cls-2" d="M124,10.28c-.21-1.21-.4-2.43-.61-3.63l-3.38,1.5c-.12-.13-.73-.64-1.57-1.37-2.67.57-5.62,1.21-8.58,1.8a1.35,1.35,0,0,1-1.05-.37c-1.75-1.55-2.66-1.41-3.74.54a7.69,7.69,0,0,1-1.52,1.49c-.41.41-.8.86-1.21,1.29.63.41,1.25,1.07,1.92,1.14a4.66,4.66,0,0,0,2.57-.57c2.17-1.13,4.47-1,6.76-.78,1.67.18,3.52-.72,5,.77.12.14.76-.15,1.1-.34,1.15-.57,2.28-1.2,3.42-1.82Z"/><path class="cls-2" d="M162.28,261.42c1.72,3.33,5.18,4.31,7.83,2.37.32-.24.92-.08,1.41-.1l2.76-.1c0-1.68-.44-2.38-2.16-2.51-2.06-.15-4.1-1.32-6.13-1.29s-4.62-1.72-6.53.81c-.25.33-1.31.16-2,0a4.79,4.79,0,0,0-5.06,1.69c-.93,1.16-.56,2.42.91,2.45s3.64.09,4.35-.81c1.37-1.65,2.52-.47,3.74-.48C161.73,262.78,162,262.1,162.28,261.42Z"/><path class="cls-2" d="M157.65,275.65c-4.16-.1-8.26-.26-12.35-.23-.85,0-1.66.79-2.55,1.05a3.69,3.69,0,0,1-1.68-.05c-.94-.22-1.9-.81-2.81-.7a2.52,2.52,0,0,0-1.63,1.56c-.13.41.5,1.37,1,1.67,2.23,1.34,4.72,1.2,7.09.72,1.5-.31,1.16-1.39-.23-2.59l3.48-.19c-.1,1.07-.18,2-.29,3.42,2-2.49,3.75-.64,5.48-.67a8,8,0,0,0,1.9-.12,24.36,24.36,0,0,0,2.79-1.15C157.83,277.88,157.76,277,157.65,275.65Z"/><path class="cls-2" d="M91.39,295.75c-.8-.89-1.08-1.46-1.49-1.59a7.55,7.55,0,0,0-5.8.91c-1.64-1.54-3.2-3-4.83-4.55a4.13,4.13,0,0,0-1.45.31c-1.5,1-2.42,1.49-2.89-1.09-.25-1.23-2.12-1.58-3.69-.95s-.69,1.47-.44,2.53c.57,2.61,2.29,2.58,4.29,2.53.43,0,.9.54,1.33.86s1.08,1.16,1.71,1.28c2.55.48,5,1.94,7.75.67C87.32,296,89.1,296.09,91.39,295.75Z"/><path class="cls-2" d="M200.38,192.92a10.29,10.29,0,0,0-3-.21c-1.79.43-2.36,2.13-2.51,3.67-.16,2.08.21,4.19.08,6.26a17.28,17.28,0,0,1-1,3.94c-.58,1.81-2.29,3.48-.67,5.64.24.3-.13,1.09-.25,1.81.64.16,1.32.36,2.33.62.29-3.72,2.23-6.77,2.08-10.67a17,17,0,0,1,3-10.46c.1-.12,0-.42-.09-.65Z"/><path class="cls-2" d="M57.19,60.76c1.64,1.42,2.65,1.85,3.69.42a1.4,1.4,0,0,1,.87-.57c3.73-.41,6.36-2.77,9-5a30.32,30.32,0,0,1,3-1.57c1.55-1,.27-2-.32-2.66-.31-.35-1.46-.27-2,0A52.47,52.47,0,0,0,64.09,55,83.14,83.14,0,0,0,57.19,60.76Z"/><path class="cls-2" d="M159.85,33.68c3,1.82,6,3.66,9.12,5.62.38-1.21.61-1.91.82-2.58l.62-.38c.29,4.95,2.77,7.25,7.8,7a14.32,14.32,0,0,0-6.61-6.66,25.38,25.38,0,0,1-4.32-3.18,6.09,6.09,0,0,0-1.15-.85,11.26,11.26,0,0,1-2-.71C162.14,30.65,160.85,31.14,159.85,33.68Z"/><path class="cls-2" d="M90.67,283.64c-1.21-1.4-2.1-2.55-3.12-3.56-.71-.72-1.67-1.16-2.42-1.85-2-1.76-4.15-3.05-6.94-3-.53,0-1.08-.45-1.62-.57a20.25,20.25,0,0,0-2.19-.2c.19.84.16,2.22.63,2.44,2.81,1.24,4.65,4.31,8.1,4.32.32,0,.74.41,1,.75C85.26,283.67,87.81,284.54,90.67,283.64Z"/><path class="cls-2" d="M10,255.42c-.43,1.51-.66,2.3-.82,2.88-1.41-.69-2.49-1.28-3.63-1.7-.32-.12-1.11.18-1.17.41a2,2,0,0,0,.42,1.31c.45.7,1.07,1.3,1.57,2a2.53,2.53,0,0,0,3.5.69,31,31,0,0,0,2.62-1.79l-.67,4.47,5.42-.1.12.66-1.67,1c1.24,2,2.36,4.48,5.42,2.32-.53-3-1.53-5.44-5-5.94-.41-.05-.83-.75-1-1.24-.41-1-.47-2.41-2.13-1.17-.11.09-.87-.53-1.17-.95C11.27,257.49,10.8,256.66,10,255.42Z"/><path class="cls-2" d="M123.81,288.85c-.47,1.95-.83,4.43,1.56,5.23,1.66.57,3.77-.19,5.78-.39a15.11,15.11,0,0,0,.58,2.17,3.41,3.41,0,0,0,1.18,1.62c.38.17,1.06-.48,1.66-.62.85-.21,2-.64,2.59-.28a2.25,2.25,0,0,0,3.37-.78c-1.26-2.36-3.93-1.47-5.74-2.49-.54-.31-1-.64-1.59-.94a57.49,57.49,0,0,0-5.74-3.07A12.38,12.38,0,0,0,123.81,288.85Z"/><path class="cls-2" d="M92.25,273.33l6.48,1.79a1.65,1.65,0,0,1,.7.35c1.68,1.53,3.72,1.37,4.88-.52.29-.49.28-1.67,0-1.85a24.92,24.92,0,0,0-4.07-2c-1.61-.68-3.29-1.19-4.93-1.82-.82-.3-1.58-.76-2.41-1-.37-.11-1-.05-1.22.2a2.12,2.12,0,0,0-.21,1.46C91.6,270.89,91.89,271.82,92.25,273.33Z"/><path class="cls-2" d="M178.08,29.32l3.11,1.47c-.7,2.68-.6,2.82,2.46,3.36a1.46,1.46,0,0,1,.78.37c2.24,3,6,3.34,9.53,5.41a22.38,22.38,0,0,0-2.17-3.57c-2.81-3-5.79-5.78-9.64-7.42-.44-.2-.77-.64-1.2-.88C179.6,27.25,178.5,27.18,178.08,29.32Z"/><path class="cls-2" d="M179.86,36.63a14.94,14.94,0,0,0,1.4,2.86,1.9,1.9,0,0,0,1.72.57,1.94,1.94,0,0,0,.67-1.71c-.36-1.41-.77-3-2.68-3-.37-2.5-3-2.32-4.35-3.62a24.42,24.42,0,0,0-4.81-3.78c-.86-.46-2.27.13-3.44.24-.1.35-.19.7-.28,1,2,1.32,4,2.58,5.94,4S176.93,37.19,179.86,36.63Z"/><path class="cls-2" d="M60.63,260.28c-.28,3.8-.28,3.8,2,5,.68-.62,1.37-1.3,2.22-2.1.07,3.55.94,5,2.74,5.39a30.2,30.2,0,0,1,3.21.94c0,.23,0,.46.09.68l2.29-2.88c-.64-.43-1-.72-1.48-1s-.88-.51-1.17-.66l-2.24,1c-.1-.22-.19-.43-.28-.65.46-.27.93-.52,1.4-.79-.27-2.79-.85-3.26-3.62-3.09-.55,0-1.47-.23-1.6-.59-.77-2-2.19-1.58-3.64-1.23Z"/><path class="cls-2" d="M78.72,269.27c-1.5-.65-2.82-1.23-4.7-2.08.51,2.14.22,4,2.79,3.22a.88.88,0,0,1,.64.06c2.18,1.12,4.38,2.2,6.51,3.42,1.82,1,3.55,2.21,5.44,3.39.45-.32.95-.71,1.72-1.3a15.84,15.84,0,0,1-2.18-1.44,9.83,9.83,0,0,1-1.42-2c-.11-.15-.09-.4-.19-.58C85.9,269.22,81,267.84,78.72,269.27Z"/><path class="cls-2" d="M159,59.67c1.43-1.15.93-2.4-.48-3.14-2.29-1.21-4.29-2.48-5.19-5.14-.22-.7-1.51-1-2.33-1.54-1.16-.7-2.3-1.43-3.52-2.05a4.88,4.88,0,0,0-1.6-.14,3.78,3.78,0,0,0,.14,1.52,13.59,13.59,0,0,0,1.62,2c.52.6,1.43,1.07,1.56,1.71.42,2,1.88,2.49,3.47,3.2C154.88,57,156.86,58.41,159,59.67Z"/><path class="cls-2" d="M200.29,192.87c2.29.91,2.73.57,2.72-2,0-3.07,0-3.07,3.24-3.13.19-2,.39-4.13.52-6.21,0-.32-.35-.67-.56-1-.38.27-.94.45-1.07.83-.41,1.05-.66,2.17-.94,3.11-1.41.1-2.93-.23-3.85.38s-.78,2.15-1.3,3.21c-1,2.06.37,3.38,1.33,4.84Z"/><path class="cls-2" d="M182.41,95c-.09.58-.62,1.67-.29,2.21,1.51,2.38.44,6.19,4.54,7.59.06-1.63.48-3.24.1-4.62-.88-3.18-2.2-6.23-3.24-9.37-.6-1.87-1.87-1.17-2.82-.71s-1.63,1.34-.57,2.46C180.88,93.34,181.62,94.16,182.41,95Z"/><path class="cls-2" d="M122.74,293.5c0-1.75,0-3.44,0-5.06a32.87,32.87,0,0,0-4.91-2.26,3.75,3.75,0,0,0-2.89.75,2,2,0,0,0-.32,3.05A12,12,0,0,0,122.74,293.5Z"/><path class="cls-2" d="M133.94,263.7c.19.75.35,1.51.59,2.23a2.24,2.24,0,0,0,.7,1.13c.2.12.85-.22,1.05-.51a22.55,22.55,0,0,0,1.33-2.53c2.17.82,3.8,2.53,6.38,1.51,1.85-.74,4.11-.42,6.27-.58,0-2.72-1.81-2.53-3.26-2.56-3-.05-6-.08-9,0a40.7,40.7,0,0,0-4.73.65Z"/><path class="cls-2" d="M114.76,300c-.24-4.34-.24-4.34-7-4.84a6.92,6.92,0,0,0-.67-2.32,3.35,3.35,0,0,0-2-1.22c-.33,0-1,.88-1.2,1.47-.91,2.77-.88,2.77,2,3.31a2.8,2.8,0,0,1,1.23.61,15.45,15.45,0,0,0,6.93,3.19C114.19,300.26,114.42,300.12,114.76,300Z"/><path class="cls-2" d="M61.11,51.94c.83.52,1.44.9,1.64,1.05,2.87-1.25,5.47-2.29,8-3.52.44-.22.5-1.19.72-1.87,1.1-.4,2.69-1,4.27-1.6-.06-.29-.12-.6-.19-.89A10.51,10.51,0,0,0,73,44.92c-1.78.3-3.51.82-5.27,1.22-1.14.25-2,.65-2.19,2,0,.38-.75,1.07-1,1C62.22,48.58,62.19,50.67,61.11,51.94Z"/><path class="cls-2" d="M37.47,275.4,33,274.06a3,3,0,0,0-3.4-2.1c-.42,0-.86-.68-1.35-.9s-1.29-.26-1.86-.51a17.54,17.54,0,0,1-1.93-1.11c-.42.22-1.14.6-1.85,1,1.24,2.93,6,5.25,9.74,4.7l1.56,3.5c1.24-.85,2.49-1.68,3.76-2.52Z"/><path class="cls-2" d="M92.09,275.6c-.75,1.36-1.25,2.28-1.85,3.35,1.54,1.33,2.78,3.47,5.54,2.64a1.07,1.07,0,0,1,.82.17c2.13,1.7,4,1.34,5.61-.88-.7-1.67-2.19-2-3.87-2.34a12.76,12.76,0,0,1-3.1-1.44Z"/><path class="cls-2" d="M157.42,82.3c-1.46,1-1.71,1.6-.41,3S159.12,89,160.1,91a27.39,27.39,0,0,0,2.23,4.35c.54.68,1.89.7,2.71,1,2-3.38-1.46-4.55-2.37-6.7A27,27,0,0,0,159.93,85,27.54,27.54,0,0,0,157.42,82.3Z"/><path class="cls-2" d="M29.71,261.26c1.33.68,2.61,1.38,3.89,2,1.89,1,3.75,2,5.66,2.9a6.85,6.85,0,0,0,2.53.64,1.65,1.65,0,0,0,1.27-.95,1.76,1.76,0,0,0-.72-1.45c-1.87-1.36-3.38-3.33-6.19-3.09a5.37,5.37,0,0,1-3.22-1.49C31.2,258.4,30.57,259.35,29.71,261.26Z"/><path class="cls-2" d="M114.35,284.81l-8.72-2.17c-.76.43-1.51.84-2.26,1.28-.34.18-.82.34-.92.63s0,1.12.18,1.23a32.9,32.9,0,0,0,3.62,1.38c.75.23,1.59.24,2.33.53C111.65,288.84,112.83,288.31,114.35,284.81Z"/><path class="cls-2" d="M158,40a4,4,0,0,0,3.31,3,15.23,15.23,0,0,1,3.52,1.12c1.33.74,2,.45,2.57-.81s1.29-2.43-.48-3.11c-2.36-.89-4.73-1.69-7.14-2.38C158.31,37.41,157.56,38.44,158,40Z"/><path class="cls-2" d="M1.74,214.2c-1.57.87-1.74,1.78.17,2.67,1.27.56,2.48,1.19,3.7,1.77.28-.39.52-.56.54-.74a59.83,59.83,0,0,1,.27-6.53c.28-1.79-1.46-2-2.89-2-1.18,0-2.62-.21-2.22,1.8C1.48,212.11,1.58,213,1.74,214.2Z"/><path class="cls-2" d="M3.41,239.25a12.1,12.1,0,0,0,2.31.21,7.16,7.16,0,0,0,2.93-.73c.48-.29.86-1.77.59-2a6.63,6.63,0,0,0-2.88-1.79c-1.45-.44-2.9-.25-2.81-2.65C3.62,230.36,2,230.3.23,231,1.33,233.88,2.41,236.68,3.41,239.25Z"/><path class="cls-2" d="M93,288.89c-1.6-2.07-3.3-2.25-5.17-2.75s-4.18.14-5.65-1.85a3,3,0,0,0-2.31-.85c-.7,0-1.33.74-2,1.16.39.58.64,1.47,1.18,1.7a42.06,42.06,0,0,0,5.76,2c2,.5,4.13.81,6.21,1.11A7,7,0,0,0,93,288.89Z"/><path class="cls-2" d="M57.06,65.07c.14-1,.29-2.12.54-4-1.24.32-2.32.33-3,.85-1.77,1.24-3.34,2.75-5,4.11a8.58,8.58,0,0,1-1.47.84c-.63.32-1.49.48-1.85,1S46,69.27,45.85,70c.67,0,1.51.33,2,0,2.19-1.32,4.25-2.87,6.44-4.2A10.91,10.91,0,0,1,57.06,65.07Z"/><path class="cls-2" d="M176.62,256.82c1.09.36,1.79.66,2.54.85a15.66,15.66,0,0,0,2,.23c0-.89-.05-1.81,0-2.71a8.6,8.6,0,0,1,.34-1.82,19.56,19.56,0,0,0,1.21-3.68c.09-.8-.57-1.67-.89-2.51-.61.36-1.46.57-1.78,1.1a53.48,53.48,0,0,0-3.06,5.8A9.14,9.14,0,0,0,176.62,256.82Z"/><path class="cls-2" d="M128.54,306.1c-.15-1.69.09-3.54-.54-5-.78-1.86-2.7-2-4.56-1.4-.93.29-2.39.27-2.71.88-1.19,2.15.23,4.14,2.79,3.87,1.91-.17,3.85-1,4.51,2.16Z"/><path class="cls-2" d="M64.88,301.47c2.27,1.26,4.53,2.52,6.8,3.76a3.55,3.55,0,0,0,1.12.34c.56.1,1.51.34,1.67.11a5.32,5.32,0,0,0,.43-2c-.55.06-1.11.18-1.65.21-.71.05-1.4,0-2.1,0,0-.65.1-1.31.18-2,0-.12.18-.25.19-.39,0-1.05,0-2.14,0-3.21-1,.37-2.08.72-3.13,1.11s-2.13.88-3.2,1.32C65.08,301,65,301.25,64.88,301.47Z"/><path class="cls-2" d="M186.6,216.43a31.5,31.5,0,0,0-4.36,12.19c1.48,1.16,2.67.68,3.29-1.72a60.51,60.51,0,0,1,1.87-7.24C188,218.07,187.32,217.34,186.6,216.43Z"/><path class="cls-2" d="M93.57,289.8c1.67.4,2.11,3.09,4.5,2.44a23.22,23.22,0,0,1,1.07,2.56L102,295c-.7-1.36-1.12-2.2-1.44-2.81.32-.49,1-1.22.91-1.49a4.13,4.13,0,0,0-1.65-1.61A20.53,20.53,0,0,0,97.12,288C95.32,287.25,94.14,287.85,93.57,289.8Z"/><path class="cls-2" d="M165.77,75.94A58.47,58.47,0,0,1,161.12,70a67,67,0,0,1-3.28-7.1c-1.13.92-2,1.66-3.08,2.54,1.89,1.67,3.6,3.19,5.28,4.72a1.13,1.13,0,0,1,.34.76c-.28,3,2.54,3.61,4,5.23C164.5,76.3,164.93,76.11,165.77,75.94Z"/><path class="cls-2" d="M83.8,41.61c3.93,1.1,7.21-.08,6.62-3.09-1.61.68-3.11,1.32-4.62,1.92a21.51,21.51,0,0,1-2.36.74c-2,.53-4,1-6,1.63-.38.11-.52.9-.76,1.37C79.7,45.61,81.43,45,83.8,41.61Z"/><path class="cls-2" d="M181.47,23.66c-.51-2.09-1.95-2.44-3.72-2.67-1.33-.17-2.55-1-3.88-1.46a9.33,9.33,0,0,0-2.2-.14c0,.85-.3,1.85.05,2.51C172.67,23.61,179.67,24.78,181.47,23.66Z"/><path class="cls-2" d="M174.29,74.06c-1.16,4.73,1.57,7.78,3.55,11.18,2-.94,2.25-2,1.24-3.59-1.38-2.22-2.56-4.55-3.86-6.79C175.08,74.61,174.78,74.47,174.29,74.06Z"/><path class="cls-2" d="M146.9,79.64c1.29,2.21,2.36,4.3,3.68,6.22A5.61,5.61,0,0,0,153,87.37c.18.07,1-.71,1-1.13a4.17,4.17,0,0,0-.65-2.19c-.89-1.35-1.9-2.62-2.9-3.91C149.57,79,148.5,78.6,146.9,79.64Z"/><path class="cls-2" d="M92.8,261c-1.12,2.56.7,3.89,2,4.8,1.82,1.3,3.82.53,5.33-1.11a3.68,3.68,0,0,0-4-2.33C95,262.41,93.94,261.49,92.8,261Z"/><path class="cls-2" d="M66.59,289.28c1.17-.52,2.37-1,4.11-1.75-.66-.69-1.36-1.49-2.14-2.23s-1.67-1.44-2.81-2.4l-.63.16c-2,.53-2.19,1.08-1,2.82C64.88,287.05,65.77,288.18,66.59,289.28Z"/><path class="cls-2" d="M168.76,14c.7-1.21,1.41-2.44,2.11-3.67-1.33-.57-1.31-3.06-3.32-2.52-.92.23-2.47,1.38-2.38,1.63A32.13,32.13,0,0,0,167.48,14Z"/><path class="cls-2" d="M189.83,225.65a3.1,3.1,0,0,0,3.81-2.9c0-.57,0-1.64.24-1.69,1.55-.34,1.1-1.41.68-2.11s-1.23-.93-1.86-1.38a10.15,10.15,0,0,0-1.45,2.35C190.67,221.73,190.32,223.62,189.83,225.65Z"/><path class="cls-2" d="M170.68,235l-2.92-2.13c-2.38-.35-3.62.78-3.58,3.27,1.14-.19,2.41-.79,3.33-.43.67.27.89,1.74,1.31,2.66-1,.25-1.66.42-2.35.61l1.77,2.09c.9-2.31,1.63-4.22,2.36-6.13Z"/><path class="cls-2" d="M200.27,202.16c2.19,1.4,2.35,1.44,3.16-1.34a16.79,16.79,0,0,0,.36-4.82,1.68,1.68,0,0,0-.94-1.27,1.65,1.65,0,0,0-1.3.81,15.17,15.17,0,0,0-.71,3C200.64,199.67,200.49,200.77,200.27,202.16Z"/><path class="cls-2" d="M6.47,225.18c1.88-.12,1.37-1.78,1.32-2.79-.06-1.52-2.44-2.62-4.18-1.9a2.62,2.62,0,0,0-1.43,2C2.48,224.63,4.3,225.7,6.47,225.18Z"/><path class="cls-2" d="M213.76,131.24a3.94,3.94,0,0,0,.43,1.48,6.06,6.06,0,0,0,1.41,1.06,6.81,6.81,0,0,0,.65-1.6c.2-1.34.28-2.66.38-4,0-.28.22-.67.1-.83-.62-.85-1.27-2.29-2-2.34-1.59-.13-1.14,1.34-1.11,2.39,0,1.29-.07,2.56-.13,3.85A.62.62,0,0,0,213.76,131.24Z"/><path class="cls-2" d="M156.74,47.66c2.7.67,5,1.33,7.43,1.8a2,2,0,0,0,1.36-.94c-.23-.77-.6-1.81-1.2-2.09C161.84,45.32,159.34,45,156.74,47.66Z"/><path class="cls-2" d="M67.81,241.34c1.33,1.36,1.73,3.58,4.17,3.28.6-.07,1.62-.49,1.62-.78a3.87,3.87,0,0,0-.61-2.5,8.87,8.87,0,0,0-2.65-1.7,11.43,11.43,0,0,0-2-.56C68.19,239.8,68,240.53,67.81,241.34Z"/><path class="cls-2" d="M4.47,200.29c-1,1-2,2-3.11,3.1.28,1.3.65,3.07,1.1,5.19,1.8-1.3,3.64-1.66,2.65-4.19C4.65,203.16,6.18,201.35,4.47,200.29Z"/><path class="cls-2" d="M60,295.94c-.43.64-.77,1.12-1.12,1.65a1.62,1.62,0,0,1-.59-.27c-.35-.35-.58-.86-1-1.11-.83-.54-1.68-1-2.53-1.43,0,.9-.45,2.05-.05,2.68a4.38,4.38,0,0,0,2.57,1.79,18.25,18.25,0,0,0,4.33-.14C62.11,298.06,61.64,296.86,60,295.94Z"/><path class="cls-2" d="M202.36,213.5a5.67,5.67,0,0,1,.44-5.06c.4-.78-1-2.48-1.58-3.72,0,0-1.41.43-1.4.6.15,2.49.37,5,.72,7.45C200.57,213,201.44,213.16,202.36,213.5Z"/><path class="cls-2" d="M170.6,234.91c1.41-.08,3,.12,2.91-2.1a2.17,2.17,0,0,1,.9-1.68c1.69-.88.47-2,.42-2.95a8.4,8.4,0,0,0-2.5.86c-2.09,1.5-1,4-1.64,5.93Z"/><path class="cls-2" d="M139,3.44a21.33,21.33,0,0,0,2.38.88,7.33,7.33,0,0,0,3.11.57c.74-.15,1.28-1.2,1.93-1.85-.77-.52-.8-2.24-2.48-1.26-.62.34-1.65-.11-2.46,0a22,22,0,0,0-2.8.88C138.76,2.94,138.85,3.2,139,3.44Z"/><path class="cls-2" d="M126.88,263.68c1.19,3.14,3.83,2.58,6,3.11.21-.17.43-.31.65-.46a12.71,12.71,0,0,0-1.8-2.94C130.12,261.9,128.54,262.91,126.88,263.68Z"/><path class="cls-2" d="M71.8,282.17c.43,2.28,1.52,3.39,3,2.84.91-.34,1.67-1.81,1.92-2.92.21-.9-2.7-1.94-4.07-1.33C72.08,281,71.89,282,71.8,282.17Z"/><path class="cls-2" d="M173,271.54c-1.34-2.26-3.43-2.65-6.2-3,.13,1.16.1,3,.37,3.05,1.25.2,2.17,2.81,3.85.69C171.3,271.86,172.08,271.84,173,271.54Z"/><path class="cls-2" d="M48.51,282.74c-.39,2.62.82,4.35,3.29,4.6-.07-.71-.14-1.4-.22-2.18.82,0,1.52-.06,2.25-.08-.91-2.63-2.2-3.18-5.37-2.26Z"/><path class="cls-2" d="M162.66,60.72c-.33,3,1.9,5.43,4,5.37a16.73,16.73,0,0,1,3,.45A6.26,6.26,0,0,1,170,66Z"/><path class="cls-2" d="M167.25,72.42c.32,1.26.62,2.54,1,3.8.44,1.48,1.94,2,2.79,1.32.59-.46.58-2.49.06-3.35-.61-1-2-1.57-3.12-2.32C167.71,72.06,167.47,72.23,167.25,72.42Z"/><path class="cls-2" d="M88.85,270.08c-.78-1.55,3.88-3.47-.24-4.49-1.13-.28-3.29-.85-3.33,1.48C85.23,269.11,87.15,269.52,88.85,270.08Z"/><path class="cls-2" d="M187.74,243.27c3.37-1.25-.16-5,2.22-6.5-.47-.37-1.05-.78-1.6-1.18C186,238.67,185.72,241.46,187.74,243.27Z"/><path class="cls-2" d="M96.28,300.11c1.14,1,1.76,2.9,3.85,2.41,1-.22,1.87-.48,3-.77-2.64-3.49-3.39-3.6-6.92-1.57Z"/><path class="cls-2" d="M58.37,287.07c-.5,1.06-1.69,2.67-1.36,3.07.92,1.14,2.44,1.79,3.93,2.79C61.62,288.71,61.62,288.71,58.37,287.07Z"/><path class="cls-2" d="M188.88,233.34c3.36-.38,4.21-1,3.67-2.77-.35-1.23-1-2.39-2.63-1.87S188,230.88,188.88,233.34Z"/><path class="cls-2" d="M156.61,288.29a15.81,15.81,0,0,0-2.09-3.32c-.76-.74-3.18.27-3.36,1.32-.09.43.42,1.06.8,1.44a2.86,2.86,0,0,0,1.35.69c.9.19,1.83.23,2.74.34C156.23,288.6,156.43,288.43,156.61,288.29Z"/><path class="cls-2" d="M48.46,282.82a10.31,10.31,0,0,1-1-2.14c-.47-2.23-1.8-2.29-3.42-1.74.09,1.29.16,2.45.23,3.61,1,2.29,2.66-.33,4.19.19Z"/><path class="cls-2" d="M186.93,215.52l1.34.7c.56-1.57,1.1-3.15,1.65-4.72-.76-.23-1.55-.75-2.27-.65C186.37,211.05,186.1,212.81,186.93,215.52Z"/><path class="cls-2" d="M90.36,307.09c.23,2.45-.69,5.51,3.22,5.74C94.13,309,93.38,307.66,90.36,307.09Z"/><path class="cls-2" d="M104,276.72c1.78.55,3,1.34,3.85,1.08s1.46-1.53,2.18-2.36c-1.06-.45-2.14-1.32-3.14-1.2S105.24,275.54,104,276.72Z"/><path class="cls-2" d="M106.27,305.87c.66-1.54,1.08-2.49,1.5-3.45-1-.38-2-1.21-2.83-1-.61.16-1.25,1.65-1.18,2.49C103.8,304.47,105,305,106.27,305.87Z"/><path class="cls-2" d="M47.69,291.72c-.38,1.3-.7,2.41-1,3.63a5.87,5.87,0,0,0,1.87.4,17.52,17.52,0,0,0,2.6-.69,22.52,22.52,0,0,0-1.74-2.48A5.49,5.49,0,0,0,47.69,291.72Z"/><path class="cls-2" d="M193.35,41.54c.83.62,1.49,1.42,2.31,1.61a3.43,3.43,0,0,0,2.61-.46c.95-.87,0-1.76-.75-2.18C195.89,39.51,194.43,39.9,193.35,41.54Z"/><path class="cls-2" d="M112.13,309.66a20.82,20.82,0,0,0,1.31-3.71,2.73,2.73,0,0,0-1.87-.83,11,11,0,0,0-2.65,1.29C109.83,307.34,110.76,308.26,112.13,309.66Z"/><path class="cls-2" d="M165.44,222.18c1.24-1.79,2.35-3.34,3.37-4.94.11-.15-.21-.83-.41-.88a2.6,2.6,0,0,0-1.64,0C165.27,217.25,164.56,219.94,165.44,222.18Z"/><path class="cls-2" d="M45.17,289.76c-2.27-3-2.27-3-4.91.07C42.19,291.55,43.67,291.51,45.17,289.76Z"/><path class="cls-2" d="M41.62,281.73c1.56-3.22-.91-3.77-3.16-4.73C36.82,280.42,41.1,279.87,41.62,281.73Z"/><path class="cls-2" d="M159.26,228.65c2.05-.4,3.85-1,4-3.65,0-.74,1-1.45,1.36-2.71-.5.23-1.18.32-1.45.69-1.32,1.86-2.53,3.8-3.78,5.71Z"/><path class="cls-2" d="M174.09,73.71c-.13-2.78-2-4.27-4.16-6.3C170.06,70.87,171.94,72.38,174.09,73.71Z"/><path class="cls-2" d="M67.37,292.84c-1-.45-2-.9-3.29-1.52-.27,1.64-.48,2.87-.69,4.09l.71.54c1.13-.79,2.25-1.58,3.37-2.34C67.44,293.35,67.42,293.09,67.37,292.84Z"/><path class="cls-2" d="M43.37,259.39c.05,1-.3,2.54.27,3s2.18.41,3.22.16a1.3,1.3,0,0,0-.42-2.18C45.62,260.05,44.75,259.82,43.37,259.39Z"/><path class="cls-2" d="M123.71,2c1.18.42,2,1,2.72.93a12.16,12.16,0,0,0,3.15-1,.88.88,0,0,0,.31-.75,1.13,1.13,0,0,0-.76-.65,29.35,29.35,0,0,0-4.09,0C124.65.65,124.32,1.35,123.71,2Z"/><path class="cls-2" d="M36.82,285.07l-1.56,1.78c.93,1.19,1.35,3,3.53,2C38.89,287.16,39.26,285.39,36.82,285.07Z"/><path class="cls-2" d="M2,250c-1.94,2.26.44,3.83.65,6.22C4.44,252.63,4.18,251,2,250Z"/><path class="cls-2" d="M101.73,307.85c-1.35.64-2.44,1.17-3.58,1.7.6,1.64,1.43,2.63,3.15,1.79S102.14,309.28,101.73,307.85Z"/><path class="cls-2" d="M78.38,304.34c.67,1.5,1.13,2.57,1.8,4.07.71-.71,1.79-1.33,1.77-1.9a3.8,3.8,0,0,0-1.41-2.38C80.17,303.83,79.18,304.25,78.38,304.34Z"/><path class="cls-2" d="M28.32,106.8l-3.9-2c.24,1.62.4,2.74.56,3.87l3.39-.87C28.34,107.49,28.33,107.12,28.32,106.8Z"/><path class="cls-2" d="M181.43,23.67l2.21,3,3-1.74c-.21-.31-.51-1.22-.92-1.27A30.44,30.44,0,0,0,181.43,23.67Z"/><path class="cls-2" d="M178.66,45.8c1.28.32,3.11,1.32,3.74.8,1.43-1.17-.38-2.24-1.13-2.9-1.76-1.53-1.59,1-2.58,1.29Z"/><path class="cls-2" d="M86.91,305.81c-.74-.71-1.22-1.14-1.78-1.66.38-.52.71-.95,1.12-1.5-.24-.33-.46-.91-.74-.94a1.65,1.65,0,0,0-2,2.17C84.15,304.93,84.49,306.64,86.91,305.81Z"/><path class="cls-2" d="M96.24,300.18c-.43-.71-.77-2-1.32-2.08a12,12,0,0,0-3.94.24c-.22,0-.5.84-.41,1.18s.71.58,1.07.55.64-.48,1.13-.89c1,.23,2,1.63,3.51.93Z"/><path class="cls-2" d="M166.43,68.83a23.71,23.71,0,0,0-2.79-1.44,2.81,2.81,0,0,0-.87,1.58c0,.62.68,1.73.93,1.7a13.79,13.79,0,0,0,2.76-1C166.45,69.38,166.46,69.1,166.43,68.83Z"/><path class="cls-2" d="M205,56.4l2.41,1.86a12.59,12.59,0,0,0,1.47-2.3c.07-.17-1.06-1.19-1.47-1.09A8.86,8.86,0,0,0,205,56.4Z"/><path class="cls-2" d="M3.83,259.78c-1.26-.5-2.16-1.18-2.56-.95-.59.31-1.3,1.52-1.11,1.93A3,3,0,0,0,2.26,262C2.58,262,3.05,260.91,3.83,259.78Z"/><path class="cls-2" d="M137.92,299.63c3.13,2.36,4.39,2.36,5-.14C141.24,299.56,139.61,297.84,137.92,299.63Z"/><path class="cls-2" d="M160.9,287.13l-1.4-2.54-.87,0c-.23,1.55-.44,3.08-.66,4.62l.6.09C159.26,288.66,160,288,160.9,287.13Z"/><path class="cls-2" d="M218.81,141c-.31-1.19-.62-2.38-.92-3.58-.57.52-1.69,1.14-1.61,1.48a10.29,10.29,0,0,0,1.51,2.57C218.14,141.35,218.49,141.2,218.81,141Z"/><path class="cls-2" d="M56.83,55.3c2.38-.14,3.27-.93,3.11-3.51-1.42,1.13-2.54,2-3.64,2.85Z"/><path class="cls-2" d="M104.49,313.3c2.28-1.61,2.31-1.74.44-3.21C102.85,310.83,102.75,311.9,104.49,313.3Z"/><path class="cls-2" d="M137.1,0c-.31,1-.62,2.06-.93,3.07.65,0,1.83.08,1.9-.14A13.09,13.09,0,0,0,138.3.1Z"/><path class="cls-2" d="M80.12,302.06c-.85-1-1.4-1.74-2-2.43-.53.91-1,1.73-1.88,3.12Z"/><path class="cls-2" d="M4.12,263.15l2,3.05.75-.11c.09-.88.47-2,.1-2.59C6.72,263.07,5.42,263.26,4.12,263.15Z"/><path class="cls-2" d="M85.76,311.41c-.7-.19-1.37-.38-2.24-.65-.23.83-.44,1.56-.69,2.45C84.42,313.36,85.86,313.78,85.76,311.41Z"/><path class="cls-2" d="M2.31,198c.79-1.14,1.41-2.07,2.23-3.28C1,195.09.71,195.45,2.31,198Z"/><path class="cls-2" d="M209.46,194.86c.25-1.22.47-2.41.75-3.75-2.14.46-2.14.46-1.54,3.55Z"/><path class="cls-2" d="M198.31,44.06c.13.8.27,1.57.42,2.36l1.72-.43c-.31-.77-.61-1.54-.94-2.3Z"/><path class="cls-2" d="M133,304.84l3.52,1.14C135.84,303.65,135.24,303.38,133,304.84Z"/><path class="cls-2" d="M55.12,54.74,53.3,57.1C55.41,58.18,55.77,57.81,55.12,54.74Z"/><path class="cls-2" d="M160.37,9.66a18.8,18.8,0,0,0,2.19-1.13c.16-.13-.11-.83-.18-1.27l-2.55,1.18C160,8.85,160.18,9.25,160.37,9.66Z"/><path class="cls-2" d="M49.14,162.06a15.55,15.55,0,0,0,.56-2.26,8.74,8.74,0,0,0-.12-2.6,2.3,2.3,0,0,0-1-1.48c-.3-.13-1.3.45-1.4.86a23.55,23.55,0,0,0-.5,11.35c.31,1.43-.5,3.06-.64,4.63a17.94,17.94,0,0,0,.38,2.54,16.14,16.14,0,0,1,.23,3.73c-.16,1.56.33,3-.57,4.74-.69,1.38.4,3.68.74,5.53.2,1.1.5,2.17.78,3.26.55,2,1.14,4,1.71,6,.11.46.33.91.44,1.38s0,1,.1,1c2.29.63,2.57,3.11,4.12,4.38a8.34,8.34,0,0,0,2.28.7c-1.47,3.64,1.21,5.27,3.48,7.18.49.42.55,1.31.9,1.93,1.24,2.16,2.43,4.38,3.84,6.45a2.34,2.34,0,0,0,2.14.36c.51-.66,1-2.19.7-2.5-2-2-2.27-4.68-3.57-6.91-1.48-2.52-3.86-4.57-5.07-7.17-1-2.21-4.24-3.17-3.46-6.34.11-.49-.5-1.17-.74-1.75-.34-.83-.66-1.66-.95-2.49-.09-.26.06-.71-.1-.84-1.73-1.29-2.82-2.64-2.39-5.19.31-1.76-.75-3.72-.74-5.61,0-2.69-1.36-5.14-.84-8,.57-3.17.3-6.52.29-9.77C49.71,162.59,49.6,162.49,49.14,162.06Z"/><path class="cls-2" d="M69.69,164.06a8.63,8.63,0,0,0,.62,2.22,1.65,1.65,0,0,0,1.21.63c.35,0,.76-.5,1-.88a1.69,1.69,0,0,0,.14-1.06c-.2-2.64-.46-5.27-.64-7.9-.07-1,.12-2,.08-2.94a3.59,3.59,0,0,0-.38-1.72c-.17-.25-1.07-.43-1.22-.26a2.47,2.47,0,0,0-.73,1.58C69.69,157.35,69.7,161,69.69,164.06Z"/></g></g></g></svg>