<svg xmlns="http://www.w3.org/2000/svg" width="210.42" height="61.38" viewBox="0 0 210.42 61.38">
  <title>Asset 2scroll_bg</title>
  <g id="Layer_2" data-name="Layer 2">
    <g id="Layer_1-2" data-name="Layer 1">
      <g id="itv_a_cofession-longform-bg-desktop" data-name="itv a cofession-longform-bg-desktop">
        <g id="scroll">
          <path d="M204.59,17.83h-9.48c-2.63,0-5.26-.24-7.89-.33a3,3,0,0,0-1,.35,2.77,2.77,0,0,0,.93.45c5,.31,10,.56,15,.92a37.88,37.88,0,0,1,4.62.83c.22,0,.39.29.59.44a3.41,3.41,0,0,0-.62.19c-.24.14-.45.33-.68.49a6.26,6.26,0,0,0,.45.57c.14.16.33.29.49.44a3.21,3.21,0,0,1-.65.37c-1.22.38-2.44.73-3.66,1.1-.15.05-.26.21-.4.32l.34.28a13.09,13.09,0,0,0,1.23,1c1.49,1,1.4,1.42-.41,1.39-.07,0-.13.07-.19.11l.3.15a20.61,20.61,0,0,1,2.58.5c.42.13.73.61,1.08.93-.38.21-.74.45-1.14.64a7.18,7.18,0,0,1-.92.33c.31.18.63.34,1,.49,1.3.47,2.62.89,3.92,1.37.17.06.41.41.38.46-.21.3-.45.72-.75.78-1.86.4-1.35,1-.4,2.07a2.54,2.54,0,0,1,.46,2.24,3,3,0,0,1-2,1.14,16.49,16.49,0,0,1-2.63,0,1,1,0,0,0-.81.47c-.08.2.18.61.4.82a10.72,10.72,0,0,0,1.13.77c.45.33.89.68,1.34,1-.72.38-1.43.82-2.19,1.13a4,4,0,0,1-1.3.12c.39.21.78.44,1.19.63s.65.23,1,.37a6.16,6.16,0,0,1,.78.41,4.27,4.27,0,0,0-.79.48,3.29,3.29,0,0,0-.75.87c-.3.58-.35,1.39-.79,1.78-.86.77-1.66,1.32,0,2a4.51,4.51,0,0,1-.62,1,3.88,3.88,0,0,1-.94.45,7.64,7.64,0,0,1,.77.61c.31.3.59.63.88.94a7.81,7.81,0,0,0-1,.73l-1.06,1c.34.26.64.67,1,.75,1.77.36,2.33,1,1.15,2.74-.39.56-.15,1.54-.24,2.32-.16,1.35-.62,2.4-2.31,2.08-3.53-.68-7-1.52-10.6-2-6.06-.79-12.14-1.4-18.23-2-5.55-.54-11.11-1-16.68-1.44-6-.43-12.07-.73-18.1-1.09-5.66-.33-11.3-.83-17-1-8.13-.19-16.27-.19-24.41-.16S80.7,53.8,72.6,54c-8.34.24-16.66.68-25,1-6.52.28-13,.47-19.56.83-3.13.18-6.23.81-9.35.93-1.19,0-2.9-.37-3.51-1.21a4.16,4.16,0,0,1,0-4.52c.5-.91.22-2.27.27-3.43,0-.85,0-1.72.05-2.57.1-1.38.22-2.76.42-4.13a7,7,0,0,1,.66-2.38,2,2,0,0,0,.13-2.23c-.29-.54.28-1.58.57-2.36.48-1.31,0-1.93-1.3-1.71-4.15.69-8.31,1.39-12.43,2.26C1.36,35-.08,33.69,0,30.83.05,29.21.35,27.59.51,26c.28-2.78.52-5.57.79-8.36a6.44,6.44,0,0,1,.28-1.44c.61-1.81,1.26-3.6,1.88-5.4a.65.65,0,0,0,0-.51C2.17,8.54,2.84,6.76,3.29,5a3.55,3.55,0,0,0,.14-1.68c-.29-1.34.43-1.61,1.5-1.68C9.28,1.25,13.65.85,18,.63,23.19.36,28.35.22,33.51.07,36,0,38.4,0,40.85,0a1.84,1.84,0,0,1,.42.08c-.14.08-.27.21-.42.22-4.06.21-8.14.29-12.2.66-5,.45-9.91,1.14-14.86,1.74a2.41,2.41,0,0,0-.65.35,2.73,2.73,0,0,0,.84.17c4-.34,8-.85,12-1C31.39,2,36.82,2,42.24,1.92c.25,0,.51.23.76.35a2.58,2.58,0,0,1-.75.4c-.78.15-1.58.23-2.36.33a18.86,18.86,0,0,0,2.58.37c5.42.1,10.84.15,16.26.22.42,0,.83.16,1.25.15a5.61,5.61,0,0,0,1-.24,7.22,7.22,0,0,1-.6-.5,1.82,1.82,0,0,1-.24-.43,2,2,0,0,1,.61-.23c2.06-.06,4.12-.18,6.18-.13,5.54.12,11.08.32,16.62.49l22,.64c2.37.07,4.74.15,7.1.13.93,0,1.87-.45,2.78-.38,2.78.24,5.54.72,8.33.91a5.4,5.4,0,0,0,2.81-.72c1.86-1,1.74-.94,4.34.28.91.43,2.28-.08,3.44-.19,1.43-.14,2.84-.33,4.27-.44.19,0,.41.23.62.36a3.75,3.75,0,0,0-.64.16c-.34.15-.66.33-1,.5a6.3,6.3,0,0,0,1,.36c3.8.46,7.61.06,11.46.87,4.63,1,9.5.83,14.26,1.12,8.6.54,17.19,1,25.78,1.55,1.34.08,2.68.09,4,.19a2.66,2.66,0,0,1,.93.48c-.33.16-.66.45-1,.45-1.72,0-3.44,0-5.16-.06h-.44a4.1,4.1,0,0,0,.48.1c3.79.47,7.59.93,11.37,1.42.29,0,.54.32.81.48-.28.15-.56.41-.85.42-1.1,0-2.21-.05-3.32-.06a1.58,1.58,0,0,0-.54.22,3.12,3.12,0,0,0,.5.14c2,.24,4,.47,5.91.73a2.5,2.5,0,0,1,.74.39,3.42,3.42,0,0,1-.7.32,5.61,5.61,0,0,1-1.35.23c-4.26,0-8.52.11-12.77,0Q178,13,167.33,12.3c-6.94-.41-13.87-1-20.81-1.48A29.64,29.64,0,0,0,143,11a1.71,1.71,0,0,0-.38.13c.09.08.16.19.25.22a4.57,4.57,0,0,0,1.18.4c2.15.19,4.3.35,6.45.46,3.16.16,6.33.22,9.48.44,1.26.09,2.48.62,3.73.75.75.07,1.56-.43,2.31-.36,3,.26,5.93.68,8.9,1,2,.2,4,.33,5.94.39.9,0,1.83-.35,2.72-.27.73.06,1.4.7,2.12.77,6.54.62,13.09,1.17,19.64,1.77a11,11,0,0,1,2.12.63l-2.13.41c-.26.05-.53.08-.8.12ZM99.84,4.36c.82.08,1.64.18,2.47.23a2.35,2.35,0,0,0,.7-.2,2.15,2.15,0,0,0-.61-.18c-.86,0-1.71.1-2.57.15-2.19-.17-4.39-.36-6.59-.52a1.69,1.69,0,0,0-.57.2,2.39,2.39,0,0,0,.58.22ZM81.38,8.52V8.39a12.29,12.29,0,0,0-1.49-.07,5.63,5.63,0,0,0-1.13.27A4.26,4.26,0,0,0,79.89,9a26.63,26.63,0,0,1,2.82-.08c2.05.2,4.1.82,6.12.72,2.19-.1,4.2-.66,6.5.23,1.68.66,3.88-.62,5.78.46.09.05.29-.06.44-.1a8.29,8.29,0,0,1,1.75-.43c1.45,0,2.91.16,4.36.16a6.17,6.17,0,0,0,1.59-.39l-1.43-.47h-.23c-4.58-.2-9.17-.38-13.76-.61C91.67,8.36,89.51,8,87.36,8,85.36,8,83.37,8.33,81.38,8.52ZM40.64,8l-.14-.36L38.84,8a10,10,0,0,0,1.62.28c4.84.1,9.68.15,14.52.27.65,0,1.3.46,1.94.44,1.71-.05,3.41-.28,5.11-.38,1.25-.07,2.51,0,3.76,0,.13,0,.25-.14.38-.22a1,1,0,0,0-.26-.12c-2.64-.35-5.28-.84-7.94-1-1.95-.11-3.93.27-5.9.32-1.73,0-3.46,0-5.19-.11A33.09,33.09,0,0,0,43.16,7,9,9,0,0,0,40.64,8Zm81.92,2.49v.16l3.53-.32a7.07,7.07,0,0,0,1-.14,4.22,4.22,0,0,0-1-.27q-5.88-.26-11.77-.47a2.18,2.18,0,0,0-.69.24,2.68,2.68,0,0,0,.72.25c2.75.15,5.48.32,8.21.5Zm56.18-1.8V8.57l8,.47a4,4,0,0,0,.77-.09,1.87,1.87,0,0,0-.65-.27c-4.52-.27-9-.51-13.57-.75a1.87,1.87,0,0,0-.51.11,1.94,1.94,0,0,0,.58.28c1.8.12,3.64.21,5.38.32ZM162,7.21V7.3h-2.39a1.14,1.14,0,0,0,.25.06l9.31.45h0Zm-25.12,3.87h0c.33-.06.65-.15,1-.23a6.61,6.61,0,0,0-1-.23l-5.58-.33a2.2,2.2,0,0,0-.6.15,2.21,2.21,0,0,0,.59.26l5.57.38ZM105.43,4.33h-.57a7.62,7.62,0,0,0-.81.14,5,5,0,0,0,.85.2c1.14.1,2.28.18,3.43.23a2.73,2.73,0,0,0,.75-.17,5.12,5.12,0,0,0-.68-.14C107.41,4.49,106.42,4.41,105.43,4.33Zm-35.2-.61h3a2.45,2.45,0,0,0-.39-.08c-1.78-.09-3.57-.18-5.35-.25a1.43,1.43,0,0,0-.46.17,1.4,1.4,0,0,0,.48.18Zm-.41,4.43-1.55.21c.39.16.8.48,1.18.46a8.85,8.85,0,0,0,1.84-.46Zm50.85-2.82,2.44-.16L121,4.92h-.11L119.57,5ZM78.72,3.67a12.55,12.55,0,0,0,1.48.21,2.33,2.33,0,0,0,.69-.17ZM83.58,4l.82-.08a4.12,4.12,0,0,0-.78-.23,3.19,3.19,0,0,0-.75.08Zm5.11.17L89.14,4a1.93,1.93,0,0,0-.67-.25,8.47,8.47,0,0,0-1.22.15Zm5.84,9a4.5,4.5,0,0,0-.82-.22,3.41,3.41,0,0,0-.53.13,2.11,2.11,0,0,0,.52.26,3.34,3.34,0,0,0,.83-.13Z"/>
        </g>
      </g>
    </g>
  </g>
</svg>
