<svg viewBox="0 0 201.58 56.13" xmlns="http://www.w3.org/2000/svg"><path d="m19.21 43.26c.69-.14 1.42.08 1.27.93-.27 1.48.13 3-.06 4.41a10.63 10.63 0 0 0 .4 4.13 4.32 4.32 0 0 0 6.71 2.63 17.13 17.13 0 0 1 4.54-1.77c5.23-1.49 10.69-1.3 16-2 4.13-.58 8.38-.28 12.5-.89s8-1 12-1.64c5.74-.87 11.53-1.45 17.27-2.32 2.14-.32 4.33-.11 6.42-.61 1.88-.44 3.8-.61 5.68-1 3.26-.63 6.57-.89 9.85-1.43s6.81-1.32 10.21-1.7c3.21-.37 6.37-1 9.54-1.55 5.07-.87 10.1-1.92 15.18-2.75 3.69-.6 7.44-.92 11.09-1.81 7-1.71 14.14-2.28 21.27-3.05 1.79-.2 3.65.2 5.38-.58l.28-.1h.3.28c1.53 0 3 0 4.58.08 2.59.1 5.17.55 7.77.25a3.63 3.63 0 0 0 3.33-3.74 21.3 21.3 0 0 1 .2-2.87 50.47 50.47 0 0 0 .25-10.63 92.39 92.39 0 0 0 -1.27-11.91c-.59-2.85-2.41-4.14-4.79-2.82a6.07 6.07 0 0 1 -3.48.71c-1.56-.11-3.09.15-4.62.07s-3.25.47-4.87.36a140 140 0 0 0 -17.74.14c-5.77.32-11.56 0-17.31.67-.42 0-.86-.08-1.3-.07a60.48 60.48 0 0 0 -6.6.18 22.81 22.81 0 0 1 -3.85.43 88.91 88.91 0 0 0 -9.52 0c-6.15.32-12.28.81-18.4 1.58a76.51 76.51 0 0 1 -9 .61c-5 0-9.89.83-14.83 1.29-2.21.21-4.5.07-6.62.61-5.59 1.44-11.38 1-17 2.25-4.72 1-9.67.73-14.46 1.62-3.3.61-6.62 1.09-9.91 1.82a29 29 0 0 1 -7.69 1.06c-4.63-.26-9 1.24-13.63 1.15-3.24-.06-6.46.81-9.75.37-2.09-.27-4 .81-4.12 2.51-.23 3.29-1 6.58-.53 9.9.84 5.39 1.84 10.73 2.73 16.07a1.77 1.77 0 0 0 1.48 1.6c1.36.18 2.76.57 4.12-.07 3.39-1.61 7.15-1.38 10.72-2.12zm152-13.48-.28.07z"/></svg>