<svg xmlns="http://www.w3.org/2000/svg" viewBox="0 0 391.9 201.13"><title>interest_quote</title><g id="Layer_2" data-name="Layer 2"><g id="itv_a_cofession-longform-bg-desktop"><path d="M4.71,169.19c-.38,7.73-1.38,16.07,2.27,23.22a8.29,8.29,0,0,1,.29,3.53c-.16,3.89,1.36,5.15,3.67,5.18a23.7,23.7,0,0,0,3.46-.26c15-1.89,30-3.6,45-3.26,19.26.43,38.51,1.08,57.77.93,4.29,0,8.61-.84,12.86-.38,11.46,1.23,22.94.66,34.4.95,7.23.17,14.51.44,21.79-.48,6.52-.82,13.13-.4,19.7-.19,4.65.15,9.23-1.37,13.83-1.11,7.53.43,15,1.37,22.52-.7a4.62,4.62,0,0,1,1.95-.16c10.88,1.71,21.78.47,32.66.47,10.71,0,21.42-.8,32.14-.22,5.27.29,10.56.06,15.84,0a2.24,2.24,0,0,0,2.5-1.81c.52-2.28-1.23-2.35-1.89-3.5,1.42-1.74,2.87-3.58,4.82-3.3,4.67.67,9.21-1.35,13.84-1.21,8.1.23,16.07-1.33,24-3.36,1-.25,2.21-.19,2.54-1.75.9-4.37,3-6.05,5.9-6.5a2.51,2.51,0,0,0,1.9-2c1-3.65,3.1-3.66,5.34-3.86,3.78-.33,5.25-2.67,5.52-8.23a25,25,0,0,0-.16-4.33c-.76-6.09-.62-12,1.51-17.55.82-2.14.86-4.61,1.09-7,.39-4.11-.74-6.51-3.39-7.53a31.9,31.9,0,0,0-4.33-1.45c-3.1-.7-6.24-1.08-9.32-1.88-3.94-1-4.53-1.88-4.3-7.6.56-14.71.22-29.5,1.81-44.13.4-3.73.24-7.88-2.63-9.18-3.56-1.62-3.37-5.15-3.13-9.14.67-11.11-.14-22.25.48-33.38.28-4.93-.57-5.87-3.82-6.74a43.25,43.25,0,0,0-6.37-1.34,537,537,0,0,0-58.47-3.12c-35.2.14-70.4.46-105.61-.78-20.64-.72-41.31-.42-62-1.47C114.6,3.68,98.41,2.61,82.22,1.9c-12-.52-24.1-1.71-36.17-.85-5.62.41-11.2.64-16.78-.85C24.85-1,21.54,3.08,21.21,9.64a24.73,24.73,0,0,0,1.12,8.47c2.74,9.07,2.19,19,3.4,28.45.54,4.15-.4,5.09-3.5,6-4.34,1.25-8.53,3.11-13.09,3.17-4.84.06-6.85,4.11-5.5,10.55A155.77,155.77,0,0,1,6.76,96.82c.07,7.21,0,14.48-4.2,20-2.55,3.37-3.12,7.46-2,12.53C3.3,142.27,5.4,155.3,4.71,169.19Z"/></g></g></svg>