<svg xmlns="http://www.w3.org/2000/svg" viewBox="0 0 551.79 221.3"><title>investigation_quote</title><g id="Layer_2" data-name="Layer 2"><g id="itv_a_cofession-longform-bg-desktop"><path d="M2.17,164.7a13.8,13.8,0,0,1,.43,8c-.44,1.85-1.86,4.16-.46,5.8,3.67,4.31,2.83,8.93,2,13.66a2.53,2.53,0,0,0,.8,2.65c-.14.64.32,1,.83,1.25l.86,1.36h0c0,.73,0,1.47,0,2.2-.56.31-1.11.67-1.7.93-1.39.6-2.74,1.42-1.79,2.9s1.08,4.31,4.41,2.68a2.07,2.07,0,0,0,2.08-.62l3.71-.65c.67.36,1.09,0,1.47-.44l.67,0a8.65,8.65,0,0,0,5.46-.31H23.9c2.91.18,5.81.4,8.72.5a6.62,6.62,0,0,0,3.41-.27A14.82,14.82,0,0,1,48,203.87a5.47,5.47,0,0,0,3.68-.06c2.9-1,6-1,9-1.38,4-.49,8,.06,12.05.17,6.43.16,12.85-.53,19.29-.15a25,25,0,0,0,7.76-.63c.75-.19,1.64-.27,1.74-1.12.12-1-.94-.84-1.61-1.06a9,9,0,0,0-3.71-.41c-6.09.61-12.16-.94-18.34.07-2.86.46-6-.38-9.11-.08-3.76.35-7.81,1-11.69-.33a5.35,5.35,0,0,0-4.16.66c-7.22-1.41-14.55-.08-21.79-.71-.54-.58-1.07-1.16-1.61-1.73,3.54-.12,7.09-.19,10.63-.36,6.13-.29,12.31.57,18.41-.63a12.25,12.25,0,0,1,4.56-.49c6,1.06,12.05-.18,18.1.18,3.67.21,7.49.6,11.16-.5,6.09,0,12.12,1.36,18.26.52a21.61,21.61,0,0,1,4.89,0c10,1,20,.52,30,.94a1.12,1.12,0,0,0,1.2-.56c.7-1.79,2.55-2.11,4.18-2.71l1.18-.05c1.22.85,2.43.38,3.63,0a6.48,6.48,0,0,0,3.91.52c5.51-.3,11,.34,16.49.54s11.11,1.08,16.64-.13a.82.82,0,0,0,1.23.29l1.45.32c-1.57,3.05-1.49,3.15,2.29,3.05,1.25,0,2.49.06,3.74,0,.76,0,2.07.31,1.19-1.13-.33-.55-.33-1.07.37-1.25s1,.35,1.09.89c.28,3.18,2.86,1.12,4.31,1.46,1.73.4,2.09-.74,1.9-2.05,2.46-.69,4.92-.29,7.37,0,3.31,4,3.5,4,7.94.69a3.44,3.44,0,0,1,3.31-.13c.45.15.93.32.93.86,0,1-1.32.46-1.88,1.72,18.25.81,36.18,2.9,54.6,1.88-.85-.94-1.58-.53-2.2-.65s-1.61.08-1.64-.69c-.05-1,1-.87,1.74-.82,1.73.13,3.45.34,5.17.6.78.12,1.89-.37,2.28.65.54,1.38-1.48.86-2,2.1,2.34-.88,5.27,1.82,6.47-1.81.09-.29,1.21-.39,1.87-.42a12.61,12.61,0,0,1,4.53.69c-.06.85-1.66,1-1.09,2s1.57.34,2.39.41a61.34,61.34,0,0,1,7.47.64c7.43,1.58,15.06,1.55,22.59,2.39,10.36,1.15,20.88.88,31.26,2.09.61.07,1.54.27,1.61-.62.14-1.71,1.48-1.24,2.56-1.27,4.09-.13,8.17.84,12.28.15l.92.09a1.15,1.15,0,0,0,1.47.57l7.43,1a3.53,3.53,0,0,0,2.35.37l2.31,0a.88.88,0,0,0,1.2.43l17.91,2.91c.4.53.82.56,1.25,0l3.42.15c4.63,1,9.08,2.8,14,2.6l1.65,0a21.27,21.27,0,0,0,6.42.19c5.25,1.8,11,.35,16.27,2,3,.52,5.62,2.11,8.78,1.77a2.48,2.48,0,0,0,1.74,0,51,51,0,0,0,12.78,2,1.76,1.76,0,0,0,1.55,0,3.74,3.74,0,0,1,.6-.53,3.37,3.37,0,0,0-.6.54c1.81,1.23,3.84.42,5.6.16,4-.58,7.81,1.33,11.83.39,1.73-.4,2.7-1.21,2.59-2.54-.13-1.54-1.49-2.24-3.28-2.16a34.86,34.86,0,0,1-11.89-1.48c-.88-.26-1.82-.35-1.44-1.43.3-.88,1.06-1.12,2.08-.86a5.59,5.59,0,0,0,2,.22c5.24-.65,10.13,1.32,15.09,2.09,10.69,1.65,21.24,3.9,32.19,3,.86-.07,2.55.29,2.36-1.22-.3-2.3,1.68-5.09-1.64-6.82a.78.78,0,0,1-.3-.7c.77-3-1.63-3.2-3.82-3.56-1.06-.18-2.32-.17-2.1-1.55.25-1.58,1.48-.76,2.46-.7,6.17.34,12.53,1.4,17.61-3.17,1.06-.48,1.48-1.44,2.12-2.24.91-.34,1.3-1,1-1.8a1.67,1.67,0,0,0-2.24-.85l-1.13-.27c-3.18-1.12-6.66-1-9.9-1.92l-1.5-.45h0l-1.66-2.77a.32.32,0,0,0-.18-.29c.18-2.34-2.53-3.28-3.13-5.37-1-3.43-.78-3.69,3.07-3.33,2,.18,4.45,1.38,5.88-1.13a1.28,1.28,0,0,0,1.17-1.06,4.92,4.92,0,0,0,2.45-3.47c.94-.82,2-1.63.3-2.69l-.76-.44c-1.43-1.14-3.22-1.16-5-1.28l-1.46-.74a2.87,2.87,0,0,0-1.72-.86c-4.19-1.13-8.35-2.35-12.58-3.36-3.84-.93-7.54-2.41-11.59-2.58l-1.13-.12c-1.94-1.6-4.56-1-6.8-1.63-1.3-.38-2.5-1.13-1.65-2.06,2.29-2.49.5-4.33-.82-6.2-1.17-1.65-.46-2.23,1.29-2.32a7.84,7.84,0,0,0,4.27-1.29l1.4-.34c.79,0,1.13-.31,1.14-1,1.48-2.24,2.7-4.53,1.38-7.21.43-2.55.37-5.22,2.87-7.16a2.33,2.33,0,0,0,.63-2.39,18.49,18.49,0,0,0,2.73-6c.38-1.71-.17-2.89-2.31-3.18s-4.37-.69-6.57-1a6.43,6.43,0,0,1-3.91-1.49c-1.21-1.23-1.79-2.48.71-3a5.27,5.27,0,0,0,3.86-3.21c1.49-3,2.29-6.08,1.07-9.32-.45-1.19-.55-2.57.59-3.07,3.29-1.42,3.54-4.45,4.69-6.89.74-1.58,1.6-3.66-.09-5.43-2.1-2.21-1.26-5.14-2.28-7.62-.21-.51.27-1,.74-1.33,4-2.65,4.8-6.62,5.21-10.58A36.75,36.75,0,0,1,522,57.7c2-4.38.36-6.69-4.7-7.5-2.66-.43-5.37-.47-8-1.27-2-.62-2.37-1.29-1.25-3,2.31-3.48,4.22-7.1,2.13-11.32-.57-1.13.42-1.94,1.11-2.78a13.62,13.62,0,0,0,3.57-8.61c0-3.08-1-4.35-4.43-3.81-5.68.91-11.18,0-16.65-.86-11.53-1.75-23.11-3.17-34.72-4.16-17.72-1.5-35.39-3.45-53.14-4.61-7.36-.48-14.74-1-22.13-1.25-10.6-.33-21.22-.71-31.79-1.34-12.14-.71-24.28-1-36.42-1.52C302.28,5.15,289,4.49,275.72,3.88l-15.3-.74c-10-.48-20-1-30.06-1.39-9.73-.35-19.48-.37-29.22-.75-19.48-.78-39-.8-58.47-1-8.77-.08-17.54.14-26.31.13A322.25,322.25,0,0,0,82,2.43C75,3.18,67.89,4.09,60.76,4.53c-5.34.34-10.53-1.08-15.87-.33-3.31.46-4.09.84-4,3.82A32.08,32.08,0,0,1,40,18.6a8.81,8.81,0,0,0,.25,5.92,9.25,9.25,0,0,1,.57,5.14,7,7,0,0,0,1.89,6.1,12.59,12.59,0,0,1,3.07,7.09c.25,1.63,0,2.82-2,3.14-2.62.42-4,1.87-3.89,4.14.07,2.54.36,5.15,3.68,6.18A8.2,8.2,0,0,1,47.05,59a2.33,2.33,0,0,1,0,3.15c-.72,1-1.72.84-2.81.57-3.77-.92-7.68-.68-11.52-.93-3.37-.22-7.58,3.9-7.11,6.61,1.25,7.18.34,14.38.49,21.58,0,2.38-1.65,3.61-4,4.13-6.21,1.36-8.24,4.18-6.93,9.86.69,3,1.53,6,.63,9-1.52,5,.27,10.21-1.3,15.21-1.8,5.74,1.45,11.43.16,17.29-.71,3.27,2.48,4.82,6.18,3.72a28.58,28.58,0,0,1,3.93-.84c1.68-.24,3.21-.07,3.28,1.92.06,1.69-.52,2.85-2.79,2.81-3.38-.06-6.77,0-10.15.06-2.71,0-5.33.07-7.87-1.18s-4,1.16-5.83,2c-1.55.7-1.65,2.37-1,3.73C1.38,159.93,1.33,162.38,2.17,164.7Zm150.94,20.77c-1.08-.31-3.05.26-2.81-1s2.36-1.45,3.83-1.61c1.05-.11,2.52.23,2.39,1.28C156.29,186,154.31,185.14,153.11,185.47Zm9.4.7-.55-.23c-.43-.68-.36-1.68-1.89-1.41s-.31-.72-.42-1.12h0l1.13-.14h0l5.12.6c.72.08,1.73-.15,1.7.91,0,.77-.8,1.12-1.47,1.48-1.23.66-2.4-.56-3.62-.09a3.62,3.62,0,0,0,3,1.28A3.62,3.62,0,0,1,162.51,186.17ZM404,202.35c-.89,0-.58-.95-.95-1.4-.19-.92.64-.69,1.11-.77s1.29-.12,1.1.69C405.13,201.5,405,202.38,404,202.35Zm-46.31-4.25h0l-.22-.15a.51.51,0,0,1,0,.13c-5.51-.61-10.81-2.38-16-1.65,5.26-.74,10.63,1.09,16,1.52.35-1.54,1.05-.48,1.8-.29C358.54,197.47,357.84,196.41,357.71,198.1Zm-45.5-5.19h-1.09c-1-.4-2-1-3.27-.42a1.4,1.4,0,0,1-1.83-.26c-.81-1.25-1.54-2-2.79-.34-.29.39-.88.28-1.32,0a1.17,1.17,0,0,1-.62-1.1c.06-.72.74-.64,1.28-.78,1.82-.49,3.6.35,5.42.08.83-.12,1.74.22,2.51-.34h0l1.8.33h0c.43.95.9,1.91-.09,2.82a1,1,0,0,0,.59.76A1,1,0,0,1,312.21,192.91Zm32.27.32c.84.33,2.61-.53,2.41,1-.16,1.15-1.78.56-2.75.56-3.35,0-6.7-.07-10.05-.16-1.16,0-2.53-.26-2.51-1.55s1.46-.8,2.28-.8c1.9,0,3.79.18,5.69.29a1.6,1.6,0,0,0-.2-.46,1.67,1.67,0,0,1,.2.45l4,.17A5,5,0,0,0,344.48,193.23Zm-18.91-1.67a2.16,2.16,0,0,0-.51-.36,2.16,2.16,0,0,1,.51.36l1.13-.08c.56.48,1.52,0,2.15.83-1,.35-1.34,1.69-2.66,1.28C325.2,193.28,325.72,192.26,325.57,191.56Zm-39.23-.91c-1.28-.38-2.92-.17-4-1.35-.08-.09.12-.56.27-.6a6.71,6.71,0,0,1,4.15.33c.59.23,1.5.26,1.36,1S287.06,190.46,286.34,190.65Zm-12.23-42.29c-2.17,1.51-4.62.26-6.92.36-1,.05-.62-1-.46-1.65H271C272,147.63,273.38,147.16,274.11,148.36Zm-19.35-2.65c.63.14,1.27.24,1.91.33C256,146,255.39,145.85,254.76,145.71Zm-27.57-.37c.48.07.87.31.85.82a1.1,1.1,0,0,1-.84,1c-.77-.2-1.16-.53-1.16-1.1S226.59,145.26,227.19,145.34ZM267,187.2h0l3.49.24a4.69,4.69,0,0,0,.89.58c.67.27,2.07-.32,1.87,1s-1.25,1-2.43.91-2.4-.19-3.6-.34-2.3-.38-2.3-1.49S266.44,187.85,267,187.2ZM339.31,192a1.76,1.76,0,0,0-.91-.6A1.76,1.76,0,0,1,339.31,192Zm-3.65-40c.65.14,1.84-.27,1.77.73s-1.11,1.38-2.13,1.29-2.23.52-3-.29-.14-1.77.41-2.58h2.11C334.83,151.61,335.11,151.84,335.66,152Zm-19.23,38,1.4-.07-1.4.07-1.44.09ZM371,154a18.51,18.51,0,0,1,4.5.88l1.12.24c0,.17,0,.34,0,.51-.08,1-.7,1.58-1.86,1.5-.72,0-1.36-.41-1.37-1.09,0-1.36,1.46-.71,2.15-1.16A18.51,18.51,0,0,0,371,154Zm43.92-16h0c1.27.83,2.69.35,4.05.38a.56.56,0,0,0,.35.15c1.61,0,3.23.23,4.83.12-1.6.11-3.22-.1-4.83-.12,0,1.94-2.19,1.7-3.26,2.57h0c-.86.07-1.75.24-2.28-.64-.13-.74-1.32-1.39-.22-2.22h0ZM162.82,182.25a3.31,3.31,0,0,0-.82-.06A3.31,3.31,0,0,1,162.82,182.25Zm38.9,2.33c-.06.72.68,1.6-.3,2.09a2.41,2.41,0,0,1-1.61-.26c-1.24-.56-.25-1.31-.13-2ZM215.2,186c-.39-1.57,1.82-.68,2.47-1.47h.87c.32.57.67,1.07,1.48.52l1.39,0h0c1,1,2,1.32,2.83-.12l1.1.36c-.16,1.57-1,2.18-2.86,2.16-1.49,0-2.79-.72-4.24-.6C217,187,215.46,187.08,215.2,186Zm18.12,2.57c-1.35-1.26-.92-2.23.6-3h0l.9,0a50,50,0,0,1,7.44-.12,50,50,0,0,0-7.44.12c1.6,1.54,3.66.32,5.46.73,1.21.27,3.21-.17,2.74,1.72-.38,1.51-2.21,1.15-3.44.9-1.53-.31-2.93-1.52-4.54-.24,1.36,1.53,3,1.6,4.7,1.45-1.69.15-3.34.08-4.7-1.44Zm134.45,9.25a36.52,36.52,0,0,1-8-1.35,1.78,1.78,0,0,1-1.56-1.51,25.63,25.63,0,0,1,8.35.33,7.91,7.91,0,0,0,4.89-.68,4.68,4.68,0,0,0-.05-.55,4.68,4.68,0,0,1,.05.55l.19.1C371.88,197.31,369.49,197.86,367.77,197.86Zm39,2.13,3.77.33,1.24,1c.45.35.84.75.56,1.31a1.25,1.25,0,0,1-1.48.47c-1.94-.39-4.22-.49-4.09-3.11l-.14-.25Zm74.45,13.14c-.54,1.13-1.65.5-2.51.57-2.09.37-3.55-1.08-5.38-1.5a1,1,0,0,1-.61-1.29c.2-.5.78-.37,1.23-.42,2.51-.32,4.62.73,6.79,1.57A.75.75,0,0,1,481.25,213.13ZM451,145.75c-.81,0-1.28-.32-1.27-1.09,0-.94.7-1.14,1.55-1.12s1.45.15,1.35,1S451.79,145.66,451,145.75Zm-285.4,41.7a4.67,4.67,0,0,0,1.34-.35A4.67,4.67,0,0,1,165.55,187.45Zm195.87,19.93a1,1,0,0,1-1.05-1c0-.47.38-.57.76-.55a1.16,1.16,0,0,1,1.09.76C362.17,207.25,361.8,207.41,361.42,207.38Zm84.9,1c.23-.72-.65-1-.87-1.81,3.82,0,7.52,0,11.13,1.1,1.59.48,3.18.73,4.7-.22.49-.3,1.09-.63,1.38.12.53,1.39,1.92,1.55,3.16,1.93.53.17,1.3.11,1.07.87s-.89.33-1.44.34c-1.48,0-3.32-1.86-4.37.61h0l-1.84.09h0c-.15-.71-.59-1-1.41-.82a.52.52,0,0,0-.45-.14h0c-.17-.29-.29-.79-.52-.83-3.32-.58-6.58-1.62-10-1.13A.68.68,0,0,0,446.32,208.36ZM386.11,19.17a11.5,11.5,0,0,1-3.07-.29h0A11.5,11.5,0,0,0,386.11,19.17Z"/></g></g></svg>