<svg xmlns="http://www.w3.org/2000/svg" viewBox="0 0 530.1 257.92"><title>pursuit_quote_stroke</title><g id="Layer_2" data-name="Layer 2"><g id="itv_a_cofession-longform-bg-desktop"><path d="M2.09,192a19.36,19.36,0,0,1,.4,9.27c-.41,2.15-1.78,4.84-.43,6.76,3.52,5,2.71,10.4,1.92,15.91A3.32,3.32,0,0,0,4.75,227c-.14.75.3,1.12.79,1.45l.83,1.6h0c0,.85,0,1.7,0,2.56a17.84,17.84,0,0,1-1.64,1.08c-1.33.7-2.62,1.65-1.72,3.38s1,5,4.25,3.13a1.79,1.79,0,0,0,2-.73l3.56-.75c.65.42,1.06,0,1.41-.51l.65.05c1.79.74,3.52.28,5.24-.36H23c2.79.21,5.58.47,8.38.58,1.08.05,2.21.33,3.28-.31,3.73-2.25,7.57-2.19,11.46-.54a4.36,4.36,0,0,0,3.54-.08c2.79-1.18,5.75-1.17,8.64-1.6,3.87-.57,7.72.07,11.58.19,6.18.2,12.35-.61,18.54-.16a20,20,0,0,0,7.45-.74c.72-.22,1.58-.32,1.67-1.3.12-1.22-.9-1-1.55-1.24a7.15,7.15,0,0,0-3.56-.48c-5.86.71-11.68-1.1-17.62.08-2.74.54-5.71-.44-8.75-.09-3.62.41-7.51,1.15-11.23-.39a4.4,4.4,0,0,0-4,.78c-6.93-1.65-14-.1-20.94-.84l-1.54-2c3.41-.14,6.81-.22,10.21-.42,5.89-.34,11.83.67,17.69-.74,1.43-.34,2.86-.88,4.38-.56,5.78,1.24,11.58-.21,17.39.2,3.52.25,7.2.71,10.72-.58,5.85,0,11.65,1.59,17.54.61a16.82,16.82,0,0,1,4.7,0c9.58,1.1,19.21.6,28.81,1.1a1.06,1.06,0,0,0,1.16-.65c.67-2.09,2.44-2.47,4-3.17l1.14-.05c1.17,1,2.33.43,3.49,0,1.16.86,2.46.68,3.74.6,5.31-.34,10.57.4,15.85.63s10.67,1.26,16-.15a.72.72,0,0,0,1.18.34l1.39.38c-1.51,3.55-1.43,3.67,2.2,3.55,1.2,0,2.4.06,3.59,0,.74,0,2,.36,1.15-1.32-.32-.64-.32-1.25.35-1.46s1,.4,1,1c.27,3.71,2.74,1.3,4.14,1.69,1.66.47,2-.86,1.83-2.38,2.36-.81,4.72-.34,7.08,0,3.17,4.62,3.36,4.62,7.62.8,1-.87,2.11-.59,3.18-.15.43.17.9.37.9,1,0,1.13-1.28.53-1.81,2,17.53.94,34.75,3.38,52.46,2.19-.82-1.1-1.52-.62-2.12-.76s-1.55.1-1.58-.8c0-1.19,1-1,1.67-.95,1.67.15,3.33.39,5,.69.76.14,1.82-.43,2.2.75.52,1.61-1.42,1-1.94,2.45,2.25-1,5.07,2.13,6.22-2.1.09-.34,1.16-.46,1.79-.5a10.29,10.29,0,0,1,4.36.81c-.06,1-1.6,1.21-1.05,2.28s1.51.41,2.29.49c2.4.25,4.86.14,7.18.74,7.14,1.84,14.48,1.81,21.7,2.78,10,1.34,20.06,1,30,2.44.59.08,1.49.31,1.56-.72.12-2,1.42-1.44,2.45-1.48,3.93-.15,7.85,1,11.8.17l.88.1c.32.61.75.94,1.41.67l7.14,1.14a2.81,2.81,0,0,0,2.26.43l2.22,0c.25.53.62.74,1.15.5l17.21,3.4c.39.61.79.65,1.2,0l3.28.17c4.46,1.13,8.72,3.27,13.44,3l1.58,0a16.65,16.65,0,0,0,6.17.21c5,2.11,10.57.41,15.63,2.35,2.83.6,5.4,2.46,8.43,2.06a2,2,0,0,0,1.67,0A40.79,40.79,0,0,0,458.92,257a1.44,1.44,0,0,0,1.5,0,3.78,3.78,0,0,1,.57-.62,3.78,3.78,0,0,0-.57.62c1.73,1.45,3.68.5,5.38.2,3.84-.68,7.5,1.55,11.36.45,1.66-.47,2.59-1.41,2.48-3-.12-1.79-1.43-2.61-3.15-2.51a28.28,28.28,0,0,1-11.42-1.73c-.85-.31-1.74-.4-1.39-1.67a1.4,1.4,0,0,1,2-1,4.37,4.37,0,0,0,1.91.25c5-.75,9.73,1.55,14.49,2.44,10.28,1.93,20.41,4.55,30.93,3.5.83-.08,2.45.34,2.27-1.42-.29-2.68,1.61-5.93-1.58-7.95a1,1,0,0,1-.29-.82c.75-3.47-1.56-3.73-3.67-4.15-1-.2-2.23-.19-2-1.8.25-1.84,1.43-.88,2.37-.82,5.93.4,12,1.63,16.92-3.7,1-.55,1.42-1.67,2-2.6a1.65,1.65,0,0,0,1-2.1,1.5,1.5,0,0,0-2.15-1l-1.08-.32c-3.06-1.3-6.4-1.17-9.51-2.23l-1.44-.53h0c-.53-1.07-1.06-2.15-1.6-3.22a.38.38,0,0,0-.17-.34c.17-2.73-2.44-3.83-3-6.26-.94-4-.75-4.3,2.95-3.88,1.89.21,4.28,1.6,5.65-1.32.67-.1,1-.58,1.13-1.24a5.89,5.89,0,0,0,2.35-4c.9-.95,1.9-1.9.29-3.13l-.74-.52c-1.37-1.33-3.09-1.35-4.77-1.49l-1.4-.86a2.56,2.56,0,0,0-1.65-1c-4-1.32-8-2.74-12.09-3.93-3.69-1.07-7.24-2.8-11.13-3l-1.09-.14c-1.87-1.86-4.38-1.14-6.54-1.9-1.24-.44-2.4-1.32-1.58-2.4,2.2-2.91.48-5-.79-7.22-1.12-1.93-.44-2.6,1.24-2.71a6.67,6.67,0,0,0,4.11-1.5l1.34-.4c.76.06,1.09-.36,1.09-1.14,1.43-2.62,2.6-5.28,1.33-8.4.41-3,.35-6.09,2.76-8.35a3.11,3.11,0,0,0,.6-2.78,23.76,23.76,0,0,0,2.62-7c.37-2-.16-3.38-2.21-3.71s-4.2-.8-6.31-1.13a5.59,5.59,0,0,1-3.76-1.74c-1.17-1.43-1.72-2.89.68-3.48,1.93-.48,2.95-1.88,3.71-3.74,1.43-3.52,2.2-7.1,1-10.87-.43-1.38-.53-3,.57-3.57,3.16-1.66,3.39-5.19,4.5-8,.71-1.85,1.54-4.27-.08-6.33-2-2.58-1.22-6-2.2-8.89-.2-.58.26-1.18.72-1.55,3.79-3.08,4.6-7.71,5-12.33a50.08,50.08,0,0,1,3.05-13.73c1.95-5.1.35-7.79-4.51-8.74-2.55-.49-5.16-.55-7.66-1.48-1.93-.71-2.28-1.5-1.19-3.49,2.21-4.06,4.05-8.28,2-13.19-.54-1.32.41-2.26,1.07-3.24a17.72,17.72,0,0,0,3.43-10c0-3.59-1-5.06-4.26-4.43-5.45,1.05-10.73,0-16-1-11.07-2-22.2-3.7-33.35-4.85-17-1.75-34-4-51.05-5.37-7.08-.57-14.17-1.2-21.26-1.46-10.19-.38-20.39-.83-30.54-1.56-11.67-.83-23.33-1.21-35-1.77C290.39,6,277.64,5.23,264.89,4.52l-14.7-.86C240.56,3.1,230.94,2.46,221.3,2c-9.35-.4-18.71-.43-28.06-.88C174.52.26,155.79.23,137.06,0c-8.42-.09-16.85.16-25.28.15-11,0-22,1.25-33,2.66C72,3.71,65.23,4.76,58.37,5.28,53.24,5.67,48.25,4,43.13,4.89c-3.18.54-3.93,1-3.83,4.45a44.9,44.9,0,0,1-.91,12.34,12.39,12.39,0,0,0,.24,6.9,12.92,12.92,0,0,1,.55,6A9.26,9.26,0,0,0,41,41.68a16.6,16.6,0,0,1,3,8.25c.24,1.91-.05,3.3-1.92,3.66-2.52.5-3.8,2.18-3.74,4.83.07,3,.35,6,3.53,7.21A8.13,8.13,0,0,1,45.2,68.7a3.19,3.19,0,0,1,0,3.68c-.69,1.22-1.65,1-2.7.66C38.88,72,35.12,72.24,31.44,72c-3.24-.25-7.29,4.54-6.83,7.7,1.2,8.37.32,16.77.46,25.15.05,2.78-1.58,4.21-3.86,4.82-6,1.58-7.91,4.87-6.66,11.5.66,3.49,1.48,7,.61,10.53-1.46,5.85.26,11.9-1.25,17.73-1.73,6.69,1.4,13.32.16,20.15-.69,3.81,2.38,5.62,5.93,4.34a21.66,21.66,0,0,1,3.78-1c1.61-.29,3.08-.09,3.15,2.23.06,2-.5,3.32-2.68,3.28-3.25-.08-6.5,0-9.75.06-2.6,0-5.13.09-7.57-1.37s-3.82,1.35-5.59,2.32c-1.49.82-1.59,2.76-1,4.34C1.33,186.39,1.28,189.24,2.09,192Zm145,24.21c-1-.36-2.94.3-2.71-1.21s2.27-1.69,3.68-1.87c1-.13,2.43.26,2.3,1.49C150.15,216.74,148.24,215.78,147.1,216.16Zm9,.82-.53-.27c-.4-.8-.34-2-1.81-1.65s-.3-.84-.4-1.31h0l1.08-.15h0l4.92.69c.69.1,1.66-.18,1.63,1.06,0,.9-.76,1.31-1.41,1.72-1.18.77-2.3-.65-3.48-.09a3.2,3.2,0,0,0,2.92,1.48A3.2,3.2,0,0,1,156.12,217Zm232,18.85c-.86,0-.56-1.11-.91-1.63-.19-1.07.62-.81,1.06-.9s1.24-.14,1.06.8C389.21,234.84,389.08,235.86,388.14,235.83Zm-44.49-5h0l-.21-.18c0,.05,0,.1,0,.15-5.29-.71-10.39-2.78-15.38-1.92,5.05-.87,10.21,1.27,15.36,1.77.33-1.8,1-.56,1.73-.34C344.45,230.14,343.77,228.91,343.65,230.88Zm-43.71-6h-1.05c-1-.47-1.94-1.2-3.14-.49A1.19,1.19,0,0,1,294,224c-.79-1.45-1.49-2.37-2.69-.39-.27.45-.84.32-1.26,0a1.43,1.43,0,0,1-.6-1.29c.06-.83.71-.73,1.23-.9,1.75-.57,3.46.41,5.21.09.8-.14,1.67.26,2.4-.4h0l1.73.38h0c.42,1.11.87,2.22-.08,3.29a1.21,1.21,0,0,0,.57.89A1.21,1.21,0,0,1,299.94,224.83Zm31,.38c.8.37,2.5-.62,2.31,1.11-.15,1.34-1.71.65-2.63.65-3.22,0-6.45-.08-9.66-.19-1.11,0-2.43-.3-2.41-1.8s1.4-.94,2.19-.94c1.82,0,3.64.21,5.46.34a1.66,1.66,0,0,0-.19-.53,1.66,1.66,0,0,1,.19.53l3.87.19A4.87,4.87,0,0,0,330.94,225.21Zm-18.17-2a2.38,2.38,0,0,0-.49-.42,2.38,2.38,0,0,1,.49.42l1.09-.09c.54.56,1.46-.06,2.06,1-.92.42-1.28,2-2.55,1.5C312.42,225.26,312.91,224.07,312.77,223.25Zm-37.68-1.06c-1.24-.44-2.81-.2-3.83-1.57a.84.84,0,0,1,.26-.7,5.39,5.39,0,0,1,4,.39c.57.26,1.44.3,1.31,1.21S275.77,222,275.09,222.19Zm-18.6-4h0l3.34.29a5.88,5.88,0,0,0,.86.67c.65.32,2-.37,1.8,1.12s-1.2,1.17-2.34,1.05-2.3-.21-3.45-.39-2.21-.44-2.21-1.74S256,218.93,256.49,218.17ZM326,223.75a1.62,1.62,0,0,0-.87-.69A1.62,1.62,0,0,1,326,223.75Zm-22-2.32,1.34-.09-1.34.09-1.38.09Zm-147.57-9a2.7,2.7,0,0,0-.79-.07A2.7,2.7,0,0,1,156.42,212.4Zm37.37,2.72c-.06.83.65,1.86-.29,2.44-.36.22-1.08-.06-1.54-.31-1.19-.65-.25-1.53-.13-2.31Zm13,1.7c-.38-1.84,1.75-.79,2.37-1.72h0l.84,0h0c.3.66.64,1.24,1.42.6l1.34.05h0c1,1.18,1.88,1.54,2.72-.14l1,.42c-.15,1.83-1,2.54-2.74,2.52-1.43,0-2.68-.84-4.08-.7C208.51,218,207,218,206.74,216.82Zm17.41,3c-1.29-1.47-.88-2.61.58-3.54h0l.86.06a38.74,38.74,0,0,1,7.14-.13,38.74,38.74,0,0,0-7.14.13c1.54,1.8,3.52.37,5.25.85,1.15.32,3.08-.2,2.63,2-.37,1.77-2.12,1.35-3.31,1.06-1.46-.36-2.81-1.78-4.36-.28,1.3,1.78,2.89,1.86,4.52,1.69-1.63.17-3.22.09-4.52-1.69Zm129.17,10.77c-2.56,0-5.14-.86-7.67-1.57a1.89,1.89,0,0,1-1.49-1.76,20.39,20.39,0,0,1,8,.39,6.42,6.42,0,0,0,4.7-.8c0-.21,0-.43-.05-.63,0,.2,0,.42.05.63l.18.13C357.26,230,355,230.59,353.32,230.59Zm37.49,2.49,3.62.38c.4.39.79.79,1.2,1.17s.8.87.53,1.53a1.11,1.11,0,0,1-1.42.55c-1.86-.47-4.06-.58-3.93-3.63,0-.09-.08-.19-.13-.29C390.73,232.89,390.77,233,390.81,233.08Zm71.52,15.31c-.52,1.32-1.58.58-2.4.67-2,.42-3.42-1.26-5.17-1.75a1.2,1.2,0,0,1-.59-1.51c.19-.57.75-.42,1.18-.49,2.41-.37,4.44.85,6.53,1.83A.94.94,0,0,1,462.33,248.39ZM159,218.46a3.69,3.69,0,0,0,1.29-.4A3.69,3.69,0,0,1,159,218.46Zm188.18,23.23a1.09,1.09,0,0,1-1-1.17c0-.54.37-.65.74-.63a1.15,1.15,0,0,1,1.05.88C347.93,241.54,347.58,241.72,347.22,241.69Zm81.55,1.15c.23-.84-.62-1.16-.82-2.11,3.66,0,7.22,0,10.68,1.27,1.53.57,3.06.86,4.52-.25.47-.35,1-.74,1.32.14.51,1.61,1.85,1.81,3,2.25.51.19,1.25.12,1,1s-.85.38-1.37.4c-1.42,0-3.19-2.17-4.21.71h0l-1.76.11h0c-.15-.84-.57-1.2-1.35-1a.47.47,0,0,0-.44-.17h0c-.16-.33-.28-.92-.49-1-3.19-.68-6.33-1.89-9.66-1.32A.53.53,0,0,0,428.77,242.84ZM368,22h0"/></g></g></svg>