<svg xmlns="http://www.w3.org/2000/svg" viewBox="0 0 643.79 295.21"><title>report_quote</title><g id="Layer_2" data-name="Layer 2"><g id="itv_a_cofession-longform-bg-desktop"><path d="M643.76,234.26a17,17,0,0,0-.79-3.69c-.27-.88-.6-2.34-1.15-2.46-5.6-1.18-11.22-2.32-16.9-3.1-6.65-.91-13.38-1.29-20-2.18-13.37-1.8-26.7-3.81-40-5.69-8.05-1.14-16.08-2.41-24.16-3.25-10-1-20.07-1.56-30.08-2.59-10.92-1.13-21.79-2.68-32.71-3.86-7.87-.85-15.79-1.32-23.68-2.1-5.61-.56-11.19-1.4-16.79-2.05-7.43-.85-14.87-1.62-22.3-2.47a11.28,11.28,0,0,1-2.32-.77c.95-.57,1.89-1.62,2.85-1.64,8.67-.16,17.34-.14,26-.15a10.5,10.5,0,0,1,1.74.28c-.48.13-1,.23-1.43.39a2.72,2.72,0,0,0-.61.41,1.56,1.56,0,0,0,.38.25,40.05,40.05,0,0,0,5.55,1.18c6.23.46,12.48.56,18.69,1.15,12,1.13,24,2.47,35.93,3.83,1.36.15,2.6,1.34,3.95,1.47,2.75.25,5.58-.17,8.3.21,2.29.33,4.44,1.92,6.71,2,3.24.16,6.52-.74,9.79-.77a125.83,125.83,0,0,1,13.59.55c3.33.34,6.59,1.41,9.91,2,5.55.92,11.13,1.68,16.69,2.54,5.31.81,10.59,1.75,15.92,2.37.87.1,1.92-1.2,2.89-1.85-.35-.36-.65-1-1-1-4-.69-7.92-1.28-11.88-1.94-3.31-.55-6.59-1.24-9.9-1.74-5-.75-10-1.46-15-2.06-4.31-.52-8.65-.78-13-1.33-2.18-.28-4.28-1.21-6.46-1.38-3.35-.26-7.86,1.18-9.88-.41-4-3.14-7.87-.29-11.67-1.48-3.52-1.11-7.48-1-11.26-1.32-4.94-.36-9.86-2.9-14.89,0a4.18,4.18,0,0,1-3.62-.29c-3.32-2.39-6.82-1.87-10.47-1.24-1.94.33-4.67,2.38-5.22-1.67,0-.21-1.2-.24-1.82-.41-3.75-1-7.49,2.8-11.32-.06-.73-.55-2.17-.18-3.27-.36-2.68-.43-5.46-1.6-8-1.24-2.8.4-5.35,2-7.94-.45a28.36,28.36,0,0,0-3.14-2.25c1.31-.33,2.65-1,3.92-.9,5.07.44,10.09,1.34,15.16,1.67,6.65.42,13.36.19,20,.75,6.4.54,12.71,2,19.11,2.57,6.81.61,13.69.51,20.52,1,9.52.67,19,1.51,28.52,2.42,8.28.8,16.59,1.49,24.79,2.79s16.17,3.4,24.3,4.89c2,.36,4.95.56,3.61-3.2-.18-.49.51-1.25.75-1.9.34-.9.69-1.79.94-2.71.7-2.51,1.17-5.09,2-7.53,1.08-3,2.52-5.88,3.71-8.85.13-.33-.52-.9-.55-1.37-.12-1.81-.64-3.78-.1-5.42,1.36-4.15,3.37-8.1,4.73-12.25.27-.82-1-2.91-1.93-3.14-5.11-1.28-10.35-2-15.47-3.3-1.22-.3-4.75.9-3.25-2.75a2.17,2.17,0,0,0-1.15-.72c-3.85-.46-7.7-.93-11.56-1.24-17.69-1.39-35.4-2.71-53.09-4.11-14.45-1.14-28.89-2.35-43.33-3.53q-18.19-1.5-36.39-3c-1-.09,59.39,6.75,58.4,6.48,1.1-.21-.37-5.22.73-5.41.16,0,5.42.2,7.93-7.29,2.14-6.38-52.22,5.73-45.21,6,12.42.48,24.85.83,37.28,1.28,9.18.33,18.36.75,27.54,1.1,12.52.48,25,.77,37.54,1.46,6.17.34,12.28,1.43,18.44,2.06a11.54,11.54,0,0,0,3.31-.7c-1.07-.55-2.09-1.47-3.21-1.58-10.27-1-20.56-1.89-30.84-2.93a40.73,40.73,0,0,1-6-1.48c1.92-.42,3.85-.83,5.77-1.29.71-.17,1.39-.44,2.08-.67a7.19,7.19,0,0,0-2.16-1c-5.25-.47-10.52-.82-15.78-1.26-1.79-.15-3.56-.43-5.34-.65l5.11-.11.27,0c8.46-.21,16.93-.81,25.36-.47,4.08.16,8.28-1.35,12.49,1.23a13.83,13.83,0,0,0,9.7,1.52c3.69-1,6.81-3.94,10.11-6.14.14-.1-.29-1.62-.73-1.77-1.81-.64-3.74-1-5.61-1.49a9,9,0,0,1-1.52-.69,5,5,0,0,1,1.78-.73c1.77,0,3.57.5,5.29.28,1-.12,1.85-1.23,2.76-1.9a17.91,17.91,0,0,0-2.05-2.29,5.94,5.94,0,0,0-1.95-.77c-1.83-.6-3.66-1.18-5.5-1.76,2.11-1.07,4.16-2.29,6.35-3.18s7-10.85,6-12.79a3.39,3.39,0,0,0-1.72-1.38c-1.31-.47-2.76-.64-4.09-1.1-1.74-.61-4.6.1-4.32-3.14,0-.11-1.29-.58-1.48-.4-1.77,1.66-3.53.87-5.64.65-9.72-1-19.51-1.34-29.25-2.19-11.08-1-22.18.41-33.26-.82-8.16-.9-16.42-.93-24.64-1.41a11.19,11.19,0,0,1-2.56-.77c1-.43,2-1.25,2.95-1.24,5.82,0,11.63.4,17.45.47,7.42.08,14.84,0,22.26,0,5.82,0,11.64,0,17.45,0,6.26,0,12.52-.06,18.77,0,4.91.07,9.82.45,14.72.37,1.49,0,4.73,0,2.23-3.14-.14-.17.25-1,.59-1.2,3.75-2.19,2-2.75-.93-3.22-.54-.09-1.36-1.53-1.3-1.59,2-1.8,4.15-3.43,6.11-5.25a15.92,15.92,0,0,0,2-3c-1.2-.41-2.37-.89-3.58-1.23a19,19,0,0,0-2.51-.35,11.27,11.27,0,0,1,2.43-1c2.55-.43,6.53-.87,5.69-3.54-1.15-3.65.39-5.76,1.69-8.62,1.37-3,1.51-6.53,2.41-9.76.73-2.65-.29-3.65-3-3.68-5.58-.08-11.16-.16-16.74-.33-3.61-.12-4.36-1.66-2.49-4.61a4.55,4.55,0,0,0,.57-2.1c-3.71-1.43-1-2.79,0-4.21s2.13-3.06,3.06-4.67c.28-.49.36-1.62.08-1.8-2.61-1.64-.66-2.44.45-3.71.79-.92,1-2.33,1.41-3.53a18.67,18.67,0,0,0-3.42-.58c-4.39,0-8.78.45-13.15.31C547,24.56,532.25,24,517.49,23.31c-3.4-.14-6.79-.61-10.18-1-.32,0-.6-.49-.9-.75a4,4,0,0,1,.93-.26c3.72-.13,7.44-.39,11.15-.33,13.17.21,26.33.83,39.49.68,6.44-.08,12.88-1.39,19.28-2.4,2.11-.33,2.66-4.15,1.57-5.79-.63-1-5.31.79-2.09-2.69,0,0-.12-.33-.24-.43C574.74,9,573,6.69,571.21,6.6c-8-.39-16-.14-24,0a2.84,2.84,0,0,0-2.05.94c-1.46,2.32-2.07,1-3-.39a2.93,2.93,0,0,0-2.25-.95c-.59,0-1.14.89-1.69,1.4-.28.27-.51.8-.79.82-4.59.26-9.19.5-13.78.62a13.83,13.83,0,0,1-3.12-.63c.86-.69,1.69-1.41,2.59-2.06a4.41,4.41,0,0,1,1.19-.42,8.39,8.39,0,0,0-1.36-.39c-3.68-.35-6.87,2.61-11.21.35-2.83-1.47-7.27,0-11-.12-4.84-.16-9.75-1.38-14.29,1.34-.18.11-.59-.13-.89-.21.13-.3.25-.59.39-.88.27-.53.55-1.06.83-1.59a13.26,13.26,0,0,0-2-.37c-7-.2-14.07-.42-21.11-.52-2.37,0-6-.62-6.9.55-3.3,4.42-5.59.91-8.54,0a18.81,18.81,0,0,0-7.74-.18c-1.81.25-3.43,1.58-5.23,2.13-.46.14-1.43-.79-1.91-1.41-.24-.31.1-1,.18-1.56-1.08.27-2.6.19-3.16.85-1.92,2.25-3.38,1.71-5-.18-.29-.33-1.11-.66-1.39-.51-3.94,2.21-7.67,2.93-11.06-.92a2.72,2.72,0,0,0-1.65-.61C407.14,1.29,403,.51,399,.76c-7.26.45-14.39-1.86-21.89,1.16-8.6,3.46,42.28-.93,33.19,1.15-.38.09-1-.92-1.58-1.4s-.9-1.09-1.26-1c-5.31.75-11.23-3-16,2-.47.49-1.66.46-2.53.48-6.15.09-12.3.1-18.45.23a12.66,12.66,0,0,0-2.93.76c1,.09,2,.14,3,.27,1.64.21,3.27.47,4.91.73a2.86,2.86,0,0,1,0,.51c-1.53,0-3.07,0-4.6,0-.26,0-.52,0-.78,0-5.95,0-11.9.07-17.85.06a6.48,6.48,0,0,1-1.71-.49,6.67,6.67,0,0,0,1.3-1c.22-.27.35-1,.22-1.08C350.15,2,340.33,3,338.43,4.36a1.28,1.28,0,0,1-1.05,0c-1.21-.59-2.36-1.75-3.58-1.8-8.37-.37-16.75-.49-25.13-.74-3.27-.1-6.14.8-7.65,2.55-.08.09-.33.08-.5.08-4.82.08-9.63.17-14.45.19-.28,0-.57-.59-.86-.91-.44-.49-1-1.46-1.33-1.4-2.07.31-3.73,1.06-6.26.27-3.36-1-7.33-.31-11-.26a5.46,5.46,0,0,0-2.26.59c-1.46.72-2.76,1.93-4.29,2.26s-3.23-.33-4.85-.27c-4.28.13-8.54.54-12.82.62-6.18.11-12.37.06-18.56,0a35.94,35.94,0,0,1-4.22-.5c1.25-.3,2.49-.59,3.73-.92a16,16,0,0,0,1.5-.57,6.17,6.17,0,0,0-1.64-.45c-3.7,0-7.41.06-11.11.13q-22,.41-44.1.86a5.18,5.18,0,0,0-1.94.62c-1.55.7-3,1.8-4.61,2.08s-3.4-.2-5.1-.34c1.65-.22,3.32-.37,4.94-.7a5.64,5.64,0,0,0,1.63-1,6.85,6.85,0,0,0-2-.38,49.24,49.24,0,0,0-6.31,1,14.56,14.56,0,0,0-3.13,1.57,6.81,6.81,0,0,0-.84-1.71,2.06,2.06,0,0,0-1.36-.33c-7.57,0-15.15.06-22.72.14-10.24.11-20.48.29-30.72.38-1.59,0-3.91.68-3.3-2.37,0-.2-1.36-.93-2.12-1-2.7-.12-5.41,0-8.11-.06-8.79-.32-17.59-.74-26.39-1-.93,0-2.55.64-2.71,1.27a42.32,42.32,0,0,0-1.78,9.46c-.13,4,2.17,7.91-.95,12-1.59,2.07-1.68,5.2-2.41,7.87a15.23,15.23,0,0,0-.61,3.19c-.32,6.83-.47,13.66-.87,20.49-.23,4.09-1,8.16-1.16,12.25-.17,4.67.71,9.45,0,14-1,6-4.22,11.42-3.2,17.88.49,3.08-1,6.41-1.3,9.65-.35,3.63-.49,7.29-.54,10.94,0,2.12-.47,4.82.67,6.21,1,1.19,4,1.39,6,1.12,3.66-.49,7.17-2,10.82-2.46,10.11-1.27,20.26-2.21,30.4-3.26a23.19,23.19,0,0,1,2.5,0A17.11,17.11,0,0,0,90,123.9c-.23,1.22-.72,2.59-.36,3.68.85,2.58.28,4.46-2.59,4.65-5.3.35-10.65.14-16,.4-13.42.63-26.85,1.21-40.25,2.18a156,156,0,0,0-19.36,2.82C9.85,138,8,139.9,7.38,141.49c-.76,2-.4,4.41-.43,6.65s-.59,4.55.28,6.3c1.15,2.31,3,4,0,6.24-.39.3.17,1.59,0,2.33-.31,1.07-.63,2.51-1.46,3-2,1.22-3.73,6.31-1.8,7.19,3.57,1.62,3.5,3.64,2.1,6.35a21,21,0,0,1-1.76,2.51c-.72,1-2.24,2.75-2.07,2.92,2.86,2.82.25,5.72.3,8.53,0,1.2,0,3.13-.65,3.48-3.91,2-.32,4.63-.64,6.87-.05.38,3.24,1.84,4.88,1.7,9-.8,17.88-1.84,26.79-3,3.28-.44,6.46-1.58,9.71-2.3a8.7,8.7,0,0,1,2.47.17c-.23.69-.48,1.37-.68,2.06a9.29,9.29,0,0,0-.51,2.19c3.12,1.25,1.09,2.91.44,4.41-.36.84-1.12,1.62-1.2,2.47-.63,6.53-1.13,13.08-1.67,19.63-.28,3.37-.33,6.78-.93,10.1-.85,4.69.5,6.13,5.57,5.52,7.36-.89,14.72-2,22.12-2.42,8.2-.42,16.44-.19,24.65-.05,20.53.36,41.06.84,61.59,1.27,6.62.14,13.25.16,19.86.48q23.7,1.13,47.39,2.48,34.15,1.9,68.31,3.91c11,.64,22,1.27,33.05,2q21,1.49,42,3.2,19.7,1.6,39.38,3.47c12.06,1.13-35.89.49-23.83,1.67,8.09.79,16.19,1.44,24.27,2.27C417,266.36,429,267.77,441,269c15,1.58,30.08,3,45.11,4.66,9,1,18,2.33,27,3.38s17.95,1.82,26.91,2.9c13.61,1.64,27.2,3.46,40.81,5.18,4.39.55,8.81.88,13.18,1.52,9.15,1.32,18.27,2.83,27.43,4.12a26.33,26.33,0,0,0,5.22-.26c-.87-.72-2.26-1.32-2.5-2.2-1.06-3.94-4.52-2.53-7-3.16-.22-.06-.5.11-.75.17a8.46,8.46,0,0,0,.68.54c.56.33,1.13.64,1.7.95a13.43,13.43,0,0,1-2.26.19c-1.32-.11-2.62-.38-3.93-.54l-18.09-2.26c-.35-.05-.69-.15-1-.22a5.44,5.44,0,0,1,.56-.69c.36-.32.76-.6,1.15-.9a8.17,8.17,0,0,0-1.9-.68c-7.39-.71-14.78-1.53-22.19-2-3.47-.21-7.06.79-10.48.37s-7-.2-10.5-2.83c-2.77-2.1-7.77-1.59-11.79-2.08a25.11,25.11,0,0,0-5.2,0c-2.09.18-4.16.81-6.24.81a28.78,28.78,0,0,1-7-.87c-1.61-.41-3-2.08-4.55-2.19-4.28-.31-8.6-.09-12.91-.08a3.6,3.6,0,0,1-1.19-.11,17.52,17.52,0,0,0-3.76-1.49c-2.72-.37-5.88.33-8.15-.76-2.62-1.25-6.84-1.9-9.46-.41-1,.56-2.83-.14-4.25-.39-1.22-.21-2.83-1.24-3.51-.81-3.93,2.44-7.37.31-11.05-.51-4.23-.93-8.55-1.47-12.85-2.14-1.49-.23-3-.26-4.5-.49-5.17-.83-10.39-1.49-15.48-2.64s-10.45,2.16-15.48-1.53c-1.41-1-4.64.41-7,.28-3.4-.19-6.78-.72-10.15-1.22-4-.59-7.95-1.32-11.93-2-2.49-.41-5-.89-7.48-1.15-5.55-.59,49-.32,43.3,2-1.64.69-4-.38-6.09-.5-3.11-.18-5.67-4.38-9.28-1.13a2.29,2.29,0,0,1-2,.23c-3.37-1.77-6.56-.37-9.82.28a2.88,2.88,0,0,1-1.79-.32c-3-1.63-7.25.85-10-3.29-.95-1.46-5.62-1-8.55-.88-7.82.44-15.48,1.25-23.27-1.36-3.52-1.18-7.89,0-11.88,0a35.5,35.5,0,0,1-4.37-.29c-5.89-.64-11.76-1.55-17.67-1.91-3.67-.22-7.51,1.17-10.75-1.74-.5-.44-1.62-.33-2.45-.34-3.22-.07-6.49.23-9.66-.17-5.41-.68-10.71-2.2-16.13.31-1.35.62-3.46.05-5.11-.36-2.64-.65-5.14-2.09-7.8-2.37-7.12-.78-14.28-1.23-21.43-1.55a10.56,10.56,0,0,0-5.11,1.43c-1.73.93-3.12,2.53-3.86-.77-.1-.43-1.17-.91-1.83-.95-8.43-.56-16.87-1-25.31-1.57-.4,0-.77-.43-1.15-.66.49-.23,1-.66,1.46-.67,2.74-.06,5.48-.07,8.22,0s5.7.45,8.54.35a25.35,25.35,0,0,0,5.27-1.19c.71-.19,1.44-.8,2-.68s.84,1,1.21,1.54c.2.28.32.89.45.88,2.7-.16,5.39-.45,8.09-.57,3.69-.16,8.81-1.66,10.74.06,2.93,2.61,5.43,1.83,8.28,1.94,4.48.18,9,.26,13.45.61,5.41.41,10.81,1.08,16.22,1.58a7.78,7.78,0,0,0,2-.34,11.27,11.27,0,0,1-.68-1.71c-.08-.33,0-.93.21-1.05a22.81,22.81,0,0,1,3-1.36,6.5,6.5,0,0,1,1.54-.22,6.58,6.58,0,0,0-.31,1.35c0,.86-.09,2.42.15,2.47,3.68.8,7.41,1.44,11.14,2,.42.07.93-.37,1.4-.57-.36-.26-.72-.51-1.08-.78l-1.1-.89c.23-.22.46-.63.71-.64,2.22-.07,4.75-1.56,6.31,1.55.34.67,2.13.76,3.28.92.28,0,.61-.86,1.05-1.05a13.48,13.48,0,0,1,3-.86c.41-.06.9.3,1.36.47l-1.6,1.18c-.18.14-.34.31-.51.47a5.22,5.22,0,0,0,.87.4c6.12,1.47,12.16,2.19,18-1.08.44-.25,1.62.63,2.41,1.06.52.28,1,1,1.44,1,2.83-.27,5.65-.73,8.48-1.07,1.31-.17,2.64-.22,4-.33-1.1-.93-2-2.18-3.33-2.69-1.1-.45-2.57,0-3.88,0-1.91,0-3.81-.13-5.72-.19-1.59-.05-3.18-.07-4.76-.16-1.81-.12-4.18.31-5.3-.62-1.65-1.35-1.58-1.78-3.79-.78a27.26,27.26,0,0,1-4.94,1.64c-.44.1-1.61-.79-1.56-.94,1.14-3.29-1.35-1.51-2.37-1.53-1.3,0-2.62.37-3.9.24-7.87-.79-15.71-1.86-23.59-2.45-3.47-.26-7,.51-10.53.56a7.6,7.6,0,0,1-3.38-1.21c-.3-.16-.37-1.47-.23-1.53a8.35,8.35,0,0,1,3.15-.81c6.5.2,13,.63,19.51.79,3.53.08,7.14-.68,10.61-.25,6.13.75,12.15,2.28,18.27,3.16,2,.28,4.14-.75,6.18-.65,5,.25,10,.79,15,1.25,5.57.52,11.12,1.17,16.69,1.6,6.54.51,13.09.78,19.63,1.3a37.58,37.58,0,0,1,6.35,1.27c.39.1.59.9.88,1.37-.48.09-1,.19-1.46.27-3.81.63-7.62,1.28-11.44,1.86a2,2,0,0,1-1.24-.56c-2.81-2.33-5.35-2-7.15,1a19.72,19.72,0,0,0-1.28,3.39c1.11-.28,2.66-.22,3.25-.91,2.08-2.39,8.35-1.93,10.32.6.64.82,3.65,1.23,4,.76,2-2.74,4.5-1.58,7-1.35,1.29.12,2.6,0,3.89,0a16.92,16.92,0,0,1,2,.3c-.21.49-.66,1-.58,1.46s.73,1.36,1,1.32c4.67-.47,9.28,1.25,14.11-1.21,4.63-2.36-51.2-.25-46.89,1.29,3.6,1.29,7.32,2.85,11.06.13a1.28,1.28,0,0,1,1.18.25c1.24,2.3,1.15,2.25,3.06.41a3.13,3.13,0,0,1,2.37-.75c4.56.89,10.08-1.59,13.54,3.38.15.21.84.05,1.28.09,5.8.41,11.34,1.12,17.41-.38,5-1.24,10.94.88,16.45,1.56,1.26.16,2.48.62,3.75.76,2.9.31,5.82.49,8.72.78.34,0,1,.54.91.74-.64,3.43,2.42,1.79,3.75,2.47.19.1.76-.46,1.15-.72a3.81,3.81,0,0,0-.81-.88,9.08,9.08,0,0,0-1.55-.61c.64-.21,1.27-.47,1.92-.62a19.24,19.24,0,0,1,2-.28c-3.78-2.92-7.71-5.09-12.82-2.94-.64.27-1.67-.18-2.47-.42a37.83,37.83,0,0,0-5.14-1.64c-2.13-.32-4.34-.14-6.52-.25-3.81-.19-7.63-.37-11.43-.7a76.91,76.91,0,0,1-8.3-1.09c-3.72-.73-7.36-2.08-11.1-2.4-2.6-.23-5.3.9-8,1.26-.87.12-2.53-.14-2.59-.45-.86-4.21-4.08-2.39-6.43-2.3-2.71.11-5.41.92-8.11.87-2.44,0-4.87-.82-7.31-1.26-.52-.09,58.95,1.82,58.42,1.78L412,250.17c-1.11-.08-2.21-.23-3.32-.35.81-1.11,1.53-3.1,2.45-3.19,4.62-.45-50.64-2.81-46.06-2.33,6.76.71,13.38,2.46,20.13,3.3,5.67.71,11.46.59,17.16,1.17,6.7.68,13.35,2.3,20,2.42s13.28-.45,19.83,1.61c2.66.84,5.68.69,8.55.86,2.51.14,5.15-.34,7.53.21,4.68,1.08,9.12,3.11,14.16,1.42,1.3-.43,3,0,4.43.2,8.58,1.35,17.12,2.92,25.72,4.1,5.78.79,11.64,1,17.46,1.59,3.83.35,7.65.83,11.47,1.22,12.07,1.23,24.13,2.6,36.22,3.57,5,.4,8.88,3.83,14.67,2.81,6-1.06,12.51.51,18.75,1.31,10.05,1.29,20.05,2.92,30.09,4.31,1.06.14,2.22-.42,3.34-.66a23.42,23.42,0,0,0-2.35-2.88c-.44-.4-1.34-.36-2-.47-10.88-1.79-21.76-3.54-32.64-5.38-.69-.11-1.27-.78-1.91-1.2a9.06,9.06,0,0,1,2.38-.57c2.28.09,4.55.47,6.83.5,1.74,0,3.55-.73,5.2-.45,4,.71,7.92,1.9,11.92,2.68.81.16,1.87-.56,2.72-1,1-.56,2.12-2,2.87-1.83,5.13,1.22,8.89.6,11.34-4.69,1.1-2.38.72-2.71-1.4-3.11-1-.2-2-.49-2.95-.74a12.08,12.08,0,0,0,2.78-1,30.19,30.19,0,0,0,3.13-2.75,12.68,12.68,0,0,0-2.91-2.23,47.89,47.89,0,0,0-5.63-1.45c-.26-.07-.5-.17-.74-.25a3.15,3.15,0,0,1,.33-.53c1.48-1.41,3-2.81,4.43-4.24a9.13,9.13,0,0,0,.92-1.29,14.49,14.49,0,0,1-1.48-.35c-.53-.18-1-.44-1.55-.66a5.06,5.06,0,0,1,1.48-.79,6.29,6.29,0,0,1,2.33,0C642.28,239.91,644,238.61,643.76,234.26ZM507.85,177.41l1.65.7c-.29.12-.61.37-.87.32-.83-.15-1.64-.41-2.46-.63Zm-27-2.69,2.38.51a13.09,13.09,0,0,1-2.56.68,7.76,7.76,0,0,1-2.1-.48Zm-15.47-.89.79.49a3,3,0,0,1-.93.11,7.53,7.53,0,0,1-1.28-.46Zm103.17-45.4a8.83,8.83,0,0,1,2.05.47c-1,.36-1.34.61-1.68.59a5.87,5.87,0,0,1-1.34-.45C567.88,128.82,568.19,128.46,568.53,128.43Zm-4.28-.28a5.57,5.57,0,0,1,1.32.41c-.8.23-1.09.4-1.36.36a2.37,2.37,0,0,1-.77-.4A2.46,2.46,0,0,1,564.25,128.15Zm-17.18-.64c3.8,0,7.6,0,11.39.15a9.93,9.93,0,0,1,2.16.55l-2.3.85c0-.26-.05-.52-.08-.78-3.67,0-7.34,0-11,0A5.58,5.58,0,0,1,546,128C546.38,127.82,546.73,127.51,547.07,127.51Zm-25.45,9,1.19.87a8.86,8.86,0,0,1-2,.84c-.4.08-.89-.32-1.34-.5Zm8,5a6.69,6.69,0,0,1,2,.89l-1.88,2.7a5.91,5.91,0,0,0-.59-1.33c-.15-.21-.61-.26-.94-.31l-8.77-1.08a5.43,5.43,0,0,1-1.45.14c-1.27-.14-2.53-.4-3.8-.62,1.28-.4,2.58-1.16,3.85-1.13C521.93,140.76,525.8,141.1,529.66,141.43Zm-14.29-4.67a8.27,8.27,0,0,1,1.93.39l-2.27.91-1.79-.84A10.67,10.67,0,0,1,515.37,136.76Zm-5.18,4.16a12.81,12.81,0,0,1,2.15.55l-1.49.87-1.89-.9C509.37,141.25,509.8,140.88,510.19,140.92Zm-7-5.18c.28-.06.7.46,1.54,1.08a12.48,12.48,0,0,1-2.53.71c-.3,0-.63-.58-.94-.9A8.83,8.83,0,0,1,503.22,135.74Zm58.15-44.16c.25,0,.54.16,1.34.43a7.91,7.91,0,0,1-1.73.52c-.26,0-.5-.36-.75-.55A5.53,5.53,0,0,1,561.37,91.58Zm-11-6.59c.24-.1.64.21,1.6.57a20.31,20.31,0,0,1-2.62,1.06c-.25.06-.62-.37-.93-.58A14.65,14.65,0,0,1,550.32,85Zm-221,160.45a4.36,4.36,0,0,1,1.1.46l-1,.57-.93-.7C328.8,245.65,329.09,245.41,329.34,245.44ZM408.75,27.8a6.41,6.41,0,0,1-1.94-.54l2.85-.63,2.35.71A24.35,24.35,0,0,1,408.75,27.8Zm7.85.08a4.57,4.57,0,0,1,1.34-.5,5.2,5.2,0,0,1,1.46.36l-1.64.59Zm25.68,1.5-3.89-.69c1.42-.07,2.84-.21,4.27-.2,1.13,0,2.26.21,3.39.33Zm25,.56-1.47-.32a2.33,2.33,0,0,1,.78-.29c.67,0,1.34.17,2,.26Zm17,66c-.71.24-1.41.52-2.14.72a8,8,0,0,1-1.15.2c-3.73-.31-6.79-.56-9.85-.83a2.51,2.51,0,0,1-.7-.3c.22-.22.44-.62.67-.62,3.76-.06,7.53-.12,11.3-.05C483,95.11,483.62,95.67,484.24,96ZM456.46,18.63c5.08,0,10.16.29,15.24.6.85.05,1.66.81,2.49,1.25a12.51,12.51,0,0,1-2.55,1.35,44,44,0,0,1-4.92.64c-1.64-.49-3.84-1.31-6.12-1.78-1.05-.22-2.26.38-3.39.36-2,0-3.92-.2-5.87-.41-.18,0-.28-.69-.42-1.06A29.89,29.89,0,0,1,456.46,18.63Zm-12-5.25c.06,0,.62.41.58.48a6.69,6.69,0,0,1-.77,1.05c-.35-.27-.58-.46-.81-.65A8.39,8.39,0,0,1,444.42,13.38ZM440.17,9a8.63,8.63,0,0,1,1.64.41,10.41,10.41,0,0,1-1.93.37c-.25,0-.47-.31-.7-.48A4.16,4.16,0,0,1,440.17,9ZM313.78,3.5c4.11,0,7.09,0,10.06,0a5,5,0,0,1,1.54.58c-.51.37-1,1.05-1.53,1.06-3.07.08-6.15.06-9.22-.07a7.63,7.63,0,0,1-2.3-.9Zm-9.22-.1c.49-.11,1.08.2,2.35.5a13.05,13.05,0,0,1-2.19.78,4.56,4.56,0,0,1-1.37-.27C303.75,4.06,304.1,3.51,304.56,3.4ZM273,3.28l1.08.83a3.53,3.53,0,0,1-1.18.46c-.3,0-.61-.36-.91-.56ZM182.26,5A12.31,12.31,0,0,1,185,6.1l-2.3.44-2-.69C181.21,5.54,181.8,4.91,182.26,5Zm-9.93.5A7.29,7.29,0,0,1,174.1,6c-.72.39-1.08.75-1.38.7a4.32,4.32,0,0,1-1.29-.64C171.73,5.87,172,5.49,172.33,5.49ZM131.85,239.63c-.38.08-.89-.44-1.34-.68l2.7-1.47,2.49,1.05C134.42,238.91,133.15,239.38,131.85,239.63Zm22.5.51a6.54,6.54,0,0,1-1.43-.49l1-.77,1.27.8C154.88,239.85,154.59,240.17,154.35,240.14Zm4.9,1.36-2.13-1.39c.56-.25,1.13-.72,1.67-.69a18.91,18.91,0,0,1,3,.61Zm18.91-.61v-.07a5.76,5.76,0,0,1-1.3.11c-1.27-.19-2.53-.46-3.79-.69.11-.24.2-.66.34-.67,1.64-.15,3.29-.27,4.94-.31.22,0,.42.6.71.68,1,.3,2,.49,3,.72ZM193.82,242l-1.66-.74a15.64,15.64,0,0,1,2.53-.77c.44-.06.95.34,1.43.54ZM296.65,23.81c-.33.05-.72-.33-1.08-.52l1.76-.8,1.37.67A11.89,11.89,0,0,1,296.65,23.81Zm13.5.43-.8-.43a5,5,0,0,1,1.27-1c.27-.09.72.29,1.09.46Zm30.38.27a1.48,1.48,0,0,1,.78-.81c.22-.05.57.41.85.65l-1,1C340.88,25,340.47,24.63,340.53,24.51Zm6.93-.67a7,7,0,0,1,1.26-.23c.22,0,.43.26.64.41l-1.38.49Zm32.25,1,2.23-1.43,1.69,1.41c-.54.29-1.1.86-1.61.82A8.58,8.58,0,0,1,379.71,24.82ZM404,248.45c-2.61-.4-5.17-1.18-7.74-1.83-.53-.13-1-.37-1.55-.55l1.25-.52c3.3.21,6.17.31,9,.62.7.07,1.32.8,2,1.23C405.94,247.78,404.88,248.59,404,248.45ZM367.42,17.81c-8.8-.26-17.59-1-26.39-1.15-8.33-.17-16.68.2-25,.14-10.31-.07-20.61-.42-30.92-.49-6.25,0-12.5.26-18.75.34-5.73.08-11.47.17-17.2.11-11.29-.11-22.59-.55-33.88-.42-8,.1-16,1.08-24,1.38-10.38.38-20.77.48-31.15.71-14.21.31-28.43.68-42.64.9a31.48,31.48,0,0,1-5.69-1A53.2,53.2,0,0,1,117,17.19c3.87-.52,7.77-.87,11.67-1.29l0,.4c9.82-.68,19.64-1.76,29.48-2,14.4-.27,28.82.24,43.23.15,8.3-.06,16.6-.55,24.89-1,6.28-.38,12.55-1.48,18.82-1.49,8,0,15.92,1.06,23.88,1.14,11.5.13,23-.36,34.51-.31,13.33,0,26.67.47,40,.58,7.57.07,15.16-.52,22.72-.2,9.29.4,18.54,1.55,27.83,2.15,6.28.41,12.59.35,18.88.66,8.72.44-42.56-.79-33.84-.38,9.75.46,19.51.58,29.25,1.13,10,.56,20,1.47,30,2.22,2.61.2,5.22.36,7.84.56.95.07,1.89.2,2.84.3a11.86,11.86,0,0,1-3,.69c-11.2-.25-22.4-.51-33.6-.91-8.73-.3-17.46-.83-26.2-1.21-12.72-.57,34.57.71,21.85.32C394.56,18.29,381,18.2,367.42,17.81Zm30.33,9a40,40,0,0,1-4,.77c-.28,0-.61-.57-.92-.88a28.58,28.58,0,0,1,2.89-.62C396.07,26,396.51,26.34,397.75,26.79Zm-11.9-.65-1.75.6-1.17-.66a4.27,4.27,0,0,1,1.33-.39A6.78,6.78,0,0,1,385.85,26.14Zm60.38,218.17c-.14,0-.27-.39-.41-.61a5.7,5.7,0,0,1,1.2-.3c.23,0,.48.21,1.21.58A14.23,14.23,0,0,1,446.23,244.31Zm27.15,6.86-5.62-2c1.91.12,3.83.18,5.73.4a14.42,14.42,0,0,1,2.61.77Zm59.92,6c-.41,0-.85-.34-1.28-.53l1.18-1,1.3.84C534.1,256.72,533.71,257.12,533.3,257.13Zm26.78-32.35c.17-.07.5.22.75.34l-1.8,1.27-.83-.6C558.82,225.45,559.43,225.06,560.08,224.78Zm.51,35.63c-3.13-.34-6.25-.78-9.38-1.23-.17,0-.3-.33-.45-.5l1.31-.28c3.27.25,5.92.43,8.55.68a3.84,3.84,0,0,1,1.22.63C561.42,260,561,260.46,560.59,260.41Zm10.82,1.6-1.59-.87a3.38,3.38,0,0,1,1.18-.23,12.33,12.33,0,0,1,1.87.51Zm19.71,1.86c-.3,0-.55-.52-.83-.81a4.33,4.33,0,0,1,1.29-.54c.3,0,.63.39,1.26.83C592,263.62,591.54,263.92,591.12,263.87Z"/><path d="M620.29,290.38c-6.78-.79-13.7-.8-20.38-2.08-4.84-.93-9.45-2.83-14.5-1.61-.19,0-.43-.28-.67-.33-6-1.36-11.88-3.05-17.91-3.91-4-.58-8.29,3.28-12.45-.82-1.12-1.09-3.84-.56-6.29-.83-1.35.45-3,1-4.6,1.55a7.56,7.56,0,0,0-1.21.67,5.93,5.93,0,0,0,1.2.37c5,.57,10,1.09,15,1.67,2.7.32,5.4.71,8.1,1.1q8.55,1.21,17.11,2.48c2,.29,5.22.05,5.75,1.12,1.5,3,3.28,1.3,5,1.13s3.36-.73,5-.51c8.12,1.14,16.22,2.46,24.32,3.73,2.35.37,4.69,1,7.06,1.1.81.05,1.69-.95,2.54-1.48a8.5,8.5,0,0,0-2.15-1.23C627.6,291.71,624,290.82,620.29,290.38Z"/><path d="M508.88,276.7c-1.74-.09-3.21,3.34-5.32-.71-.84-1.62-6-1-9.26-1.28-.2,0-.8,1.65-.73,1.69,1.86,1.1,3.7,2.56,5.73,3,2.58.51,5.33.13,8,.13,0,0,0,.09,0,.14l6.3.57c.17,0,.31.17.47.23,1.21.42,2.62,1.41,3.59,1.09s1.82-1.9,2.69-2.95c0,0-.31-.39-.49-.42C516.21,277.61,512.56,276.89,508.88,276.7Z"/><path d="M454.24,272.47l-.17,0H454l.05,0Z"/><path d="M478.33,275.27c.67-.08,1.24-1.21,1.85-1.85a8.62,8.62,0,0,0-2.52-.11c-3.4.88-6.63,1.32-9.11-2a1.5,1.5,0,0,0-1.12-.58c-4.4.54-8.79,1.14-13.19,1.73,5.63,1,11.22,2.12,16.86,2.93A29.68,29.68,0,0,0,478.33,275.27Z"/><path d="M528.22,281.32a3.92,3.92,0,0,0,1.56.91,35.94,35.94,0,0,0,6.29.36c.89-.06,1.71-1.1,2.56-1.69a19.69,19.69,0,0,0-3.22-.87c-1.07-.1-2.31.52-3.23.18a11.73,11.73,0,0,1-2.94-2.1c-2.81.69-4.87,1.14-6.89,1.71-.5.14-1.19.61-1.24,1a1.9,1.9,0,0,0,.7,1.57,2.21,2.21,0,0,0,1.9.13c.62-.38.84-1.36,1.45-1.81a6.59,6.59,0,0,1,2.71-1.26,7.43,7.43,0,0,1,2.54.52c-.67.24-1.36.45-2,.74C528.26,280.76,528.16,281.27,528.22,281.32Z"/><path d="M555.47,146.92a8,8,0,0,0-2.05.61l1.74.26c2.24.3,4.47.65,6.71.89q9.48,1,19,1.9a4.06,4.06,0,0,0,1.37-.39c-.41-.26-.81-.69-1.24-.74-3.38-.35-6.77-.59-10.16-.93C565.7,148,560.59,147.43,555.47,146.92Z"/><path d="M366,257.09a59.27,59.27,0,0,0-6,1.83l-.18-.55-1.7.64a11.73,11.73,0,0,0,1.88.53,50.23,50.23,0,0,0,6,.5,10.71,10.71,0,0,0,3.62-1c.19-.07.1-1.61,0-1.63A9.14,9.14,0,0,0,366,257.09Z"/><path d="M489.35,276.38c.28.08.69-.34,1-.53l-5.3-4.19a29.43,29.43,0,0,0-.89,2.95A44.05,44.05,0,0,0,489.35,276.38Z"/><path d="M363,4l-3.41-1L355.8,4a9.09,9.09,0,0,0,2.38.58C359.78,4.49,361.37,4.22,363,4Z"/><path d="M241.74,3.35,240,2.84l-5.8.74c1.9.17,3.8.4,5.7.45A5.56,5.56,0,0,0,241.74,3.35Z"/><path d="M251.76,3c-.33-.15-.69-.47-1-.42-1.56.22-3.11.53-4.67.81l2.52.87Z"/><path d="M228.29,4.29A6.84,6.84,0,0,0,230,3.48c-.79-.27-1.15-.51-1.48-.47a3.69,3.69,0,0,0-1.09.54C227.73,3.81,228,4.3,228.29,4.29Z"/><path d="M422.15,2.55a17.88,17.88,0,0,0-2.24-.15c-.28,0-.54.3-.8.45a5.76,5.76,0,0,0,1.53.59C421,3.47,421.3,3.07,422.15,2.55Z"/><path d="M256.12,3.21a17.69,17.69,0,0,0-2-.67c-.1,0-.31.36-.46.57.57.17,1.13.36,1.71.49C255.55,3.63,255.73,3.43,256.12,3.21Z"/></g></g></svg>