<svg xmlns="http://www.w3.org/2000/svg" width="63.7" height="30" viewBox="0 0 63.7 30">
  <title>Asset 1white</title>
  <g id="Layer_2" data-name="Layer 2">
    <g id="Layer_1-2" data-name="Layer 1">
      <g>
        <path d="M14.7,22.2v-7h2.4l.4-2.7H14.8V10.7c0-.8.2-1.3,1.4-1.3h1.5V6.9a14.77,14.77,0,0,0-2.1-.1,3.26,3.26,0,0,0-3.7,3v2.6H9.5v2.7h2.4v7h2.8Z" style="fill: #fff"/>
        <polygon points="58.6 0 58.2 0.4 61.8 1.3 57.9 5.2 58.6 5.9 62.4 2 63.3 5.6 63.7 5.1 63.7 0 58.6 0" style="fill: #fff"/>
        <path d="M28.5,14h-.1a2.11,2.11,0,0,0-1.3-.5c-.6,0-1,.2-1,.7s.3.7,1.2,1c1.2.4,1.9.7,1.9,1.8s-.7,1.8-2.2,1.8a3.14,3.14,0,0,1-2.1-.7l.4-.7h.1a2.72,2.72,0,0,0,1.7.6c.7,0,1.1-.3,1.1-.8s-.3-.8-1.5-1.1-1.6-.9-1.6-1.8a1.77,1.77,0,0,1,2-1.7,3.29,3.29,0,0,1,1.9.6Z" style="fill: #fff"/>
        <path d="M31.4,13.7h0a3,3,0,0,1,2.1-.9,1.49,1.49,0,0,1,1.7,1.7v4.3H34.1v-4c0-.8-.3-1.1-1-1.1a2.36,2.36,0,0,0-1.6.7v4.4H30.4V10.4l.9-.1h.2Z" style="fill: #fff"/>
        <path d="M36.5,13.2a5.45,5.45,0,0,1,2.2-.5c1.4,0,2.1.6,2.1,1.7v3.2c0,.4.2.5.4.5a.37.37,0,0,0,.3-.1h.1l.1.6a2.35,2.35,0,0,1-.8.2.94.94,0,0,1-1.1-.9h-.1a2,2,0,0,1-1.7.9c-1,0-1.7-.5-1.7-1.5s.5-1.3,1.6-1.7l1.7-.5v-.5c0-.8-.2-1.1-1.2-1.1a4.71,4.71,0,0,0-1.6.4h-.1Zm3.2,4.3V15.8l-1.3.4c-.7.2-.9.5-.9,1a.79.79,0,0,0,.9.9,2.55,2.55,0,0,0,1.3-.6Z" style="fill: #fff"/>
        <path d="M43.7,13.7a1.55,1.55,0,0,1,1.5-.9,1.27,1.27,0,0,1,.6.1l-.2,1h-.1a.9.9,0,0,0-.5-.1,1.39,1.39,0,0,0-1.2.7v4.3H42.7V12.9l.8-.1h.2v.9Z" style="fill: #fff"/>
        <path d="M49.1,18.8a2.79,2.79,0,0,1-2.9-3.1,2.7,2.7,0,0,1,2.6-3c1.7,0,2.5,1.1,2.5,3.3H47.4c.1,1.2.6,2.1,1.9,2.1a2.45,2.45,0,0,0,1.6-.6H51l.3.6A3.06,3.06,0,0,1,49.1,18.8Zm1.1-3.6c0-1.1-.4-1.8-1.4-1.8s-1.4.7-1.5,1.9h2.9Z" style="fill: #fff"/>
        <path d="M61.6,7.3l-.7.7a14.09,14.09,0,0,1-5.2,19.2,15.19,15.19,0,0,1-6.9,1.9H15A14.1,14.1,0,0,1,15,.9H48.7a14.21,14.21,0,0,1,7.2,2l.7-.7A15.67,15.67,0,0,0,48.7,0H15a15,15,0,0,0,0,30H48.7A15,15,0,0,0,61.6,7.3Z" style="fill: #fff"/>
      </g>
    </g>
  </g>
</svg>
