<svg xmlns="http://www.w3.org/2000/svg" width="30.04" height="30.04" viewBox="0 0 30.04 30.04">
  <title>Asset 1white</title>
  <g id="Layer_2" data-name="Layer 2">
    <g id="Layer_1-2" data-name="Layer 1">
      <g>
        <path d="M27.94,7.3l-.7.7a14.23,14.23,0,1,1-5.1-5.1l.7-.7a14.85,14.85,0,1,0,5.1,5.1Z" style="fill: #fff"/>
        <polygon points="24.94 0 24.44 0.5 28.14 1.3 24.24 5.2 24.94 5.9 28.74 2 29.64 5.6 30.04 5.1 30.04 0 24.94 0" style="fill: #fff"/>
        <path d="M24.44,11.5V10.3l-1.2-1.2H6.84l-1.2,1.2v9.4l1.2,1.2h16.4l1.2-1.2Zm-1.2,7L20.54,13l2.7-1.3ZM6.84,11.6,9.54,13l-2.7,5.6ZM15,15.7l4.4-2.2,3.2,6.2H7.44l3.2-6.2Zm8.2-5.4h0l-8.2,4-8.2-4Z" style="fill: #fff"/>
      </g>
    </g>
  </g>
</svg>
