<svg xmlns="http://www.w3.org/2000/svg" width="30.04" height="30.04" viewBox="0 0 30.04 30.04">
  <title>Asset 2white</title>
  <g id="Layer_2" data-name="Layer 2">
    <g id="Layer_1-2" data-name="Layer 1">
      <g>
        <g>
          <path d="M11.94,21.8a9.73,9.73,0,0,0,9.8-9.7v-.5a5.81,5.81,0,0,0,1.7-1.8,4.55,4.55,0,0,1-2,.5,3.17,3.17,0,0,0,1.5-1.9,5.84,5.84,0,0,1-2.2.8,3.47,3.47,0,0,0-4.9-.1,3.37,3.37,0,0,0-1,3.3,9.46,9.46,0,0,1-7.1-3.7,3.48,3.48,0,0,0,1.1,4.6,4.71,4.71,0,0,1-1.6-.4h0A3.44,3.44,0,0,0,10,16.3a2.92,2.92,0,0,1-1.6.1,3.52,3.52,0,0,0,3.2,2.4,6.63,6.63,0,0,1-4.3,1.5h-.8a9.61,9.61,0,0,0,5.4,1.5" style="fill: #fff"/>
          <path d="M27.94,7.3l-.7.7a14.23,14.23,0,1,1-5.1-5.1l.7-.7a14.85,14.85,0,1,0,5.1,5.1Z" style="fill: #fff"/>
        </g>
        <polygon points="24.94 0 24.44 0.5 28.14 1.3 24.24 5.2 24.94 5.9 28.74 2 29.64 5.6 30.04 5.1 30.04 0 24.94 0" style="fill: #fff"/>
      </g>
    </g>
  </g>
</svg>
