<svg xmlns="http://www.w3.org/2000/svg" viewBox="0 0 118 59"><defs><style>.cls-1{fill:#7b8386;}.cls-2{fill:#19bec8;}.cls-3{fill:#ededed;}</style></defs><title>itv_logo_white</title><g id="Layer_2" data-name="Layer 2"><g id="itv_a_cofession-longform-bg-desktop"><g id="Dynamic_Logo" data-name="Dynamic Logo"><path class="cls-1" d="M81.47,47.31c2,3.09,3.47,5.39,4.89,7.48,2.08,3.08,4,4.21,8.22,4.21,4,0,6.43-1,8.61-4.29A146.29,146.29,0,0,0,117.25,26.2a9.68,9.68,0,0,0,.75-2.6c0-.55-.36-1-1.22-1.26s-3.09-1-4.22-1.3a13.37,13.37,0,0,0-3-.74c-.75,0-1.17.42-1.43,1.3-2.63,8.74-6.62,18.56-10.19,24.66-1.17-2.23-3.33-6.1-5.33-9.6-3.1-5.41-6.16-10.86-7.7-13.37a13.11,13.11,0,0,0-1.15-1.64,4,4,0,0,0-3.49-1.57c-4.21,0-10.45,3.78-10.45,7.31,0,1.19.33,2.09,1.57,4.21Z"/><path class="cls-2" d="M7.81,15.49A7.45,7.45,0,0,1,0,7.75,7.45,7.45,0,0,1,7.81,0a7.45,7.45,0,0,1,7.81,7.75A7.45,7.45,0,0,1,7.81,15.49ZM39.79,53c-4,3.71-10.84,6-17.37,6S9,57.2,5,53.17C1.88,50.08.1,46.14.1,39.26V22c0-.85.31-1.21,1.22-1.21h13c.93,0,1.24.37,1.24,1.2V41.09c0,3,.66,5.11,2.06,6.6A8.53,8.53,0,0,0,23.75,50a8.86,8.86,0,0,0,6.51-2.5c1.72-1.85,2.5-4.49,2.5-9.36V36.59c0,6.31,2.23,12.2,7,16.38Z"/><path class="cls-3" d="M71.43,31.6a12.65,12.65,0,0,1,2.13,6.77c0,6-4.48,11.42-13.13,11.42-4.1,0-7.27-1.16-9.33-3.28s-2.92-4.74-2.92-9.28V29.62a13.54,13.54,0,0,0,5.35.93h6.84c.93,0,1.25-.37,1.25-1.21V22c0-.83-.32-1.2-1.25-1.2H48.17v-12A3.92,3.92,0,0,0,47,5.66C45.8,4.57,43.35,4,40.46,4s-5.33.53-6.52,1.62a3.92,3.92,0,0,0-1.18,3.15V36.58c0,6.31,2.23,12.21,7,16.38h0c4,3.6,11.13,6,19,6C69.29,59,77,54.67,81.47,47.31Z"/></g></g></g></svg>