<svg xmlns="http://www.w3.org/2000/svg" viewBox="0 0 69.42 34.71"><defs><style>.cls-1{fill:#7b8386;}.cls-2{fill:#19bec8;}.cls-3{fill:#151824;}</style></defs><title>itv_logo</title><g id="Layer_2" data-name="Layer 2"><g id="itv_a_cofession-longform-bg-desktop"><g id="Dynamic_Logo" data-name="Dynamic Logo"><path class="cls-1" d="M47.93,27.83c1.17,1.82,2,3.17,2.87,4.4C52,34,53.14,34.71,55.64,34.71s3.78-.57,5.06-2.53A86,86,0,0,0,69,15.41a6,6,0,0,0,.44-1.53c0-.32-.22-.58-.72-.74l-2.48-.76a7.74,7.74,0,0,0-1.74-.44c-.45,0-.69.25-.85.77a73.66,73.66,0,0,1-6,14.5c-.69-1.31-2-3.59-3.14-5.64-1.82-3.18-3.62-6.39-4.52-7.87a8.06,8.06,0,0,0-.68-1,2.36,2.36,0,0,0-2-.93c-2.48,0-6.15,2.23-6.15,4.3A4.58,4.58,0,0,0,42,18.59Z"/><path class="cls-2" d="M4.59,9.11A4.37,4.37,0,0,1,0,4.56,4.38,4.38,0,0,1,4.59,0a4.39,4.39,0,0,1,4.6,4.56A4.38,4.38,0,0,1,4.59,9.11ZM23.41,31.16C21,33.35,17,34.71,13.19,34.71S5.3,33.65,2.93,31.28C1.11,29.46.06,27.15.06,23.1V13c0-.5.18-.71.72-.71H8.4c.55,0,.73.22.73.71V24.17a5.34,5.34,0,0,0,1.21,3.88A5,5,0,0,0,14,29.39a5.21,5.21,0,0,0,3.83-1.47c1-1.09,1.47-2.64,1.47-5.51v-.88a12.44,12.44,0,0,0,4.13,9.63Z"/><path class="cls-3" d="M42,18.59a7.49,7.49,0,0,1,1.25,4c0,3.53-2.63,6.72-7.72,6.72a7.4,7.4,0,0,1-5.49-1.93c-1.16-1.19-1.72-2.79-1.72-5.46V17.42a7.85,7.85,0,0,0,3.14.55h4c.54,0,.73-.22.73-.71V13c0-.49-.19-.71-.73-.71H28.34V5.18a2.29,2.29,0,0,0-.7-1.85,6.08,6.08,0,0,0-3.84-1,6,6,0,0,0-3.84,1,2.33,2.33,0,0,0-.69,1.86V21.52a12.47,12.47,0,0,0,4.14,9.64h0c2.33,2.12,6.55,3.55,11.21,3.55,6.15,0,10.68-2.55,13.32-6.88Z"/></g></g></g></svg>