<svg xmlns="http://www.w3.org/2000/svg" viewBox="0 0 474.81 61.72"><title>confession_stroke</title><g id="Layer_2" data-name="Layer 2"><g id="itv_a_cofession-longform-bg-desktop"><g id="black_marker" data-name="black marker"><path fill="#853849" d="M367.72,6.26c-4.73-.19-9.51-.41-14.26-.15-9,.48-17.91-.07-26.89,0-8.25.12-16.54.12-24.75-.39-6-.36-12.09.12-18.15-.06-9.74-.27-19.57-.1-29.36-.14-2.59,0-5-.6-7.63-.36-9.55.88-19,.25-28.52.21-7.32,0-14.65.26-21.95.2-6.35,0-12.69-.15-19.05-.12s-13,0-19.44.16c-5,.15-9.9-.17-14.88,0-2.17.07-4.25.53-6.5.41a108.3,108.3,0,0,0-15.49-.23c-11.35,1-22.45-.25-33.72.21-9.06.38-18-.32-27.13-.08-1.58,0-3.19.17-4.76.22-4.64.14-8.77-1.09-13.63-.76-7.2.49-14.14-1-20.68-2.79a3,3,0,0,1-1.6-.93C18.27,0,15.64,0,13.51,0A21.71,21.71,0,0,0,4,2.3C1.25,3.63-.57,5.2.16,7.33s.42,4.43,1.58,6.59c.74,1.39,1.66,3,1.59,4.4-.2,3.7.28,7.37-.16,11.07,0,.51-.13.85.65,1,.57.11,1,.16.81.7-1.13,4.22,2.29,8,1.89,12.14a.58.58,0,0,0,.21.51c2.84,2.21,2.08,4.63.52,7.15-.36.57-.78,1.51-.36,1.8C9,54.13,10,56,11.83,57.53a10.2,10.2,0,0,0,5.35,2c4.83.65,9.49-.77,14.35-.62,6.8.2,13.54.78,20.44.63,3.86-.08,7.8-.06,11.7-.11s7.52.8,11.47,0c2.56-.56,5,.11,7.43.46,2.31.32,5-.54,7.43-.26,4,.45,8.19,0,12.27,0A162,162,0,0,0,120,59a16.4,16.4,0,0,1,2,0c4.27,0,8.49.29,12.79.23s8.34-.78,12.51-.92c9.87-.31,19.72-.42,29.53.07,5.92.3,11.95-1.09,17.93-.3,4.57.6,9.33-.3,14-.23,4.86.08,9.83,0,14.69-.2,6.76-.22,13.46,0,20.21-.12,4.85-.12,10.18-1.15,14.69.74,3.48-.77,7-.34,10.51-.56a168.08,168.08,0,0,1,22.11.14c6.61.44,13.28.67,19.95.77s13.25-.43,19.75-.09c11.78.6,23.61-.7,35.41-.64,6.73,0,13.59-.1,20.26.09,7.57.21,15.17-.94,22.77,0a65,65,0,0,0,13.33.12,32.5,32.5,0,0,1,7.57.45c4.93.76,10,1.07,15,1.47,7.57.61,15.15,1.31,22.81,1.62,1.79.07,3.71.2,5-.93,2.28-2,2.7-6.08.48-7.86-1.82-1.45-.28-3.44-2-4.83,2.14-2.74,0-5.68,1.76-8.4.94-1.47.7-2.87.84-4.32.62-6.31-3.38-12.18-2.6-18.49.31-1.52-1.11-2.51-2.9-3-3.39-.89-5.72-2.81-9.33-3.43a4.39,4.39,0,0,1-2.92-1.82,4.09,4.09,0,0,0-3.15-1.27c-4.48-.32-8.88-.85-13.41-1.07-5.82-.27-11.52-1-17.48-.69a82.35,82.35,0,0,1-8.88.14c-10.67-.56-21.41.17-32.12.27-4.49,0-9,.45-13.47.27"/></g></g></g></svg>
