<svg xmlns="http://www.w3.org/2000/svg" viewBox="0 0 620.04 77.81"><title>investigation_stroke</title><g id="Layer_2" data-name="Layer 2"><g id="itv_a_cofession-longform-bg-desktop"><path fill="#853849" id="black_marker" data-name="black marker" d="M614.91,30.09a29.5,29.5,0,0,0-3.86.38c-3.27.49-6.56.56-9.86.75-8.22.46-16.4-.38-24.59-.41-10.94,0-21.85-.67-32.76-1.31-11.92-.71-23.87-.73-35.78-1.78-6.3-.56-12.69-.28-18.95-.78-6.43-.52-12.89-.94-19.32-1.53-17.48-1.61-35-2.36-52.5-4.07-19.9-1.94-39.91-2.78-59.87-4.1,0-.18,0-.36,0-.54-2.59-.17-5.17-.4-7.76-.51-19.28-.78-38.53-2.16-57.81-3-23.59-1-47.15-2.54-70.77-2.84-21.72-.27-43.43-.94-65.16-1-10.79,0-21.58.11-32.36-.23-11.52-.37-23-.46-34.53-1.25-11.33-.77-22.69-1-34-1.8-10.45-.72-21-.76-31.48-1.44C18.84,4.34,14.22,3.83,10,1.13,6-1.4,2,.51.46,5A12.37,12.37,0,0,0,.1,10.13c.13,1.71.72,3.41.71,5.11C.76,22.18,2.21,29,2.92,35.82A10,10,0,0,0,5.1,41.36c1.27,1.5,1.33,2.89.86,4.76-1.15,4.56.41,6.92,5.13,7.45s9.47.73,14.22.82c6.33.12,12.67-.23,19,0,8.91.39,17.82.33,26.73.83,13.33.75,26.7,1.14,40.07,1,6.34-.06,12.68.58,19,.32,9.5-.4,19,.3,28.47,0a254,254,0,0,1,28,.44c8.56.66,17.23-.16,25.85-.14,3.88,0,7.77-.19,11.63-.14,7.17.11,14.33,1,21.5,1.15,8.77.2,17.55.17,26.31.85a11.54,11.54,0,0,0,2.55-.19,58.18,58.18,0,0,1,20,.73,26.8,26.8,0,0,0,9.44.39c3.72-.6,7.43.79,11.1-.24,6.23,2,12.73,1,19.09,1.52,9.23.76,18.56.11,27.81,1.24,2,.24,3.95,1,5.91,1a87.93,87.93,0,0,1,18.33,1.4,17.71,17.71,0,0,0,3,.27c8.42.26,16.85.25,25.2,1.61a11.69,11.69,0,0,0,2.13,0c5.17-.16,10.33-.36,15.29,1.68a12.12,12.12,0,0,0,5.1.67c5.32-.23,10.62-.1,15.94.15,2.89.14,5.61,1.1,8.55,1a49.4,49.4,0,0,1,14.57,1.36,6.41,6.41,0,0,0,2.54.35c4.43-.77,8.89-.35,13.27,0,13.33,1,26.69,1.13,40,1.95,8.76.53,17.5,1.08,26.3,1,7.16-.09,14.33.75,21.5,1.07,2.86.13,5.78-.36,8.59.05,5.82.85,11.75.68,17.51,2a5.83,5.83,0,0,0,1.72.12c2.85-.2,4.54-2.2,3.66-5a3.94,3.94,0,0,1,1.07-4.62,7.68,7.68,0,0,0,2.36-4.53c.71-5.16,2.63-10,3.44-15.14.69-4.4,1.69-8.76,2.13-13.18C620.36,31.61,618.62,30,614.91,30.09Zm-195.7,31.4c-.15.42-.67.41-1.09.24s-.8-.37-.72-.85a.66.66,0,0,1,.94-.5C418.86,60.54,419.47,60.8,419.21,61.49Zm43.67,3.57c3.36-.87,6.75-2.16,10.2.93A11,11,0,0,1,462.88,65.06Zm132.83,8.17a2.61,2.61,0,0,1-2.11.08c-4.11-1.58-8.31-.87-12.53-1-5.83-.17-11.69-.36-17.51-.31-6.57.07-13.13.08-19.68-.27-3.71-.2-7.39-1-11.09-1.45-6.42-.73-12.88-.77-19.33-1-9.75-.36-19.48-1-29.19-1.92-.95-.09-1.9-.27-3.32-.47a6.45,6.45,0,0,1,5.19-1.46c8.89.55,17.83.67,26.65,1.76,6.27.78,12.56.84,18.81,1.15,5.12.25,10.32.12,15.47.32,11.47.46,22.93,1.08,34.39,1.44,3,.09,6-.79,8.9.55a1.26,1.26,0,0,0,.85-.06,11.07,11.07,0,0,1,6.66-.74c2.15.49,4.45.62,6.06,1.19C601.84,72.55,598.36,71.26,595.71,73.23Z"/></g></g></svg>
