<svg xmlns="http://www.w3.org/2000/svg" viewBox="0 0 347.44 66.95"><title>pursuit_stroke</title><g id="Layer_2" data-name="Layer 2"><g id="itv_a_cofession-longform-bg-desktop"><path fill="#853849" id="black_marker" data-name="black marker" d="M343.85,7.1A3.7,3.7,0,0,0,341,5.84a148,148,0,0,0-17.5-.2c-7,.55-14.12.16-21.18.25-4.75.06-9.51-.83-14.27.06a45.42,45.42,0,0,1-11.94.9c-3.87-.3-7.53-1.82-11.52-1.43C258.32,6,252,5.2,245.73,5.13,237.83,5,229.9,4.41,222,4.2c-8.46-.23-16.92-.71-25.38-.88-11.59-.23-23.2-.95-34.81-1.4C147.52,1.37,133.23.63,118.94,0c-2.14-.09-4.29.11-6.82.19A4.16,4.16,0,0,0,116,2.47a49,49,0,0,1,7.79,1.35c.68.17,2.39.29,2,1.68S124,7,122.79,6.77c-4.93-.72-9.88-.35-14.82-.13-2,.1-4,1.07-6.13.57a18,18,0,0,0-7.55,0,30.38,30.38,0,0,1-9.7.14,40.62,40.62,0,0,0-10.27-.18C65.16,8.47,56,8,46.84,7.54c-3.19-.16-6.51-.43-9.69.59A34.85,34.85,0,0,1,26.51,9.65C15,9.6,83.48,9,72,9,56,9.16,40,8.42,24.08,8.94a103.3,103.3,0,0,1-17.84-.6c-3.57-.51-4.62.34-5.72,3.81A7.17,7.17,0,0,0,0,14.53c.31,6.63,0,13.33,1.69,19.84.47,1.87.81,3.51-.38,5.41a6.1,6.1,0,0,0,.24,7.37c1.67,2,4.08,2.36,6.69,2,5.6-.83,11.24-2.2,16.84-2.11,9.44.15,18.85-.38,28.29-.2,9.24.16,18.5,0,27.75.15,6.59.11-66.82.21-60.24.09,7.65-.13,15.22.93,22.86.9s15.3.86,22.95,1c8.4.11,16.75.78,25.12,1.25,9.62.55,19.23,1.59,28.86,1.77,8.46.16,16.92.23,25.37.61,15,.68,30.08,1.05,45.12,1.86q15.78.84,31.61,1.46c14.65.59,29.3,1.5,43.94,2.35,7.64.44,15.27.95,22.9,1.58,7,.57,14,1.38,21,2,9,.82,18,.93,26.41,4.89a3.62,3.62,0,0,0,2.65,0,7.07,7.07,0,0,0,5.47-6.61c.34-3,0-5.93.38-8.92.69-5.17.94-10.39,1.45-15.58a156.86,156.86,0,0,0,.36-18.65C347.25,13.11,346.38,9.9,343.85,7.1Z"/></g></g></svg>
