<svg xmlns="http://www.w3.org/2000/svg" viewBox="0 0 344.04 51.48"><title>report_stroke</title><g id="Layer_2" data-name="Layer 2"><g id="_MISC"><g id="black_marker" data-name="black marker"><path fill="#853849" d="M3.16,24.12c1.36,1.75.17,3.73.55,5.58h0a2.27,2.27,0,0,1,1.16,2.14C5,33.5,6.5,34.5,6.81,36.06c.11.5,3.44.8,4,.51.39-.2.2-.34.09-.57-.69-1.45.23-1.63,1.41-1.75s2.9.82,3.54-1.17c.1-.31.58,0,.79.27a3.15,3.15,0,0,0,2.31,1c1,.13,1.89.08,1.93-1.3a2.14,2.14,0,0,1,2.12-2,82.51,82.51,0,0,1,8.43-.89,78.74,78.74,0,0,0,14-1.76,15.81,15.81,0,0,1,5.65-.3,13.79,13.79,0,0,0,7.08-.61c1.82-.67,4,0,5.83-1.08a.51.51,0,0,1,.4,0c2.85,1.46,5.87.4,8.8.52,1.45.06,2.37.64,2.23,1.87-.17,1.43,2.18,2.33.69,4-.32.34.73.53,1.23.55,2.41.11,4.84.06,7.24.31,3.33.34,6.71.28,10,.94a1.34,1.34,0,0,0,.77,0c3.15-1.64,6.47-.73,9.71-.51,1.26.08,2.35-.46,3.58-.49,2.38,0,4.69.6,7,.54,4.75-.13,9.49.31,14.25.26,5.43-.06,10.86.39,16.3.39,3.08,0,6.21-.07,9.23.1,5.45.3,11-.12,16.33.73a91.87,91.87,0,0,0,11.72,1.59c1.65.05,3.53,1,5.22-.23a2.08,2.08,0,0,1,1.58,0,3.62,3.62,0,0,0,3.44-.28.72.72,0,0,1,.59,0c2.09,1.09,4.2.51,6.33.21a1.41,1.41,0,0,1,1.33.33c1,1.25,2.06,1.52,3.18.14a.77.77,0,0,1,1.09-.17c2.62,2.24,5.57,1.13,8.42.8a6.3,6.3,0,0,1,1.15,0c3.43.29,6.82,1.14,10.29.85,1.47-.13,2.76-.7,4.36.34a4.28,4.28,0,0,0,4.41-.31c.1-.07.22-.27.28-.26,3.25,1.13,6.68.78,10,.66,2.23-.08,4.77,1.29,6.85-.64a.65.65,0,0,1,.9.17c1.24,1.39,2.52,1.19,3.91.21a2.89,2.89,0,0,1,3.24.15c1.62.9,3.19,1.8,4.64-.33.42-.62,7.1-.37,7.5.3.76,1.28,1.69,1.07,2.92.86,1.89-.31,3.7.52,5.56.78,1.28.18,2.89.62,3.74-.11,1.35-1.15,2.06-1.22,3.33,0a2,2,0,0,0,2.65-.52c.78-1,2.09-.49,3.07,0,1.38.75,2.56,1.6,4,0,.51-.56,1.84,0,2.54.6a2.26,2.26,0,0,0,2.75.48,4.75,4.75,0,0,1,3.53.21c2.69.92,5.39.31,8.07.53.82.07,1.81-.15,2.22.62,1.31,2.42,3.94,2.33,5.87,2.19a38.84,38.84,0,0,0,8.74-1.22c.39-.12,1-.17,1-.56-.34-2.83,2.92-3.2,3.79-5.22.26-.58.7-1.15.12-1.48-2.24-1.29-1.08-2.66-.23-4,.43-.69.62-1.11-.42-1.41-1.32-.38-.93-1.34-.16-1.68,2.43-1.1,2.39-3.54,3.32-5.4,1.08-2.17-1.71-5.24-4.38-5a8.21,8.21,0,0,1-3,0c.87-1.28,2.34-1.32,3.55-1.57a26.17,26.17,0,0,0,4.63-1.9,3.57,3.57,0,0,0,2-2.38,3.3,3.3,0,0,1,1.42-2.27l.34-.55A12.53,12.53,0,0,0,344,4.8c.05-1,.28-1.84-1-2.47s-2.17-1-3.34-.08c-3.37,2.59-7.57,2-11.44,2.57-7.67,1.16-15.42.74-23.15.82-10.18.12-20.33-.55-30.5-.61-5.87,0-11.74-.24-17.61-.44-18.7-.61-37.41-1.12-56.1-1.94-7-.31-14-.4-21-.64-8-.27-16-.89-24.06-.71-6.2.15-12.36-.36-18.54-.43S124.78.81,118.52.24c-5.28-.49-10.67.28-16-.08-6.22-.43-12.4.15-18.6.2-4.83,0-9.7,0-14.53.36C68.15.83,66.9.62,65.63.65c-6.88.16-13.7,1-20.55,1.46-5.78.4-11.55.8-17.32,1.37-3.92.38-7.91,0-11.87.09A12.5,12.5,0,0,1,7.77,1,6,6,0,0,0,1.43.85c-2,1-1.3,3.29-1.29,5a36.89,36.89,0,0,0,1,6.7,6.19,6.19,0,0,1,0,2.71c0,.25.07.5.1.75,1.25,2,1,4.18.84,6.35C2.47,22.92,2.81,23.52,3.16,24.12ZM286.42,17.6a1.51,1.51,0,0,1,.6,0c3,.94,6-.32,9,.4,2,.5,4,1,6.1.16-.81,1.11-1.6,1.77-2.93,1.19a3.09,3.09,0,0,0-2-.12c-3.16,1-6.24.43-9.33-.28a3,3,0,0,0-1.19.08c-.51.09-1.13.45-1.31-.32S285.75,17.69,286.42,17.6ZM245.21,34.19c-.43-.19-.87-.55-.77-1s.66-.35,1-.34c1.55.06,3.1.18,4.3,1.79A7.37,7.37,0,0,1,245.21,34.19Zm27.78,1c-.65-.1-1.53-.19-1.48-1s1-.71,1.6-.59a30.2,30.2,0,0,1,3.15,1A8.31,8.31,0,0,1,273,35.21Zm-71.2-20.28c1.62.09,3.1-1,4.54-.45,6.54.49,12.88.23,19.18.73,4.66.37,9.32.19,14,.42,2.4.12,4.8.31,7.21.42A24.33,24.33,0,0,0,250.3,16c1.78-.18,3.64-.59,5.38.1,2.44.95,4.9-.4,7.3.18s5.18.17,7.68,1c1.33.45,2.64-.45,4.13-.2a75.12,75.12,0,0,0,7.82.46c.52,0,1.46-.23,1.32.7-.09.55-.76.88-1.46,1.11-3.87,1.3-7.66-.23-11.48-.21-4.2,0-8.35-1.44-12.6-.28-1.7.47-3.42-.85-5.18-.43-4.09,1-8.19,0-12.22-.24-3.62-.18-7.33-.32-10.88-.32-4.77,0-9.54-.92-14.3-.3-4.27.57-8.43-.61-12.65-.75a9.69,9.69,0,0,1-1.37-.32c-.48-.08-1-.11-.94-.75A.86.86,0,0,1,201.79,14.93Zm3.63,16.92c.77.52.58,1.07.53,1.68a.76.76,0,0,1-1,.66c-2.15-.55-4.28-1.17-6.42-1.76C200.85,31.57,203,30.2,205.42,31.85ZM197.9,14.72c.82.08,2-.16,1.89.71s-1.2,1.31-2.13,1.32c-.69,0-1.68-.34-1.65-1.11C196.06,14.42,197.22,14.8,197.9,14.72Zm-3.4,16.89c.46.13,1.42-.37,2.05.45a.71.71,0,0,1-.18.67c-.81.68-1.75.38-2.66.25a3.51,3.51,0,0,1-.74-.28c-.43-.15-1.05-.24-1-.78s.74-.32,1.16-.34S193.83,31.59,194.5,31.61ZM187,14.32a22.59,22.59,0,0,1,3.4-.24v.1c.87,0,1.75,0,2.61.1.44.05,1,.18,1.08.68s-.5.8-1,.85a25.67,25.67,0,0,1-5.54.18,1.67,1.67,0,0,1-.57-.19c-.77-.35-2.32.35-2.28-.88C184.73,13.86,186.17,14.49,187,14.32Zm-21.64-.87c.6.14,1.49-.21,1.65.71a.65.65,0,0,1-.93.68c-.69-.27-1.87.05-2-.93C164,13.22,164.79,13.41,165.31,13.45Zm-6.18,16.63c4.32,0,8.65,0,13,.13a63.1,63.1,0,0,1,6.38.88c-1.86,1.7-3.81,1.15-5.48,1.51a19.1,19.1,0,0,1-9.34-.73c-1.34-.39-3,.12-4.56.07-.83,0-1.6-.07-1.62-1C157.45,29.85,158.45,30.08,159.13,30.08Zm-3.42-16.22a2.35,2.35,0,0,1,2.23-.41c.41.15.84.26,1.32.4a1.61,1.61,0,0,1-1.59.8c-.7,0-1.47.31-2.07-.3C155.53,14.28,155.6,13.93,155.71,13.86ZM154.2,30.61a1.87,1.87,0,0,1,2.17.09c-.71.65-1.3,1-2.08.58A.42.42,0,0,1,154.2,30.61Zm-17.43.22c.19-.44.21-.8,1-.85a26.12,26.12,0,0,1,8.11.31c-2.66,2.35-5.45,2.09-8.28,1.48C137.17,31.68,136.41,31.67,136.77,30.83Zm-16.35-1.28c.67.09,1.67-.1,1.66.73s-1,.9-1.72.88-1.7-.06-1.59-1S119.84,29.65,120.42,29.55Zm-9.12,0c-.53.68-1.41.5-2.13.69a.42.42,0,0,1-.51-.59c.42-.79,1.33-.33,2-.62C111,28.91,111.24,29.16,111.3,29.59ZM106.73,13.4a1.48,1.48,0,0,1,1.77-1.17c.54.12,1.69-.05,1.53.83a1.57,1.57,0,0,1-2,1.13C107.43,14.12,106.56,14.28,106.73,13.4Z"/><path fill="#853849" d="M57.65,43.37l-1.59,0c-.83,1.05-2.1.69-3.18.82-3.52.4-7.06.71-10.59,1A3.14,3.14,0,0,1,40.14,45l-.79-.12c-.22,1-1.06.6-1.64.64-5.83.4-11.66.62-17.5.71-3.77.06-7-1.73-10.5-2.22a1.76,1.76,0,0,1-1.05-.55C7.34,41.8,6,41.79,4.48,43.16h0c0,1.22-.29,2.48.38,3.64l.08.07A46.66,46.66,0,0,0,18.48,48c3-.13,6,0,9,.06l.82.09A72.71,72.71,0,0,1,39.17,46.9c1.37-.11,2.75-.73,4.16-.19l.8-.06a11.53,11.53,0,0,1,5-.65,105.73,105.73,0,0,0,11.39-.9A18.26,18.26,0,0,1,64.92,45l.82.05L77.51,45h.87l1.15,0h1.65a21.27,21.27,0,0,1,6.94-.15l.84.06h.71l2.49-.36c1.12-.74,2.17-.17,3.23.17h2.48a2.55,2.55,0,0,1,2.45-.44l.73-.08c1.28-1,2.75-.4,4-.22,2.34.32,4.74-.3,7,.48l.79.11a.67.67,0,0,1,.82.13l1.2.07c2.44-.78,4.89-.27,7.34,0l1.2.05a1,1,0,0,1,1.63.12l3.25.05c.44-.49.85-.44,1.22.08l1.22.07c3.51.38,7.07-.69,10.56.35l1.21,0c2.77-.94,5.63-.38,8.4-.23,5.79.32,11.57-.24,17.35.21,1.72.13,3.44.17,5.16.25l.76.07h.88l.73.08c4.77.13,9.54-.12,14.3.4l.73.06,3.69.39.81,0a24.34,24.34,0,0,1,6.92.32l2,.06a35.87,35.87,0,0,1,11.35,1.1l1.22,0a.6.6,0,0,1,.85-.28l.79,0a67.66,67.66,0,0,1,10.16.47l.59,0c1.87-1.46,3.93-.37,5.91-.39l2.45.07,5.26.16.81,0a5.56,5.56,0,0,1,3.72-.19c4.44.71,8.89,0,13.31.39,5.42.47,10.89,0,16.28.93h1.22a2,2,0,0,1,2.45.07l.8,0a3.11,3.11,0,0,1,2.86,0l.79,0a32.34,32.34,0,0,1,9.77.4l.79,0a6.11,6.11,0,0,1,4.49.16l.77.14c1,0,1.91-.7,2.89-.06h.79c1.63.16,3.39-.71,4.88.6l1.59.16a15.59,15.59,0,0,1,6.12.41l1.6.09c1.62-.94,3.49-.31,5.09-.26a24.11,24.11,0,0,0,6.1-.78,9.84,9.84,0,0,1,1.81-.12l.62-.23a18.55,18.55,0,0,1,3.11-1.75,1.6,1.6,0,0,0,.94-2.11c-.27-1.1-1.08-.68-1.78-.61-4.48.46-9,.85-13.47,1-3.6.1-7.23.11-10.81.32a99,99,0,0,1-10.19.06l-2.4.08a4.54,4.54,0,0,1-4.3-.33l-.75,0c-1.81,1.17-3.77.24-5.65.29-7.44.22-14.87-.39-22.31-.57-.67,0-1.38,0-1.74-.7l-.18,0-.18,0c-.14.15-.27.41-.41.41-3.61,0-7.26.58-10.79-.66l-1.59-.1a3.32,3.32,0,0,1-2.68.54c-5.44-.19-10.9-.13-16.32-.37-10.49-.46-21-.8-31.46-1.29a13.67,13.67,0,0,1-2-.41l-1.59-.17c-2.84,0-5.67-.1-8.51-.13-4.1,0-8.26-.47-12.28.07s-7.68-.5-11.52-.19c-1.24.1-2.55-.36-3.7.52-.76.59-1.28-.36-2-.49-3.22-.62-6.48-.17-9.7-.5a67.13,67.13,0,0,0-9.62-.19c-5,.22-10-.61-15.08-.62-7.55,0-15.11-.05-22.66.17-2.13.07-4.35-.57-6.23-.14-2.55.58-5.2-.65-7.63.79a3.74,3.74,0,0,1-2.53-.15c-4.63-1.47-9.31-.34-13.94-.26-4,.07-7.88.77-11.82,1.19C58.35,43.74,57.92,43.77,57.65,43.37Z"/><path fill="#853849" d="M74,33.09a7.83,7.83,0,0,1-3.25-1.61,1.32,1.32,0,0,0-2.2.23c-.7,1.15.15,1.51,1,1.81A4.45,4.45,0,0,0,74,33.09Z"/></g></g></g></svg>
