<svg xmlns="http://www.w3.org/2000/svg" viewBox="0 0 89.16 73.37"><defs><style>.cls-1{fill:#853849;}</style></defs><title>speech_mark</title><g id="Layer_2" data-name="Layer 2"><g id="itv_a_cofession-longform-bg-desktop"><path class="cls-1" d="M0,48.42A9.44,9.44,0,0,0,2.4,42a6,6,0,0,0,0-.8,4.79,4.79,0,0,1-.06-.81,21.84,21.84,0,0,1,1.89-5.09A14.14,14.14,0,0,0,5.72,30.1,5.63,5.63,0,0,1,8,27.93a24.16,24.16,0,0,0,.46-4.81,2.16,2.16,0,0,1,.86-1.94,11.34,11.34,0,0,1,1.89-1,15.61,15.61,0,0,0,1.94-1,2.77,2.77,0,0,0,1.15-2.06,5.66,5.66,0,0,1,.86-1.88c.49-.81,1.06-1.64,1.71-2.52s1.28-1.7,1.89-2.46,1.11-1.38,1.49-1.83c.76-.92,1.45-1.82,2.06-2.69a13.2,13.2,0,0,1,2-2.29,10,10,0,0,1,2.46-1.61A9.56,9.56,0,0,1,30.1,1,14.31,14.31,0,0,0,32.34.4a5.73,5.73,0,0,1,2-.4,2.92,2.92,0,0,1,2.23.8,6.59,6.59,0,0,1,1.2,1.83c.31.69.57,1.36.8,2A2.08,2.08,0,0,0,39.72,6a3.13,3.13,0,0,0,.86.4.72.72,0,0,1,.51.75,2.75,2.75,0,0,1-.57,1.31,4.21,4.21,0,0,0-.69,1.66,5.59,5.59,0,0,1,.23.57,1.87,1.87,0,0,1,.12.58.93.93,0,0,1-.46.91,5.66,5.66,0,0,1-1,.4,9.46,9.46,0,0,0-1.2.46,2,2,0,0,0-1,1.2,8,8,0,0,1-3.32,4l-5,3.26a22.71,22.71,0,0,0-4.64,4,9.09,9.09,0,0,0-2,6.18v.92c0,.45,0,.93.06,1.43s.07.93.11,1.31.1.58.17.58a6.45,6.45,0,0,0,2.81-.63,6.65,6.65,0,0,1,2.92-.63,4.14,4.14,0,0,1,2.17,1A35.39,35.39,0,0,1,32.62,38c1,.92,2,1.83,2.86,2.75a19.31,19.31,0,0,0,2.18,1.94v2a31.47,31.47,0,0,0,.57,6,31.63,31.63,0,0,1,.57,5.95,13,13,0,0,1-.51,3.9,17.7,17.7,0,0,1-1.2,2.86c-.46.84-.86,1.6-1.21,2.29a4.81,4.81,0,0,0-.51,2.17,2.52,2.52,0,0,1-.52-.06,3.36,3.36,0,0,0-.51,0,2.36,2.36,0,0,0-1.26.45,11.08,11.08,0,0,0-1.37,1.09q-.69.63-1.26,1.2a6.33,6.33,0,0,0-.8.92,5.24,5.24,0,0,1-1.84.34H26a6.74,6.74,0,0,0-3.43.86,7,7,0,0,1-3.55.86,18.18,18.18,0,0,1-3.83-.4q-1.89-.41-3.84-.63a4,4,0,0,1-.8-1.49A8.52,8.52,0,0,0,10,69.36,3.43,3.43,0,0,0,9,68.22a2.73,2.73,0,0,0-1.71-.46H6.75a5.38,5.38,0,0,1,1-1.77,2.83,2.83,0,0,0,.8-1.66,3.39,3.39,0,0,0-.91-1.95,2.48,2.48,0,0,0-1.83-1.14,1.57,1.57,0,0,0-.92.23,1.64,1.64,0,0,1-.91.22c-.16,0-.27-.09-.35-.28s-.17-.4-.28-.63a4,4,0,0,0-.4-.63.85.85,0,0,0-.69-.29v-.34c0-.84.23-1.35.69-1.55a6.68,6.68,0,0,1,1.6-.4,1.33,1.33,0,0,0-.69-1.08A5.86,5.86,0,0,0,2.63,56a3.18,3.18,0,0,1-1.2-.57,1.91,1.91,0,0,1-.51-1.55,5.88,5.88,0,0,1,.22-1.6,6,6,0,0,0,.23-1.72,3.12,3.12,0,0,0-.28-1.31A1.6,1.6,0,0,0,0,48.42Zm48.07,0A9.4,9.4,0,0,0,50.48,42a4.58,4.58,0,0,0-.06-.8,4.79,4.79,0,0,1-.06-.81,21.84,21.84,0,0,1,1.89-5.09A14.16,14.16,0,0,0,53.8,30.1a5.57,5.57,0,0,1,2.29-2.17,24.93,24.93,0,0,0,.45-4.81,2.16,2.16,0,0,1,.86-1.94,11.34,11.34,0,0,1,1.89-1,15.74,15.74,0,0,0,2-1,2.74,2.74,0,0,0,1.14-2.06,5.88,5.88,0,0,1,.86-1.88c.49-.81,1.07-1.64,1.72-2.52s1.27-1.7,1.89-2.46S68,8.81,68.33,8.36c.76-.92,1.45-1.82,2.06-2.69a12.83,12.83,0,0,1,2-2.29A8.85,8.85,0,0,1,78.18,1,14.5,14.5,0,0,0,80.41.4a5.73,5.73,0,0,1,2-.4,2.91,2.91,0,0,1,2.23.8,6.85,6.85,0,0,1,1.21,1.83c.3.69.57,1.36.8,2A2.09,2.09,0,0,0,87.79,6a3.27,3.27,0,0,0,.86.4.72.72,0,0,1,.51.75,2.75,2.75,0,0,1-.57,1.31,4,4,0,0,0-.68,1.66,5.74,5.74,0,0,1,.22.57,1.87,1.87,0,0,1,.12.58.91.91,0,0,1-.46.91,5.39,5.39,0,0,1-1,.4,10.78,10.78,0,0,0-1.2.46,2,2,0,0,0-1,1.2,8.11,8.11,0,0,1-3.32,4c-1.61,1-3.28,2.12-5,3.26a22.39,22.39,0,0,0-4.63,4,9,9,0,0,0-2,6.18v.92c0,.45,0,.93.06,1.43s.07.93.11,1.31.1.58.18.58a6.41,6.41,0,0,0,2.8-.63,6.68,6.68,0,0,1,2.92-.63,4.1,4.1,0,0,1,2.17,1A35.39,35.39,0,0,1,80.69,38c1,.92,2,1.83,2.87,2.75a19.4,19.4,0,0,0,2.17,1.94v2a31.47,31.47,0,0,0,.57,6,31.65,31.65,0,0,1,.58,5.95,13,13,0,0,1-.52,3.9,16.07,16.07,0,0,1-1.2,2.86c-.46.84-.86,1.6-1.2,2.29a4.69,4.69,0,0,0-.52,2.17,2.5,2.5,0,0,1-.51-.06,3.49,3.49,0,0,0-.52,0,2.36,2.36,0,0,0-1.26.45,11.87,11.87,0,0,0-1.37,1.09q-.69.63-1.26,1.2a7,7,0,0,0-.8.92,5.15,5.15,0,0,1-1.83.34H74.06a6.78,6.78,0,0,0-3.44.86,7,7,0,0,1-3.55.86,18.25,18.25,0,0,1-3.83-.4c-1.26-.27-2.54-.48-3.83-.63a4,4,0,0,1-.81-1.49A8.52,8.52,0,0,0,58,69.36a3.4,3.4,0,0,0-.91-1.14,2.78,2.78,0,0,0-1.72-.46h-.57a5,5,0,0,1,1-1.77,2.89,2.89,0,0,0,.8-1.66,3.42,3.42,0,0,0-.92-1.95,2.48,2.48,0,0,0-1.83-1.14,1.54,1.54,0,0,0-.91.23,1.67,1.67,0,0,1-.92.22.36.36,0,0,1-.34-.28c-.08-.19-.18-.4-.29-.63a3.37,3.37,0,0,0-.4-.63.83.83,0,0,0-.69-.29v-.34c0-.84.23-1.35.69-1.55a6.8,6.8,0,0,1,1.6-.4A1.32,1.32,0,0,0,52,56.49,6.28,6.28,0,0,0,50.71,56a3.3,3.3,0,0,1-1.21-.57A1.91,1.91,0,0,1,49,53.91a5.53,5.53,0,0,1,.23-1.6,6.33,6.33,0,0,0,.23-1.72,3.13,3.13,0,0,0-.29-1.31A1.57,1.57,0,0,0,48.07,48.42Z"/></g></g></svg>