<svg xmlns="http://www.w3.org/2000/svg" width="362.85" height="64.38" viewBox="0 0 362.85 64.38">
  <title>Asset 1stroke</title>
  <g id="Layer_2" data-name="Layer 2">
    <g id="Layer_1-2" data-name="Layer 1">
      <g id="itv_a_cofession-longform-bg-desktop" data-name="itv a cofession-longform-bg-desktop">
        <g id="black_marker" data-name="black marker">
          <path d="M32.92,61.55c7.1.21,14.13.81,21.34.66,4-.09,8.14-.07,12.22-.12s7.85.84,12-.05c2.68-.58,5.17.12,7.76.48,2.42.34-56.81-.56-54.24-.27,4.22.46,8.55,0,12.81,0a167.94,167.94,0,0,0,18.5-.64c.69,0,1.39,0,2.07,0,4.46,0,8.87.3,13.35.25s8.71-.82,13.06-1c10.31-.33,20.6-.44,30.84.07,6.18.31,12.48-1.14,18.71-.32,4.78.63-61.25-.31-56.35-.23,5.09.08,10.27,0,15.34-.22,7.06-.22,14.06,0,21.11-.12,5.06-.13,10.62-1.2,15.33.77,3.64-.8,7.32-.35,11-.58a174.41,174.41,0,0,1,23.09.14c6.9.47,13.87.7,20.84.8s13.82-.44,20.61-.09c12.31.63,24.65-.73,37-.66,7,0,14.19-.11,21.15.09,7.91.22,15.85-1,23.78,0a67.47,67.47,0,0,0,13.92.12,33.25,33.25,0,0,1,7.91.48c5.14.79,10.47,1.12,15.69,1.53,7.91.63,15.81,1.36,23.81,1.69,1.88.08,3.87.2,5.24-1,2.39-2,2.82-6.35.5-8.2-1.9-1.52-.29-3.6-2.05-5,2.23-2.86,0-5.93,1.84-8.77,1-1.53.73-3,.87-4.51.65-6.59-3.53-12.71-2.72-19.3.34-1.6-1.15-2.63-3-3.12-3.54-.94-6-3-9.74-3.59a4.59,4.59,0,0,1-3-1.9,4.28,4.28,0,0,0-3.29-1.33c-4.67-.33-9.27-.89-14-1.11-6.08-.28-12-1.09-18.25-.73a84.26,84.26,0,0,1-9.27.15c-11.14-.58-22.36.18-33.54.28-4.69,0-9.37.48-14.06.29-4.94-.21-9.94-.43-14.89-.16-9.41.5-18.7-.08-28.07,0-8.62.12-17.27.12-25.85-.4-6.24-.38-12.62.11-18.95-.06-10.17-.29-20.43-.12-30.65-.15-2.71,0-5.19-.63-8-.38-10,.92-19.88.26-29.78.22-7.64,0,55.71.27,48.08.2-6.63,0-13.25-.15-19.89-.12s-13.55,0-20.29.17c-5.21.16-10.34-.18-15.54,0-2.27.07-4.44.55-6.79.42A114.81,114.81,0,0,0,64.31,6c-11.85,1,38.56-.26,26.79.23-9.59.48-19-.22-28.45,0-1.65,0-3.33.18-5,.23-4.84.15-9.15-1.14-14.23-.79-7.52.51-14.76-1-21.58-2.91a3.14,3.14,0,0,1-1.68-1C19.08,0,16.33,0,14.11,0A22.68,22.68,0,0,0,4.16,2.4C1.3,3.79-.59,5.4.16,7.65s.43,4.63,1.64,6.88c.78,1.45,1.74,3.16,1.66,4.59-.2,3.87.3,7.71-.16,11.57-.06.52-.14.88.68,1,.59.11,1,.17.85.73-1.19,4.41,2.39,8.34,2,12.68a.67.67,0,0,0,.23.53c3,2.31,2.17,4.84.54,7.46-.38.6-.81,1.59-.37,1.89,2.19,1.5,3.27,3.45,5.15,5A10.56,10.56,0,0,0,18,62.1C23,62.87,27.85,61.39,32.92,61.55Z" style="fill: #853849"/>
        </g>
      </g>
    </g>
  </g>
</svg>
