<svg xmlns="http://www.w3.org/2000/svg" width="18.79" height="19.51" viewBox="0 0 18.79 19.51">
  <title>Asset 29cross</title>
  <g id="Layer_2" data-name="Layer 2">
    <g id="itv_a_cofession-longform-bg-desktop">
      <g id="_1_the_report" data-name="1 the report">
        <g id="Q1_answer" data-name="Q1 answer">
          <g id="incorrect">
            <path d="M18.15,17.83a1.63,1.63,0,0,1-1.43.57,2.54,2.54,0,0,1-1.38-.74,2,2,0,0,1-.44-.72,2,2,0,0,0-.48-.75,5.08,5.08,0,0,0-.75-.64c-.27-.19-.53-.37-.79-.53l-.69-.44a2.71,2.71,0,0,1-.47-.35,3.19,3.19,0,0,1-.42-.52,2.8,2.8,0,0,0-.41-.5.79.79,0,0,0-.67-.25,2.44,2.44,0,0,0-.83.22,4.53,4.53,0,0,0-.8.45,4.18,4.18,0,0,0-.6.48,2,2,0,0,0-.38.52c-.08.17-.17.35-.25.53s-.19.37-.32.58a3.23,3.23,0,0,1-.56.7c-.15.16-.31.31-.48.46l-.46.44a4.69,4.69,0,0,0-.65.82,5.26,5.26,0,0,1-.68.83,1.7,1.7,0,0,1-.81.46,2.24,2.24,0,0,1-.93,0,3.67,3.67,0,0,1-.91-.33,3.73,3.73,0,0,1-.72-.53A2.72,2.72,0,0,1,.41,18a3.85,3.85,0,0,1-.32-.75A2.18,2.18,0,0,1,0,16.51a.92.92,0,0,1,.26-.6,1.35,1.35,0,0,1,.28-.22,1.54,1.54,0,0,0,.29-.23,1.58,1.58,0,0,0,.34-.5,1.77,1.77,0,0,1,.34-.5,4.69,4.69,0,0,1,.87-.67,7.59,7.59,0,0,0,.9-.62A13.73,13.73,0,0,0,4.63,12L5.9,10.72a3.24,3.24,0,0,0,.42-.56,3.15,3.15,0,0,0,.35-.77,2.16,2.16,0,0,0,.11-.79A1,1,0,0,0,6.5,8a1.91,1.91,0,0,0-.56-.38,6.5,6.5,0,0,0-.66-.27L4.61,7a2,2,0,0,1-.56-.38.56.56,0,0,1-.15-.33.7.7,0,0,0-.2-.38,3.05,3.05,0,0,0-.93-.63,3.4,3.4,0,0,1-1-.68,5.69,5.69,0,0,1-.67-.84A6.47,6.47,0,0,1,.51,2.62,3.27,3.27,0,0,1,.23,1.43,1.27,1.27,0,0,1,.6.45,1.46,1.46,0,0,1,1.5,0a3.42,3.42,0,0,1,1.1,0,3.8,3.8,0,0,1,1.08.4,3.38,3.38,0,0,1,.82.58,5.26,5.26,0,0,1,1,1.41,5.88,5.88,0,0,0,1,1.4,4.63,4.63,0,0,0,1.07.79,4.59,4.59,0,0,1,1.05.77A1.41,1.41,0,0,1,9,5.9a1.37,1.37,0,0,0,.3.45.72.72,0,0,0,.45.17,2,2,0,0,0,.64,0A3.3,3.3,0,0,0,11,6.36a1.24,1.24,0,0,0,.44-.25,1,1,0,0,0,.25-.48,1,1,0,0,1,.28-.52,1.14,1.14,0,0,1,.42-.26,1.12,1.12,0,0,0,.43-.27A.63.63,0,0,0,13,4.24a2.5,2.5,0,0,0,0-.4c0-.15,0-.28,0-.39a.52.52,0,0,1,.16-.32A.6.6,0,0,1,13.62,3a.65.65,0,0,0,.47-.2,1.12,1.12,0,0,0,.31-.59,1.41,1.41,0,0,1,.41-.68A3.66,3.66,0,0,1,15.4,1a3,3,0,0,1,.74-.32,1.74,1.74,0,0,1,.75,0,1.12,1.12,0,0,1,.65.34,2.52,2.52,0,0,1,.68,1,1.91,1.91,0,0,1,.06,1,2.42,2.42,0,0,1-.43,1,7.19,7.19,0,0,1-.76.91,1.43,1.43,0,0,1-.43.27,1.34,1.34,0,0,0-.45.29.7.7,0,0,0-.21.43.79.79,0,0,1-.25.46,1.71,1.71,0,0,1-.73.44,1.7,1.7,0,0,0-.74.44,4.62,4.62,0,0,0-.94,1.35c-.22.5-.42,1-.6,1.49l0,.18a2.12,2.12,0,0,0,.54.36,1.73,1.73,0,0,1,.56.38,4.94,4.94,0,0,1,.7.87,5.2,5.2,0,0,0,.73.91,4,4,0,0,0,.95.7,3.59,3.59,0,0,1,.95.7,3.38,3.38,0,0,1,.41.5c.17.24.35.5.54.79s.33.57.46.83a1.22,1.22,0,0,1,.16.58,1,1,0,0,1-.26.54C18.38,17.59,18.25,17.73,18.15,17.83Z" style="fill: #fff"/>
          </g>
        </g>
      </g>
    </g>
  </g>
</svg>
