<svg xmlns="http://www.w3.org/2000/svg" width="25.74" height="26.48" viewBox="0 0 25.74 26.48">
  <title>Asset 28tick</title>
  <g id="Layer_2" data-name="Layer 2">
    <g id="itv_a_cofession-longform-bg-desktop">
      <g id="_1_the_report" data-name="1 the report">
        <g id="Q1_answer" data-name="Q1 answer">
          <g id="correct">
            <path d="M25.74,2A1.68,1.68,0,0,0,25,.53,3.15,3.15,0,0,0,23.16,0a2.75,2.75,0,0,0-1,.14,3.51,3.51,0,0,0-.6.33h0c-.09.06-.19.12-.29.2a3,3,0,0,1-.68.27,1.31,1.31,0,0,1-.14.5,7.1,7.1,0,0,1-.33.69,5.22,5.22,0,0,1-.43.68,1.43,1.43,0,0,1-.43.43,3.87,3.87,0,0,1-.35,1.18c-.11.25-.23.47-.34.71l2-3-.25.48-.11.19a16.1,16.1,0,0,1-.73,1.7,5.16,5.16,0,0,1-1.26,1.61A2.73,2.73,0,0,1,18,7a11.81,11.81,0,0,1-.55,1.22,10.89,10.89,0,0,1-.68,1.17,3.14,3.14,0,0,1-.61.73v.31a.89.89,0,0,1-.12.47l-.29.41v0a4.77,4.77,0,0,0-.48.73v0a2,2,0,0,0-.26.57c0,.16-.09.32-.14.49,1.3-2.15,2.64-4.33,2.53-4.09-.26.59-.51,1.13-.76,1.62s-.51,1-.79,1.44-.59,1-.93,1.46-.62.87-1,1.34c-.16.25-.32.5-.5.76-.31.45-.62.92-.94,1.41-.06.09.09-.16.37-.63l-.07.11-.61,1c-.16.26-.31.49-.43.67a3.41,3.41,0,0,1-.37.5,4.29,4.29,0,0,0-.94,1.13,8.63,8.63,0,0,1-.5.72l-.26,0a6.7,6.7,0,0,1-.8-.11A2.43,2.43,0,0,1,8.18,20L7,19.39,6.33,19l-.63-.38L4.6,18a.66.66,0,0,1-.33-.33,1.32,1.32,0,0,0-.36-.42A1.5,1.5,0,0,0,3.4,17a1.67,1.67,0,0,1-.52-.25A7.5,7.5,0,0,1,2.2,16a1,1,0,0,0-.84-.37.92.92,0,0,0-.49.16,2.11,2.11,0,0,0-.43.37,2.3,2.3,0,0,0-.32.49,1.19,1.19,0,0,0-.12.51,1.29,1.29,0,0,0,.37.75,8.11,8.11,0,0,0,.88.88,10.54,10.54,0,0,0,1,.81,6.1,6.1,0,0,0,.79.5,7.08,7.08,0,0,1,1.6,1.18,17.7,17.7,0,0,0,2.1,1.84c.26.2,1.77,2.13,2,2.4a2.79,2.79,0,0,0,.81.67,2.29,2.29,0,0,0,1.07.26A2,2,0,0,0,11.9,26a4.53,4.53,0,0,0,.94-1.1,6.53,6.53,0,0,0,.62-1.24,5.21,5.21,0,0,0,.29-.93,12.64,12.64,0,0,0,.84-1c.33-.45.66-.92,1-1.4s.61-.94.86-1.37a3.58,3.58,0,0,0,.43-1l.28-.41c.22-.37.42-.71.59-1a9.3,9.3,0,0,0,.47-.95c.14-.33.27-.67.38-1a3,3,0,0,0,.06-.32c-1.26,2-2.5,3.85-2.5,3.58v-.06a6.07,6.07,0,0,0,.64-.75,11.27,11.27,0,0,0,.67-1A8.7,8.7,0,0,0,18,15a2.28,2.28,0,0,0,.21-.83V14a5.65,5.65,0,0,0,.65-.64h0s0-.05.06-.07a4.12,4.12,0,0,0,.33-.43,2.25,2.25,0,0,1,.12-.21c0-.09.09-.18.12-.27s.15-.35.23-.51a1.14,1.14,0,0,1,.3-.4c.13-.26.26-.52.42-.79.07-.11,0,.14-.19.51a7.31,7.31,0,0,0,.64-.72c.31-.48.62-.95.89-1.42l1-1.68a1.87,1.87,0,0,0,.7-.56A4.24,4.24,0,0,0,23.87,6c.13-.27.25-.56.36-.86a8.45,8.45,0,0,1,.39-.88v0A5.79,5.79,0,0,0,25,3.48c0-.08,0-.16.08-.24a1.91,1.91,0,0,0,.46-.48A1.53,1.53,0,0,0,25.74,2Z" style="fill: #fff"/>
          </g>
        </g>
      </g>
    </g>
  </g>
</svg>
